<?xml version="1.0" encoding="utf-8"?>
<!-- Generator: Adobe Illustrator 25.0.1, SVG Export Plug-In . SVG Version: 6.00 Build 0)  -->
<svg version="1.1" id="Layer_1" xmlns="http://www.w3.org/2000/svg" xmlns:xlink="http://www.w3.org/1999/xlink" x="0px" y="0px"
	 viewBox="0 0 211.5 64.7" style="enable-background:new 0 0 211.5 64.7;" xml:space="preserve">
<style type="text/css">
	.st0{opacity:0;fill:#1B1A1A;stroke:#231F20;stroke-miterlimit:10;}
	.st1{fill:#BBCADD;}
	.st2{fill:#FDFDFB;}
</style>
<rect x="0.6" y="0.6" class="st0" width="210.9" height="64.1"/>
<path class="st1" d="M83.5,1.5h-8.3c0,0,10.1,23.9-1.6,24.4c0,0-28.9,2.3-14.2-23.4l-11.7-1c0,0-2.9,23.9,15.1,29.2v32.5H78
	l-7.4-31.4c1.6,0,3.4-0.1,5.3-0.4C75.9,31.5,88.3,30.4,83.5,1.5z"/>
<path class="st2" d="M174.2,63.3h-9.6c0,0,6.2-31.9-4.1-32.2c-0.3,0-0.7,0-1-0.1c-2.4-0.7-13.7-2.2-11.3,32.3h-8.4
	c0,0-2.1-66.1,12-61.1C151.8,2.2,180.6,26.3,174.2,63.3z"/>
<path class="st2" d="M131.2,56.6c0,0,4.2-12.2-10.1-16.5c-1.1-0.3-2.2-0.5-3.4-0.5L104.3,39c0,0-14.2,0.7-16.5-17.8v-0.1
	c0-0.9,0.2-15,13.4-18.9c1.1-0.3,2.2-0.4,3.2-0.4h34.1c0.6,0,0.8,0.7,0.4,1.1l-12.3,12.3c-0.1,0.1-0.3,0.2-0.4,0.2l-19.9,0.1
	c-0.5,0-1,0.1-1.5,0.3c-1.2,0.6-3.4,2.1-2.9,5.6c0.3,1.9,1.5,3.4,3.3,4c2.7,0.8,6.9,0.8,12.3,0.3l0,0c0.2,0,12.9-0.5,18.3,10
	c0.3,0.6,0.5,1.2,0.7,1.8C137.2,40.6,138.5,49.5,131.2,56.6z"/>
<circle class="st1" cx="117.9" cy="54.2" r="9.1"/>
<path class="st2" d="M163.6,1.9c23.5,0.3,31.2,0.2,33.2,0.2c0.5,0,1,0.1,1.5,0.2c2.7,0.7,10.6,3.7,12.3,15c0,0,2,12.2-11.9,17.5
	c-0.5,0.2-1.1,0.3-1.7,0.3l-18.9,0.5c-0.8,0-1.5-0.5-1.8-1.3l-3.9-10.8l21.9-0.3c0.1,0,0.1,0,0.2,0c0.5-0.2,3.3-1.4,3.6-4.7
	c0,0,0.4-3.8-4.5-4.5L167,13.5C167,13.5,153.7,1.8,163.6,1.9z"/>
<path class="st1" d="M1.8,23.2c0.3,0.1,6.6,1.2,20.8-3c0,0,1.4-0.1,2.3,1.2c3.6,2.6,6.9,1.6,6.9,1.6c0.1,0,0.2,0,0.2,0
	c1.1-0.2,8.4-1.8,6.8-7.8c-0.1-0.2-2-4.4-9.5-3c-0.1,0,0.3-0.2-0.2,0c-0.4,0.1-2.2,0-4.9,2.5c0,0-1.6,2.5-3.9,3
	c0,0-9.9,0.9-12.9-1.3l0,0c0,0-8.7-3.6-5.8-10.6c0,0,1.6-3.9,7.7-4.2l0,0l17.4,0.6l0,0c0,0,18.3,0.6,19.3,16.1c0,0.4,0,1,0,1.4
	c-0.2,2.7-0.1,9.5-7.1,12.8l0,0c0,0-6.4,2.4-11.1,4l0,0c0,0-2.3,0.6-3.3,0c0,0-3.9-2.7-6.7-1.3l0,0l-9.9,3.3l0,0
	c0,0.1-0.8,1.8,1.4,1.4l0,0l8.6-2.7l0,0c0,0,2.2-0.1,0.4,1.2l0,0l-8.8,2.7l0,0c-0.1,0-2.2,1.9,0.6,2l0,0l8.7-2.9
	c0.1,0,0.2-0.1,0.3,0c0.4,0,1.4,0.1,0,1.1l0,0l-8.5,2.6l0,0c0,0-2.5,2,0.4,2l0,0l8.5-2.5c0.1,0,0.2,0,0.3-0.1c0.5,0,1.9-0.2,0.5,0.9
	l0,0l-9.1,3.1l0,0c0,0-0.8,1.4,0.7,1.7l0,0l9.3-2.9l0,0c0.2-0.1,4.1-1.7,4.5-4.6l0,0c0,0,0.5-1.1,1.1-1.4c0,0,3-1.7,5.4-1.4
	c0.6,0,1.1,0,1.7,0.1c2.4-0.1,8.6,0.1,10.9,6.5c0,0,4,9.4-7.4,14.8c0,0-7.9,3.6-14,3.1l0,0L7.3,63.1l0,0c0,0-4.3,0.5-5.4-3.9l0,0
	L1.8,23.2L1.8,23.2z"/>
</svg>
