<?xml version="1.0" encoding="utf-8"?>
<!-- Generator: Adobe Illustrator 25.0.1, SVG Export Plug-In . SVG Version: 6.00 Build 0)  -->
<svg version="1.1" id="Layer_1" xmlns="http://www.w3.org/2000/svg" xmlns:xlink="http://www.w3.org/1999/xlink" x="0px" y="0px"
	 viewBox="0 0 214.1 64.2" style="enable-background:new 0 0 214.1 64.2;" xml:space="preserve">
<style type="text/css">
	.st0{fill:#BBCADD;}
	.st1{fill:#373737;}
</style>
<path class="st0" d="M84.2,1h-8.4c0,0,10.3,24.2-1.6,24.7c0,0-29.2,2.3-14.4-23.7L47.9,1c0,0-2.9,24.2,15.3,29.6v32.9h15.5
	l-7.5-31.8c1.7,0,3.4-0.1,5.3-0.4C76.5,31.4,89.1,30.2,84.2,1z"/>
<path class="st1" d="M176.1,63.6h-9.8c0,0,6.3-32.3-4.1-32.6c-0.3,0-0.7,0-1-0.1c-2.4-0.7-13.8-2.3-11.4,32.7h-8.5
	c0,0-2.1-66.9,12.2-62C153.4,1.7,182.6,26.1,176.1,63.6z"/>
<path class="st1" d="M132.5,56.8c0,0,4.3-12.3-10.2-16.7c-1.1-0.3-2.3-0.5-3.4-0.5L105.3,39c0,0-14.3,0.7-16.8-18.1c0,0,0-0.1,0-0.1
	c0-0.9,0.2-15.2,13.6-19.1c1.1-0.3,2.2-0.4,3.3-0.4l34.6,0c0.6,0,0.8,0.7,0.4,1.1l-12.5,12.5c-0.1,0.1-0.3,0.2-0.4,0.2l-20.2,0.1
	c-0.5,0-1,0.1-1.5,0.3c-1.3,0.6-3.4,2.1-2.9,5.7c0.3,1.9,1.6,3.5,3.4,4c2.7,0.8,7,0.8,12.5,0.3c0,0,0,0,0,0
	c0.2,0,13.1-0.5,18.5,10.2c0.3,0.6,0.5,1.2,0.7,1.8C138.6,40.7,139.9,49.7,132.5,56.8z"/>
<circle class="st0" cx="119" cy="54.4" r="9.2"/>
<path class="st1" d="M165.3,1.4C189.1,1.7,197,1.7,199,1.6c0.5,0,1,0.1,1.5,0.2c2.7,0.7,10.7,3.7,12.5,15.2c0,0,2,12.3-12.1,17.8
	c-0.5,0.2-1.1,0.3-1.7,0.3l-19.2,0.5c-0.8,0-1.6-0.5-1.8-1.3l-4-11l22.2-0.3c0.1,0,0.1,0,0.2,0c0.5-0.2,3.3-1.5,3.7-4.7
	c0,0,0.4-3.9-4.6-4.6l-26.9-0.6C168.8,13.2,155.3,1.3,165.3,1.4z"/>
<path class="st0" d="M1.4,23c0.4,0.1,6.7,1.2,21.1-3.1c0,0,1.5-0.1,2.4,1.2c3.6,2.6,7,1.7,7,1.7c0.1,0,0.2,0,0.2,0
	c1.1-0.2,8.5-1.8,6.9-7.9c-0.1-0.2-2.1-4.5-9.6-3c-0.1,0,0.3-0.2-0.2,0c-0.4,0.1-2.3,0-4.9,2.5c0,0-1.6,2.6-3.9,3
	c0,0-10,0.9-13.1-1.3c0,0,0,0,0,0c0,0-8.8-3.7-5.9-10.7c0,0,1.6-4,7.8-4.3c0,0,0,0,0,0l17.6,0.6c0,0,0,0,0,0c0,0,18.6,0.6,19.5,16.3
	c0,0.4,0,1,0,1.4c-0.2,2.7-0.1,9.7-7.2,13c0,0,0,0,0,0c0,0-6.5,2.4-11.2,4.1c0,0,0,0,0,0c0,0-2.4,0.6-3.4,0c0,0-4-2.7-6.8-1.3
	c0,0,0,0,0,0L7.6,38.5c0,0,0,0,0,0c-0.1,0.1-0.8,1.8,1.4,1.4c0,0,0,0,0,0l8.8-2.7c0,0,0,0,0,0c0,0,2.3-0.1,0.4,1.2c0,0,0,0,0,0
	l-8.9,2.7c0,0,0,0,0,0c-0.1,0-2.2,1.9,0.6,2c0,0,0,0,0,0l8.8-2.9c0.1,0,0.2-0.1,0.3-0.1c0.4,0,1.4,0.1,0,1.1l0,0
	c0,0-8.6,2.6-8.6,2.6c0,0,0,0,0,0c0,0-2.5,2,0.4,2c0,0,0,0,0,0c0,0,8.6-2.5,8.6-2.5c0.1,0,0.2,0,0.3-0.1c0.5,0,2-0.2,0.5,0.9
	c0,0,0,0,0,0c0,0-9.2,3.1-9.2,3.1c0,0,0,0,0,0c0,0-0.8,1.4,0.7,1.7c0,0,0,0,0,0l9.4-2.9c0,0,0,0,0,0c0.2-0.1,4.1-1.7,4.6-4.6
	c0,0,0,0,0,0c0,0,0.5-1.1,1.1-1.4c0,0,3.1-1.7,5.5-1.5c0.6,0,1.2,0,1.7,0.1c2.5-0.1,8.7,0.1,11,6.6c0,0,4,9.5-7.5,15
	c0,0-8,3.7-14.2,3.1c0,0,0,0,0,0L7,63.4c0,0,0,0,0,0c0,0-4.3,0.5-5.5-3.9c0,0,0,0,0,0L1.4,23C1.4,23,1.4,23,1.4,23z"/>
</svg>
