<?xml version="1.0" encoding="utf-8"?>
<!-- Generator: Adobe Illustrator 24.0.2, SVG Export Plug-In . SVG Version: 6.00 Build 0)  -->
<svg version="1.1" xmlns="http://www.w3.org/2000/svg" xmlns:xlink="http://www.w3.org/1999/xlink" x="0px" y="0px"
	 viewBox="0 0 393.7 405.96" style="enable-background:new 0 0 393.7 405.96;" xml:space="preserve">
<style type="text/css">
	.st0{fill:#BBCADD;}
	.st1{fill:#FAFAFA;}
	.st2{fill:#263238;}
	.st3{fill:#FFBE9D;}
	.st4{fill:#EB996E;}
	.st5{fill:#455A64;}
	.st6{fill:#F7BFC6;}
	.st7{fill:none;stroke:#FFFFFF;stroke-width:0.02;stroke-miterlimit:10;}
	.st8{font-family:'CalifornianFB-Reg';}
	.st9{font-size:14px;}
	.st10{letter-spacing:46.22;}
	.st11{fill:#373737;}
	.st12{fill:#C12727;}
</style>
<g id="Background_Simple">
	<g>
		<path class="st0" d="M380.86,81.85c-7.84-24.8-21.82-48.54-43.31-62.47c-19.99-12.96-45.66-16.25-68.14-8.74
			s-41.34,25.67-50.05,48.21c-4.67,12.08-6.5,25.1-10.37,37.47c-3.87,12.37-10.37,24.69-21.37,31.13
			c-12.34,7.22-27.75,5.63-41.49,1.9c-13.74-3.73-27.22-9.4-41.43-9.71c-29.43-0.66-52.05,26.27-58.45,55.74
			c-7.16,32.96-3.17,67.11,39.91,90.95c0.73,0.4,0.93,0.55,0.87,0.55c15.63,9.9,24.8,17.25,42.09,21.97
			c40.81,9.98,85.85,2.19,118.48,0c42.42-2.85,56.68-14.4,83.25-33.95c25.5-18.76,43.98-46.97,52.49-77.94
			C391.84,145.99,390.54,112.46,380.86,81.85z"/>
		<path class="st0" d="M87.02,266.87c-0.29-0.18-0.58-0.37-0.87-0.55C83.58,265.33,86.81,266.89,87.02,266.87z"/>
	</g>
</g>
<g id="Texts">
	<g>
		<g>
			<rect x="7.61" y="19.77" class="st1" width="177.74" height="226.86"/>
		</g>
		<g>
			<g>
				<path class="st2" d="M185.35,246.63c0-2.13-0.06-90-0.16-226.86l0.16,0.26C134.7,20.04,73.51,20.06,7.63,20.08H7.61l0.19-0.31
					C7.8,101.58,7.79,178.94,7.78,246.63l-0.17-0.28C113.13,246.52,183.86,246.63,185.35,246.63c-1.49,0-72.23,0.11-177.74,0.28
					l-0.17,0l0-0.28C7.44,178.94,7.43,101.58,7.42,19.77l0-0.31h0.19h0.02c65.88,0.02,127.07,0.04,177.72,0.05l0.16,0l0,0.26
					C185.42,156.63,185.36,244.5,185.35,246.63z"/>
			</g>
		</g>
	</g>
	<g>
		<g>
			<path class="st0" d="M101.36,105.15c-8.19,0-14.86-5.54-14.86-12.36c0-6.81,6.67-12.36,14.86-12.36s14.86,5.54,14.86,12.36
				C116.22,99.61,109.55,105.15,101.36,105.15z M101.36,81.72c-7.35,0-13.33,4.97-13.33,11.08c0,6.11,5.98,11.08,13.33,11.08
				c7.35,0,13.33-4.97,13.33-11.08C114.69,86.69,108.71,81.72,101.36,81.72z"/>
		</g>
		<g>
			<path class="st0" d="M100.28,96.61c-0.18,0-0.36-0.05-0.51-0.16c-1.3-0.95-3.52-2.6-3.81-2.96c-0.23-0.29-0.14-0.69,0.21-0.88
				c0.35-0.19,0.82-0.12,1.05,0.17c0.21,0.22,1.62,1.29,3.03,2.33l7.52-5.94c0.31-0.24,0.79-0.23,1.08,0.02
				c0.29,0.26,0.28,0.66-0.03,0.9l-8.03,6.34C100.66,96.55,100.47,96.61,100.28,96.61z"/>
		</g>
	</g>
	<g>
		<g>
			<path d="M186.7,50.66c0,0.17-39.69,0.31-88.64,0.31c-48.97,0-88.65-0.14-88.65-0.31s39.68-0.31,88.65-0.31
				C147.01,50.35,186.7,50.49,186.7,50.66z"/>
		</g>
	</g>
</g>
<g id="Character">
	<g>
		<path class="st3" d="M339.6,212.31c0,0,12.14-7.38,14.87-5.21c3.95,3.13,5.26,8.42,5.26,8.42s6.41-24.45,12.53-23.52
			c3.51,0.53,1.79,3.27,0.21,6.7c-1.46,3.19-3.95,14.88-3.95,14.88s11.6-13.76,15.01-13.51c2.64,0.19,3.02,2.51-0.78,6.23
			c-3.79,3.72-10.09,15.44-10.09,15.44s8.13-7.57,11.48-7.62c2.68-0.03,4.41,1.83,0.94,4.83c-3.46,3.01-8.71,5.26-11.5,10.71
			c-3.45,6.71-10.8,23.42-10.8,23.42l-25.73-9.11c0,0-4.19-17.07-4.35-21.21c0,0,0.35-8.76,0.3-10.32
			c-0.05-1.56,4.09-1.96,5.34,1.04c1.26,2.99,0.69,6.14,1.2,8.13c0.51,1.99,1.42,3.84,2.87,4.73c1.46,0.89,5.16,0.95,6.11-0.15
			c0.95-1.1,2.09-4.31,2.34-6.28c0.25-1.97-0.07-5.09-0.07-5.09S340.12,219.15,339.6,212.31z"/>
	</g>
	<g>
		<g>
			<g>
				<path class="st3" d="M50.56,291.93l-17.88-6.7c0,0-18.2-10.66-21.57-6.87c0,0-3.6-1.72-5.2,2.12c-0.93,2.22,2.13,5.45,2.13,5.45
					s-0.95,0.96,0.56,4.23c1.51,3.27,18.78,13.57,18.78,13.57s22.46,12.25,31.54,18.11l15.67-21.31l-2.18-0.81
					c0,0-1.29-10.62-5.64-13.45c-4.73-3.08-10.44-11.42-11.69-14.69c-1.26-3.27-7.29-1.76-6.28,5.02c1,6.78,6.28,8.54,5.78,13.06
					C54.08,294.19,50.56,291.93,50.56,291.93z"/>
			</g>
			<g>
				<g>
					<path class="st4" d="M23.15,294.41c-0.07,0.13-3.55-1.69-7.78-4.06c-4.23-2.37-7.59-4.39-7.52-4.51
						c0.07-0.13,3.55,1.69,7.78,4.06C19.86,292.26,23.23,294.28,23.15,294.41z"/>
				</g>
			</g>
			<g>
				<g>
					<path class="st4" d="M31.88,289.38c-0.03,0.06-1.25-0.43-3.21-1.28c-1.95-0.85-4.64-2.07-7.54-3.55
						c-2.9-1.48-5.45-2.97-7.24-4.14c-0.89-0.59-1.6-1.08-2.07-1.45c-0.48-0.36-0.73-0.58-0.71-0.61c0.05-0.07,1.15,0.66,2.97,1.74
						c1.83,1.08,4.4,2.51,7.28,3.99c2.89,1.48,5.54,2.75,7.45,3.68C30.74,288.71,31.91,289.32,31.88,289.38z"/>
				</g>
			</g>
			<g>
				<g>
					<path class="st4" d="M35.64,299.23c-0.02,0.03-0.58-0.28-1.58-0.86c-1.07-0.64-2.49-1.49-4.21-2.51l-0.05-0.03l-0.03-0.06
						c-0.79-1.71-1.77-3.71-3.03-5.81c-0.64-1.03-1.34-2.14-2.27-3.01c-0.93-0.86-2.41-1.01-3.52-0.26
						c-0.24,0.13-0.53,0.42-0.56,0.51c0.03,0.04,0.02,0.05,0.04,0.12l0.07,0.22c0.04,0.15,0.1,0.3,0.16,0.45
						c0.22,0.6,0.45,1.18,0.68,1.76c0.47,1.15,0.93,2.27,1.37,3.34c0.89,2.12,1.7,4.07,2.42,5.77l-0.03-0.05
						c1.47,1.72,2.68,3.14,3.59,4.21c0.38,0.46,0.7,0.85,0.96,1.17c0.21,0.27,0.32,0.42,0.31,0.43c-0.01,0.01-0.15-0.11-0.39-0.36
						c-0.28-0.3-0.63-0.66-1.04-1.1c-0.94-1.04-2.2-2.42-3.73-4.1l-0.02-0.02l-0.01-0.03c-0.74-1.67-1.59-3.6-2.5-5.74
						c-0.45-1.07-0.91-2.19-1.39-3.34c-0.23-0.58-0.47-1.17-0.69-1.78c-0.06-0.15-0.11-0.3-0.16-0.46l-0.08-0.24
						c-0.03-0.09-0.05-0.24-0.05-0.36c0.09-0.32,0.24-0.38,0.36-0.53c0.14-0.12,0.28-0.23,0.43-0.32c0.64-0.41,1.4-0.62,2.15-0.55
						c0.76,0.05,1.44,0.41,1.98,0.87c1.03,0.97,1.71,2.08,2.36,3.14c1.26,2.14,2.21,4.17,2.97,5.91l-0.07-0.09
						c1.68,1.09,3.07,1.98,4.12,2.66C35.13,298.83,35.66,299.2,35.64,299.23z"/>
				</g>
			</g>
		</g>
		<g>
			<g>
				<path class="st4" d="M53.56,299.4c-0.02,0.07-0.86-0.16-2.2-0.54c-1.34-0.36-3.2-0.88-5.28-0.93c-2.08-0.05-3.94,0.54-5.1,1.25
					c-1.17,0.7-1.69,1.42-1.76,1.35c-0.04-0.02,0.38-0.84,1.56-1.66c1.16-0.83,3.12-1.51,5.3-1.46c2.18,0.06,4.07,0.65,5.38,1.1
					C52.8,298.98,53.58,299.34,53.56,299.4z"/>
			</g>
		</g>
		<g>
			<g>
				<path class="st4" d="M52.22,294.68c0.12,0.09-0.33,0.86-0.76,1.86c-0.44,0.99-0.71,1.84-0.85,1.81
					c-0.14-0.02-0.09-0.97,0.38-2.02C51.44,295.27,52.11,294.6,52.22,294.68z"/>
			</g>
		</g>
	</g>
	<g>
		<g>
			<path class="st2" d="M155.25,209.7c1.23-8.42,11.04-20.51,19.73-20.52c-4.98-7.21-5.05-17.36-0.19-24.65
				c3.35-5.01,8.75-8.7,11.04-14.26c2.59-6.29,0.6-13.39,0.85-20.17c0.36-9.92,5.52-18.98,10.55-27.6
				c4.6-7.89,10.22-16.54,19.27-18.48c5.73-1.23,11.67,0.58,17.05,2.87c25.75,10.97,45.77,34.08,52.64,60.76
				c1.64,6.39,2.75,13.3,7.2,18.23c4.71,5.23,12.97,8.06,14.39,14.9c1.01,4.9-2.13,9.83-1.66,14.82c0.4,4.17,8.21,16.34,10.02,20.14
				c3.1,6.55,1.98,13.62-1.18,20.15c-3.16,6.52-11.21,12.88-18.35,14.65l-79.8-26.59c-7.51,4.27-14.99,20.81-23.61,21.82
				c-8.62,1.02-19.14,4.77-27.43-4.31C157.08,231.98,154.01,218.13,155.25,209.7z"/>
		</g>
		<g>
			<path class="st2" d="M287.57,130.33c-0.89,6.68,0.94,17.72,4.59,23.42c2.45,3.83,6.54,6.32,10.57,8.51
				c4.03,2.19,8.26,4.29,11.31,7.68c3.06,3.38,4.7,8.46,2.65,12.51c7.19,2.68,10.41,11.84,7.78,18.92
				c-2.64,7.08-9.87,11.85-17.42,13.26l-32.91-9.9l-7.23-42l19-32.4"/>
		</g>
		<g>
			<g>
				<path class="st5" d="M291.61,173.15c0.01-0.01,0.23,0.08,0.64,0.28c0.41,0.22,1.05,0.46,1.8,0.93c1.53,0.88,3.63,2.41,5.77,4.81
					c1.09,1.18,2.09,2.64,3.07,4.27c0.9,1.67,1.82,3.51,2.4,5.6c1.28,4.11,1.56,9.11,0.09,14.02l-0.12-0.3
					c1.89,1.06,3.72,2.43,5.36,4.07c4.2,4.17,6.6,9.59,7.18,14.65c0.56,5.11-0.66,9.74-2.36,13.17c-1.71,3.47-3.83,5.82-5.41,7.27
					c-0.8,0.71-1.45,1.24-1.92,1.56c-0.46,0.33-0.71,0.49-0.72,0.48c-0.01-0.01,0.21-0.21,0.65-0.56c0.45-0.34,1.07-0.89,1.84-1.62
					c1.52-1.48,3.57-3.85,5.21-7.29c1.63-3.41,2.79-7.96,2.21-12.96c-0.59-4.96-2.95-10.26-7.07-14.34c-1.6-1.6-3.39-2.95-5.24-3.99
					l-0.18-0.1l0.06-0.2c1.45-4.79,1.2-9.68-0.03-13.73c-0.56-2.05-1.44-3.88-2.31-5.53c-0.95-1.61-1.92-3.06-2.98-4.24
					c-2.07-2.4-4.12-3.95-5.61-4.88c-0.72-0.49-1.35-0.76-1.74-1.01C291.81,173.29,291.6,173.16,291.61,173.15z"/>
			</g>
		</g>
	</g>
	<g>
		<path class="st6" d="M194.24,216.64c0,0-14.71,4.47-19.86,11.97c-3.65,5.3-40.99,86.17-40.99,86.17l-56.68-17.04l-20.27,26.77
			l63.07,34.96c11.69,6.48,25.91,6.42,37.55-0.17l0,0c6.45-3.65,11.71-9.09,15.14-15.66l16.04-30.72L194.24,216.64z"/>
	</g>
	<g>
		<path class="st6" d="M179.19,392.77l8.85-38.15l-6.71-27.7c-4.31-14.26-8.02-37.5-3.32-56.21l15.68-53.81l17.24-7.93l39.44-6.78
			c1.52,0.51,41.24,11.73,41.24,11.73c5.5,1.28,7.71,2.15,7.71,2.15l4.56,29.46l-13.7,48.55l-5.96,48.38l13.1,50.32H179.19z"/>
	</g>
	<g>
		<g>
			<path class="st7" d="M176.26,274.09"/>
		</g>
	</g>
	<g>
		<g>
			<path class="st7" d="M268.68,277.64"/>
		</g>
	</g>
	<g>
		<path class="st3" d="M201.99,213.08l11.44-5.12l51.55,0.72l12.19,7.08c0,0-42.59,47-53.28,48.56
			C197.01,268.23,201.99,213.08,201.99,213.08z"/>
	</g>
	<g>
		<path class="st6" d="M298.2,215.66c0,0,7.72,1.74,14.34,15.86c6.62,14.12,17.32,53.42,17.32,53.42l4.57-41.65l37.27,4.1
			l-7.21,99.53c0,0-13.19,19.13-35.25,17.36c-22.06-1.77-50.07-71.5-50.07-71.5L298.2,215.66z"/>
	</g>
	<g>
		<g>
			<path class="st2" d="M324.04,335.79c-0.01,0-0.01-0.08-0.01-0.24c0.01-0.19,0.02-0.42,0.03-0.71c0.04-0.66,0.09-1.57,0.16-2.71
				c0.14-2.35,0.42-5.75,0.81-9.95c0.78-8.39,2.2-19.95,3.94-32.68c1.74-12.74,3.22-24.28,4.09-32.65c0.44-4.19,0.77-7.58,0.98-9.92
				c0.11-1.14,0.2-2.04,0.26-2.7c0.03-0.28,0.06-0.51,0.08-0.7c0.02-0.16,0.04-0.24,0.05-0.24c0.01,0,0.01,0.08,0.01,0.24
				c-0.01,0.19-0.02,0.42-0.03,0.71c-0.04,0.66-0.09,1.57-0.16,2.71c-0.14,2.35-0.42,5.75-0.81,9.95
				c-0.78,8.39-2.2,19.95-3.94,32.69c-1.74,12.73-3.22,24.27-4.09,32.65c-0.44,4.19-0.77,7.58-0.98,9.93
				c-0.11,1.14-0.2,2.04-0.26,2.7c-0.03,0.28-0.06,0.51-0.08,0.7C324.06,335.71,324.05,335.79,324.04,335.79z"/>
		</g>
	</g>
	<g>
		<g>
			<path class="st2" d="M134.04,336.26c-0.03,0.01-0.18-0.25-0.41-0.74c-0.24-0.49-0.54-1.22-0.87-2.15
				c-0.66-1.84-1.34-4.48-1.63-7.46c-0.29-2.98-0.12-5.7,0.17-7.63c0.14-0.97,0.3-1.74,0.44-2.27c0.14-0.53,0.23-0.82,0.26-0.81
				c0.08,0.02-0.14,1.2-0.33,3.13c-0.19,1.92-0.3,4.6-0.02,7.54c0.29,2.93,0.9,5.54,1.46,7.39
				C133.67,335.11,134.11,336.23,134.04,336.26z"/>
		</g>
	</g>
	<g>
		<g>
			<path class="st2" d="M140.31,337.19c-0.03,0.02-0.26-0.24-0.66-0.74c-0.4-0.5-0.94-1.25-1.56-2.21
				c-1.24-1.91-2.73-4.72-3.88-8.01c-1.14-3.3-1.72-6.43-1.93-8.7c-0.11-1.14-0.16-2.06-0.15-2.7c0-0.64,0.02-0.99,0.05-0.99
				c0.09,0,0.15,1.4,0.46,3.64c0.31,2.24,0.93,5.31,2.06,8.57c1.14,3.25,2.56,6.05,3.71,7.99
				C139.55,335.99,140.38,337.13,140.31,337.19z"/>
		</g>
	</g>
	<g>
		<g>
			<path class="st2" d="M184.43,248.26c0.02,0.01-0.05,0.28-0.19,0.81c-0.16,0.57-0.37,1.33-0.64,2.29
				c-0.58,2.03-1.38,4.89-2.38,8.39c-1.94,7.09-4.63,16.94-5.92,28.09c-0.64,5.57-0.77,10.93-0.22,15.75
				c0.51,4.83,1.58,9.09,2.63,12.61c1.05,3.52,2.05,6.33,2.74,8.27c0.33,0.94,0.59,1.68,0.79,2.24c0.18,0.51,0.26,0.79,0.24,0.79
				c-0.02,0.01-0.13-0.25-0.34-0.76c-0.22-0.55-0.51-1.28-0.88-2.2c-0.74-1.92-1.79-4.71-2.9-8.24c-1.1-3.52-2.21-7.8-2.75-12.66
				c-0.59-4.86-0.47-10.27,0.18-15.86c1.3-11.2,4.06-21.06,6.09-28.13c1.03-3.54,1.92-6.38,2.54-8.35c0.31-0.94,0.55-1.7,0.73-2.26
				C184.31,248.52,184.41,248.25,184.43,248.26z"/>
		</g>
	</g>
	<g>
		<g>
			<path class="st2" d="M288.65,313.84c-0.01,0-0.05-0.08-0.14-0.24c-0.09-0.19-0.21-0.44-0.35-0.74c-0.31-0.69-0.75-1.65-1.3-2.86
				c-0.55-1.25-1.26-2.77-2.01-4.55c-0.72-1.81-1.54-3.86-2.45-6.12c-0.88-2.28-1.73-4.82-2.7-7.52c-0.42-1.37-0.86-2.79-1.32-4.25
				c-0.22-0.73-0.45-1.47-0.68-2.23c-0.21-0.76-0.4-1.53-0.61-2.31c-1.68-6.24-3.1-13.24-3.52-20.71
				c-0.46-7.45,0.25-14.66,2.15-20.86c1.78-6.25,4.91-11.38,8.25-14.96c3.34-3.62,6.81-5.71,9.3-6.82c1.26-0.55,2.26-0.91,2.95-1.09
				c0.32-0.09,0.58-0.16,0.79-0.22c0.18-0.05,0.27-0.07,0.27-0.06c0,0.01-0.09,0.05-0.26,0.11c-0.2,0.07-0.46,0.16-0.77,0.27
				c-0.68,0.21-1.67,0.61-2.9,1.18c-2.44,1.16-5.85,3.28-9.12,6.89c-3.27,3.58-6.33,8.65-8.07,14.85
				c-1.86,6.16-2.55,13.29-2.09,20.7c0.42,7.42,1.82,14.4,3.47,20.62c0.2,0.78,0.4,1.55,0.6,2.31c0.23,0.75,0.45,1.49,0.67,2.22
				c0.44,1.46,0.87,2.88,1.29,4.25c0.95,2.7,1.77,5.24,2.63,7.53c0.88,2.27,1.67,4.33,2.37,6.14c0.72,1.8,1.4,3.32,1.92,4.58
				c0.51,1.23,0.92,2.2,1.21,2.9c0.12,0.31,0.22,0.56,0.3,0.76C288.63,313.74,288.66,313.83,288.65,313.84z"/>
		</g>
	</g>
	<g>
		<g>
			<path class="st2" d="M270.47,358.05c0.01,0.01-0.12,0.22-0.39,0.6c-0.3,0.42-0.7,0.98-1.2,1.67c-0.27,0.37-0.56,0.77-0.88,1.2
				c-0.34,0.43-0.74,0.86-1.15,1.34c-0.84,0.95-1.74,2.09-2.92,3.17c-0.57,0.56-1.17,1.15-1.79,1.75c-0.63,0.6-1.35,1.16-2.06,1.77
				c-1.4,1.26-3.06,2.39-4.78,3.63c-3.52,2.33-7.61,4.58-12.15,6.38c-4.56,1.74-9.1,2.86-13.27,3.53c-2.1,0.25-4.09,0.54-5.97,0.56
				c-0.94,0.03-1.84,0.11-2.72,0.09c-0.87-0.03-1.71-0.05-2.51-0.08c-1.6,0-3.03-0.23-4.29-0.36c-0.63-0.08-1.22-0.13-1.75-0.21
				c-0.53-0.11-1.01-0.2-1.46-0.29c-0.83-0.17-1.5-0.31-2.01-0.42c-0.46-0.1-0.7-0.16-0.69-0.18c0-0.02,0.25,0.01,0.71,0.08
				c0.51,0.08,1.19,0.19,2.02,0.32c0.44,0.07,0.93,0.16,1.46,0.24c0.54,0.07,1.12,0.11,1.75,0.17c1.26,0.1,2.68,0.31,4.27,0.28
				c0.79,0.01,1.63,0.03,2.49,0.05c0.87,0.01,1.76-0.08,2.7-0.12c1.87-0.04,3.84-0.35,5.92-0.61c4.14-0.69,8.63-1.81,13.15-3.54
				c4.5-1.79,8.56-4,12.07-6.3c1.71-1.22,3.37-2.33,4.77-3.56c0.71-0.6,1.44-1.14,2.07-1.74c0.63-0.6,1.23-1.17,1.8-1.72
				c1.19-1.06,2.1-2.18,2.95-3.1c0.42-0.47,0.83-0.89,1.17-1.31c0.33-0.42,0.63-0.81,0.91-1.17c0.53-0.66,0.95-1.2,1.27-1.61
				C270.29,358.23,270.45,358.04,270.47,358.05z"/>
		</g>
	</g>
	<g>
		<g>
			<path class="st2" d="M262.33,342.8c0.04,0.01-0.01,0.39-0.13,1.09c-0.11,0.7-0.34,1.7-0.7,2.92c-0.7,2.43-2.03,5.71-4.14,8.97
				c-2.12,3.26-4.57,5.81-6.5,7.45c-0.97,0.82-1.78,1.44-2.38,1.83c-0.59,0.39-0.92,0.6-0.94,0.57c-0.05-0.08,1.22-0.98,3.07-2.67
				c1.85-1.69,4.22-4.25,6.31-7.45c2.08-3.21,3.44-6.42,4.23-8.8C261.94,344.31,262.24,342.78,262.33,342.8z"/>
		</g>
	</g>
	<path class="st6" d="M244.18,77.67c13.95,0.1,27.6,7.97,34.67,20.01s7.28,27.79,0.56,40.02c-2.29,4.17-5.59,8.12-10.12,9.57
		c1.54-23.91-7.99-48.32-25.33-64.86"/>
	<path class="st6" d="M260.51,81.28c-2.07-4.31,0.15-9.7,3.84-12.73c3.69-3.03,8.51-4.26,13.16-5.37c4.65-1.11,9.47-2.26,13.24-5.19
		c-0.54,7.49-2.41,15.2-7.25,20.93c-4.85,5.74-13.25,8.93-20.17,6.02"/>
	<path class="st6" d="M265.31,86.21c-3.18,1.34-6.98,0.5-9.82-1.45c-2.85-1.95-4.89-4.87-6.56-7.89c-2.05-3.71-3.67-7.72-4.21-11.93
		s0.03-8.63,2.11-12.33c5.47,5.83,11.5,10.73,14.63,18.09c1.84,4.32,1.62,11.26-0.36,15.52"/>
	<g>
		<path class="st2" d="M280.82,110.46c0.04-0.01,0.13,0.49,0.27,1.39c0.08,0.45,0.16,1,0.21,1.65c0.06,0.65,0.15,1.38,0.16,2.2
			c0.09,1.63,0.06,3.58-0.1,5.74c-0.19,2.15-0.54,4.51-1.1,6.94c-0.59,2.43-1.34,4.69-2.14,6.69c-0.83,2-1.68,3.75-2.49,5.17
			c-0.38,0.72-0.79,1.34-1.13,1.89c-0.34,0.55-0.66,1.01-0.93,1.38c-0.53,0.74-0.84,1.14-0.87,1.12c-0.03-0.02,0.22-0.46,0.7-1.23
			c0.24-0.38,0.54-0.85,0.85-1.42c0.31-0.56,0.7-1.19,1.06-1.91c0.77-1.43,1.58-3.18,2.37-5.17c0.77-2,1.5-4.24,2.08-6.64
			c0.56-2.41,0.92-4.73,1.13-6.86c0.19-2.13,0.25-4.06,0.21-5.68c0.01-0.81-0.06-1.54-0.08-2.19c-0.02-0.64-0.07-1.2-0.12-1.65
			C280.81,110.97,280.78,110.47,280.82,110.46z"/>
	</g>
	<g>
		<path class="st2" d="M277.7,83.64c0.02,0.03-0.37,0.34-1.11,0.88c-0.8,0.44-1.99,1.08-3.61,1.4c-3.22,0.73-7.86,0.58-12.77-0.73
			l-0.15-0.04l-0.03-0.15c-0.07-0.3-0.14-0.62-0.21-0.94c-0.53-2.6-0.65-5.15-0.33-7.44c0.29-2.29,1.08-4.28,2.1-5.7
			c0.98-1.47,2.18-2.28,2.97-2.83c0.86-0.46,1.33-0.7,1.35-0.67c0.02,0.03-0.43,0.33-1.23,0.84c-0.74,0.59-1.87,1.43-2.77,2.87
			c-0.94,1.4-1.67,3.33-1.93,5.56c-0.29,2.22-0.15,4.73,0.36,7.27c0.07,0.32,0.14,0.63,0.21,0.93l-0.18-0.19
			c4.81,1.29,9.4,1.5,12.55,0.88c1.6-0.27,2.77-0.84,3.59-1.22C277.24,83.87,277.67,83.62,277.7,83.64z"/>
	</g>
	<g>
		<path class="st2" d="M281.79,70.68c0.01,0.1-1.46,0.3-3.76,0.98c-1.15,0.33-2.48,0.82-3.93,1.46c-1.43,0.66-2.97,1.47-4.5,2.46
			c-1.52,1.01-2.87,2.09-4.05,3.14c-1.16,1.07-2.14,2.1-2.9,3.02c-1.54,1.83-2.32,3.1-2.4,3.05c-0.03-0.02,0.14-0.35,0.49-0.93
			c0.33-0.59,0.89-1.4,1.63-2.35c0.74-0.96,1.71-2.03,2.86-3.14c1.17-1.09,2.54-2.21,4.09-3.23c1.55-1.01,3.12-1.82,4.59-2.46
			c1.48-0.62,2.85-1.08,4.02-1.37c1.17-0.3,2.13-0.48,2.81-0.55C281.42,70.68,281.79,70.65,281.79,70.68z"/>
	</g>
	<g>
		<path class="st2" d="M265.1,86.09c0.02,0,0,0.11-0.04,0.3c-0.03,0.2-0.12,0.47-0.27,0.83c-0.29,0.7-0.9,1.65-1.98,2.5
			c-1.07,0.82-2.65,1.54-4.5,1.45c-1.85-0.06-3.76-1.18-4.95-2.91c-1.19-1.74-1.54-3.92-0.93-5.67c0.58-1.75,1.82-2.97,2.98-3.67
			c1.18-0.7,2.29-0.92,3.05-0.94c0.38-0.01,0.67,0.01,0.87,0.05c0.2,0.03,0.3,0.05,0.29,0.07c-0.01,0.05-0.42,0-1.15,0.08
			c-0.72,0.08-1.77,0.35-2.87,1.05c-1.07,0.7-2.21,1.88-2.71,3.5c-0.53,1.61-0.2,3.61,0.9,5.23c1.11,1.61,2.86,2.65,4.55,2.73
			c1.7,0.11,3.2-0.52,4.24-1.27c1.05-0.77,1.68-1.65,2.02-2.29C264.95,86.48,265.05,86.08,265.1,86.09z"/>
	</g>
	<g>
		<path class="st2" d="M252.98,86.34c-0.05,0.05-0.35-0.54,0.13-1.32c0.22-0.37,0.64-0.74,1.19-0.93c0.54-0.2,1.17-0.23,1.79-0.19
			c2.5,0.18,4.31,1.15,4.24,1.26c-0.06,0.14-1.9-0.58-4.28-0.75c-1.18-0.12-2.2,0.19-2.64,0.81
			C252.94,85.81,253.06,86.34,252.98,86.34z"/>
	</g>
	<g>
		<path class="st2" d="M246.83,52.62c0.1,0.04-1.1,1.46-1.53,4.28c-0.23,1.39-0.26,3.08-0.24,4.96c0.02,1.88,0.11,3.95,0.53,6.05
			c0.95,4.2,2.67,7.81,4.27,10.12c0.81,1.16,1.53,2.07,2.04,2.68c0.51,0.61,0.82,0.92,0.8,0.95c-0.06,0.08-1.42-1.1-3.13-3.41
			c-1.72-2.31-3.51-5.93-4.48-10.24c-0.44-2.16-0.51-4.27-0.5-6.16c0-1.89,0.07-3.61,0.35-5.03c0.27-1.42,0.73-2.52,1.14-3.21
			C246.49,52.92,246.81,52.6,246.83,52.62z"/>
	</g>
	<g>
		<path class="st2" d="M252.01,64.48c0.05-0.04,0.62,0.59,1.41,1.71c0.79,1.12,1.78,2.73,2.66,4.63c0.87,1.9,1.44,3.72,1.76,5.05
			c0.32,1.33,0.41,2.17,0.34,2.19c-0.16,0.04-0.84-3.27-2.57-7.02C253.89,67.29,251.87,64.58,252.01,64.48z"/>
	</g>
	<g>
		<path class="st2" d="M250.32,70.71c0.11-0.09,1.79,1.61,4,3.59c2.2,1.99,3.96,3.64,3.86,3.75c-0.09,0.1-2-1.37-4.21-3.37
			C251.74,72.7,250.2,70.81,250.32,70.71z"/>
	</g>
	<g>
		<path class="st1" d="M276.49,94.17c0,0.01-0.05,0.05-0.14,0.14c-0.14,0.12-0.29,0.24-0.44,0.37c-0.38,0.33-0.96,0.76-1.71,1.27
			c-1.48,1.01-3.68,2.21-6.3,3.07c-2.61,0.85-5.1,1.19-6.89,1.26c-0.9,0.04-1.63,0.03-2.13-0.01c-0.2-0.01-0.39-0.03-0.58-0.04
			c-0.13-0.01-0.2-0.02-0.2-0.03c0-0.01,0.07-0.01,0.2-0.01c0.18,0,0.37,0,0.58,0c0.5,0.01,1.22,0,2.12-0.06
			c1.78-0.1,4.24-0.46,6.83-1.31c2.59-0.86,4.78-2.02,6.28-3c0.75-0.49,1.34-0.9,1.74-1.21c0.16-0.12,0.32-0.23,0.46-0.34
			C276.43,94.21,276.49,94.17,276.49,94.17z"/>
	</g>
	<g>
		<path class="st1" d="M282.38,106.28c0,0.01-0.05,0.05-0.15,0.14c-0.14,0.12-0.29,0.24-0.44,0.37c-0.39,0.32-0.97,0.76-1.71,1.26
			c-1.49,1.01-3.67,2.23-6.26,3.17c-2.59,0.93-5.05,1.39-6.84,1.56c-0.89,0.09-1.62,0.13-2.13,0.12c-0.2,0-0.39,0-0.58,0
			c-0.13,0-0.2-0.01-0.2-0.01c0-0.01,0.07-0.02,0.2-0.03c0.18-0.01,0.37-0.02,0.58-0.04c0.5-0.02,1.22-0.08,2.11-0.19
			c1.78-0.21,4.22-0.68,6.79-1.6c2.57-0.93,4.75-2.12,6.25-3.1c0.75-0.49,1.35-0.9,1.75-1.2c0.16-0.12,0.32-0.23,0.47-0.34
			C282.32,106.31,282.38,106.27,282.38,106.28z"/>
	</g>
	<g>
		<path class="st1" d="M280.75,123.93c0.01,0.01-0.14,0.12-0.42,0.31c-0.28,0.19-0.7,0.45-1.23,0.74c-1.06,0.58-2.61,1.26-4.4,1.74
			c-1.8,0.47-3.48,0.63-4.69,0.64c-0.61,0.01-1.1-0.01-1.43-0.04c-0.34-0.03-0.52-0.05-0.52-0.06s0.19-0.02,0.53-0.02
			c0.34,0.01,0.82,0,1.43-0.03c1.2-0.05,2.86-0.23,4.64-0.7c1.78-0.47,3.31-1.12,4.38-1.66c0.54-0.27,0.97-0.51,1.26-0.68
			C280.57,124,280.74,123.92,280.75,123.93z"/>
	</g>
	<g>
		<path class="st1" d="M284.14,121.23c0.01,0.06-0.59,0.22-1.35,0.37c-0.76,0.15-1.38,0.22-1.39,0.16
			c-0.01-0.06,0.59-0.22,1.35-0.37C283.51,121.24,284.13,121.17,284.14,121.23z"/>
	</g>
	<g>
		<path class="st1" d="M274.22,141.98c0.01,0.05-1.02,0.21-2.28,0.11c-1.27-0.09-2.26-0.39-2.24-0.45c0.01-0.06,1.01,0.15,2.26,0.24
			C273.19,141.98,274.21,141.92,274.22,141.98z"/>
	</g>
	<g>
		<path class="st1" d="M255.24,89.69c0.03,0.05-0.57,0.43-1.33,0.85c-0.76,0.42-1.41,0.72-1.43,0.67s0.57-0.43,1.33-0.85
			C254.57,89.94,255.21,89.64,255.24,89.69z"/>
	</g>
	<g>
		<path class="st1" d="M250.27,79.19c0.03,0.06-1.44,0.5-2.95,1.59c-1.52,1.07-2.41,2.31-2.47,2.26c-0.02-0.01,0.18-0.34,0.57-0.81
			c0.4-0.47,1.01-1.07,1.77-1.62c0.77-0.54,1.54-0.92,2.11-1.14C249.89,79.25,250.26,79.17,250.27,79.19z"/>
	</g>
	<g>
		<path class="st1" d="M259.28,90.82c-0.07-0.01,0.28-1.36,0.05-3.03c-0.21-1.67-0.89-2.89-0.82-2.92c0.02-0.01,0.22,0.27,0.45,0.79
			c0.23,0.51,0.47,1.25,0.58,2.11c0.11,0.85,0.06,1.63-0.03,2.18C259.42,90.5,259.3,90.82,259.28,90.82z"/>
	</g>
	<g>
		<path class="st1" d="M290.22,58.2c0,0-0.35,0.45-1.1,1.17c-0.74,0.72-1.9,1.67-3.46,2.66c-1.56,0.99-3.52,1.99-5.75,2.97
			c-2.23,0.99-4.72,1.96-7.25,3.17c-2.52,1.22-4.83,2.61-6.63,4.23c-1.8,1.62-3.1,3.42-3.89,5.07c-0.79,1.65-1.1,3.13-1.19,4.15
			c-0.09,1.02-0.02,1.59-0.05,1.59c0,0-0.02-0.14-0.03-0.41c-0.03-0.27-0.02-0.67,0-1.19c0.06-1.03,0.35-2.52,1.14-4.21
			c0.79-1.67,2.08-3.51,3.9-5.15c1.81-1.65,4.14-3.05,6.67-4.28c2.54-1.22,5.04-2.19,7.26-3.16c2.23-0.97,4.19-1.95,5.75-2.92
			c1.56-0.97,2.73-1.9,3.48-2.6c0.38-0.35,0.67-0.63,0.85-0.82C290.11,58.3,290.22,58.2,290.22,58.2z"/>
	</g>
	<g>
		<path class="st1" d="M287.52,70.07c0.01,0-0.04,0.08-0.13,0.23c-0.13,0.19-0.26,0.4-0.42,0.63c-0.36,0.55-0.92,1.31-1.65,2.22
			c-1.46,1.83-3.69,4.2-6.52,6.39c-2.83,2.19-5.68,3.77-7.81,4.73c-1.07,0.48-1.94,0.84-2.56,1.05c-0.26,0.09-0.49,0.17-0.71,0.25
			c-0.16,0.05-0.25,0.08-0.25,0.07c0-0.01,0.08-0.05,0.24-0.11c0.21-0.09,0.44-0.18,0.7-0.28c0.61-0.24,1.48-0.61,2.53-1.11
			c2.11-0.99,4.93-2.58,7.74-4.76c2.81-2.19,5.05-4.52,6.53-6.32c0.74-0.9,1.32-1.64,1.7-2.18c0.16-0.22,0.31-0.42,0.45-0.6
			C287.45,70.14,287.51,70.07,287.52,70.07z"/>
	</g>
	<g>
		<path class="st1" d="M245.78,56.02c0,0,1.23,0.47,3.03,1.6c1.8,1.13,4.11,3,6.13,5.54c2.02,2.55,3.31,5.23,4,7.24
			c0.69,2.01,0.87,3.32,0.87,3.32c-0.01,0-0.03-0.08-0.08-0.23c-0.06-0.21-0.11-0.42-0.18-0.66c-0.14-0.57-0.39-1.39-0.76-2.38
			c-0.72-1.98-2.02-4.62-4.02-7.16c-2.01-2.52-4.28-4.4-6.05-5.55c-0.88-0.58-1.62-1.01-2.15-1.28c-0.22-0.12-0.41-0.22-0.6-0.32
			C245.84,56.07,245.77,56.03,245.78,56.02z"/>
	</g>
	<g>
		<path class="st2" d="M195.62,93.62c0.39,5.3-3.11,10.03-6.64,14.01c-3.53,3.98-7.45,8.12-8.21,13.38
			c-1.35,9.32,7.78,17.98,5.89,27.21c-1.01,4.95-5.06,8.92-5.78,13.92c-0.7,4.83,1.89,9.56,5.1,13.24c3.21,3.68,6.93,3.14,9.77,7.11
			c2.99,4.18,7.81,8.48,12.32,10.95c10.23,5.6,22.5-2.5,27.44-3.96"/>
	</g>
	<g>
		<path class="st2" d="M272.97,115.35c4.71-2.05,5.08-18.95-6.74-20.9c-4.74-0.78-8.7-3.1-12.69-5.78
			c-3.53-2.38-4.58-8.41-7.57-11.44c-7.33-7.44-18.79-10.52-28.86-7.77c-10.08,2.75-18.38,11.22-20.92,21.35
			c-1.72,6.85-0.55,14.94,4.85,19.49c6.26,5.28,15.55,4.11,23.57,2.46c8.02-1.64,17.11-3.26,23.81,1.45
			c4.04,2.84,6.36,7.47,8.83,11.74c2.47,4.28,5.57,8.65,10.24,10.26c0,0,3.56,8.36,0.65,14.18c-2.9,5.82,3.41-4.1,3.41-4.1
			S283.07,125.8,272.97,115.35"/>
	</g>
	<g>
		<g>
			<g>
				<g>
					<g>
						<g>
							<g>
								<g>
									<g>
										<g>
											<g>
												<g>
													<path class="st3" d="M213.06,233.93c-0.07-11.03,0-42,0-41.95c0,0-17.52-2.95-21.1-25.83
														c-1.78-11.38-1.17-30.02-0.17-45.26c0.9-13.72,10.02-30.53,23.69-29.05l42.66,10.88c4.15,0.45,7.27,4,7.18,8.17l0,0
														l-2.6,105.95L213.06,233.93z"/>
												</g>
											</g>
										</g>
									</g>
								</g>
							</g>
						</g>
					</g>
					<g>
						<g>
							<g>
								<g>
									<g>
										<g>
											<g>
												<g>
													<g>
														<path class="st2" d="M199.04,133.96c-0.06,1.55,1.21,2.88,2.82,2.97c1.61,0.09,2.97-1.09,3.03-2.64
															c0.06-1.55-1.21-2.88-2.82-2.97C200.46,131.23,199.1,132.41,199.04,133.96z"/>
													</g>
												</g>
											</g>
										</g>
									</g>
								</g>
							</g>
						</g>
						<g>
							<g>
								<g>
									<g>
										<g>
											<g>
												<g>
													<g>
														<g>
															<path class="st2" d="M195.8,130.6c0.36,0.38,2.59-1.26,5.74-1.24c3.15-0.03,5.47,1.6,5.81,1.21
																c0.17-0.17-0.2-0.86-1.21-1.6c-0.99-0.73-2.68-1.45-4.65-1.44c-1.97,0.01-3.62,0.73-4.57,1.47
																C195.96,129.74,195.63,130.43,195.8,130.6z"/>
														</g>
													</g>
												</g>
											</g>
										</g>
									</g>
								</g>
							</g>
						</g>
					</g>
					<g>
						<g>
							<g>
								<g>
									<g>
										<g>
											<g>
												<g>
													<g>
														<g>
															<path class="st2" d="M226.83,135.63c0.36,0.38,2.59-1.26,5.75-1.24c3.15-0.03,5.47,1.6,5.81,1.21
																c0.17-0.17-0.2-0.86-1.21-1.6c-0.99-0.73-2.68-1.45-4.65-1.44c-1.97,0.01-3.62,0.73-4.57,1.47
																C226.98,134.76,226.65,135.46,226.83,135.63z"/>
														</g>
													</g>
												</g>
											</g>
										</g>
									</g>
								</g>
							</g>
						</g>
					</g>
					<g>
						<g>
							<g>
								<g>
									<g>
										<g>
											<g>
												<g>
													<g>
														<path class="st2" d="M215.32,154.64c0.02-0.18-1.95-0.52-5.12-0.94c-0.81-0.08-1.57-0.25-1.7-0.8
															c-0.19-0.58,0.15-1.45,0.54-2.39c0.76-1.95,1.56-3.99,2.4-6.13c3.33-8.73,5.74-15.91,5.39-16.04
															c-0.35-0.13-3.34,6.84-6.67,15.57c-0.8,2.15-1.57,4.21-2.3,6.17c-0.31,0.92-0.83,1.95-0.43,3.16
															c0.22,0.6,0.81,1.04,1.32,1.18c0.52,0.16,0.97,0.17,1.37,0.19C213.32,154.8,215.31,154.82,215.32,154.64z"/>
													</g>
												</g>
											</g>
										</g>
									</g>
								</g>
							</g>
						</g>
					</g>
					<g>
						<path class="st4" d="M216.23,163.75c-0.38-1.94,1.91-2.57,3.59-3.62c1.68-1.04,2.65-2.43,4.22-1.23
							c0.9,0.68,1.54,1.67,1.94,2.72c0.27,0.71,0.44,1.48,0.31,2.23c-0.16,0.91-0.74,1.7-1.41,2.34c-0.95,0.9-2.14,1.58-3.43,1.79
							c-1.29,0.22-2.68-0.06-3.71-0.87c-1.03-0.81-1.63-2.17-1.41-3.46"/>
					</g>
					<g>
						<g>
							<g>
								<g>
									<g>
										<g>
											<g>
												<g>
													<g>
														<path class="st2" d="M224.6,156.84c-0.51-0.03-0.53,3.39-3.47,5.82c-2.93,2.43-6.58,2.04-6.61,2.52
															c-0.05,0.21,0.81,0.67,2.35,0.71c1.51,0.06,3.72-0.43,5.52-1.91c1.79-1.49,2.57-3.47,2.69-4.88
															C225.22,157.67,224.84,156.82,224.6,156.84z"/>
													</g>
												</g>
											</g>
										</g>
									</g>
								</g>
							</g>
						</g>
					</g>
				</g>
			</g>
		</g>
		<g>
			<g>
				<g>
					<g>
						<g>
							<g>
								<g>
									<g>
										<path class="st2" d="M226.36,128.58c0.31,0.86,3.46,0.46,7.16,0.91c3.71,0.38,6.69,1.47,7.19,0.7
											c0.22-0.37-0.3-1.18-1.5-2.01c-1.19-0.83-3.1-1.62-5.32-1.88c-2.22-0.25-4.26,0.1-5.61,0.65
											C226.91,127.5,226.22,128.17,226.36,128.58z"/>
									</g>
								</g>
							</g>
						</g>
					</g>
				</g>
			</g>
		</g>
		<g>
			<g>
				<g>
					<g>
						<g>
							<g>
								<g>
									<g>
										<path class="st2" d="M196.24,119.68c0.55,0.72,2.73-0.02,5.34-0.05c2.61-0.12,4.83,0.49,5.34-0.26
											c0.22-0.36-0.12-1.08-1.09-1.76c-0.95-0.68-2.54-1.23-4.34-1.18c-1.8,0.05-3.35,0.7-4.27,1.43
											C196.3,118.59,196,119.33,196.24,119.68z"/>
									</g>
								</g>
							</g>
						</g>
					</g>
				</g>
			</g>
		</g>
	</g>
	<g>
		<path class="st2" d="M267.81,179.23c-6.29,1.27-6.85-1.93-11.55-6.3c-4.7-4.37-7.13-11.06-6.32-17.42
			c0.71-5.62,3.74-11.33,1.79-16.65c-2.57-7.03-12.43-9.19-15.04-16.2c-1.52-4.08-0.16-8.85-1.88-12.84
			c-1.62-3.76-5.57-5.92-9.42-7.31c-3.85-1.39-7.97-2.35-11.2-4.86c-3.23-2.51-5.24-7.25-3.16-10.77
			c17.06,2.04,33.88,6.13,49.97,12.14c3.73,1.39,7.65,3.07,9.86,6.39c2.33,3.51,2.22,8.05,2.03,12.26
			c-0.96,20.53-1.92,41.07-2.87,61.6"/>
	</g>
	<g>
		<g>
			<g>
				<path class="st2" d="M252.63,148.83c-5.18,11.92-6.14,25.62-2.67,38.14c1.04,3.74,2.46,7.62,1.58,11.4
					c-0.96,4.09-4.38,7.05-6.87,10.43c-4.3,5.82-5.97,13.5-4.49,20.58c1.49,7.08,6.11,13.44,12.38,17.04
					c0.66-3.76,4.16-6.32,7.61-7.96c3.45-1.64,7.26-2.85,9.9-5.61c2.63-2.77,3.38-7.84,0.32-10.12c8.8-2.3,13.79-12.76,11.94-21.67
					c-1.85-8.91-9.1-15.95-17.34-19.81"/>
			</g>
			<g>
				<path class="st2" d="M262.02,237.63c-1.57,0.86-3.1,1.63-3.3,3.42c-0.23,2.09,1.78,5.77,2.5,7.75c1.41,3.87,0.35,8.53-2.61,11.4
					c-2.95,2.88-7.63,3.81-11.47,2.3c2.82,0.22,5.21-2.53,5.46-5.35c0.25-2.81-1.11-5.53-2.79-7.8c-1.68-2.27-3.71-4.29-5.14-6.73
					c-2.9-4.97-7.2-18.48-3.89-26.05"/>
			</g>
		</g>
		<g>
			<g>
				<path class="st5" d="M270.02,223.08c-0.01-0.01,0.18-0.17,0.54-0.46c0.37-0.28,0.9-0.71,1.57-1.27
					c1.33-1.13,3.22-2.84,5.14-5.32c1.9-2.46,3.85-5.72,4.87-9.72c1-3.97,1.07-8.7-0.65-13.13c-0.86-2.21-2.13-4.17-3.62-5.84
					c-1.47-1.69-3.07-3.17-4.58-4.6c-1.51-1.43-2.93-2.82-4.1-4.27c-1.18-1.45-2.07-2.96-2.69-4.42c-1.28-2.93-1.33-5.64-0.88-7.35
					c0.23-0.86,0.51-1.49,0.75-1.89c0.24-0.4,0.37-0.6,0.39-0.59c0.07,0.03-0.54,0.84-0.94,2.53c-0.38,1.69-0.27,4.31,1.02,7.16
					c0.62,1.42,1.52,2.89,2.69,4.3c1.17,1.41,2.59,2.78,4.1,4.2c1.51,1.42,3.13,2.9,4.63,4.62c1.52,1.7,2.84,3.72,3.72,5.99
					c1.77,4.56,1.67,9.4,0.62,13.44c-1.07,4.08-3.08,7.37-5.05,9.83c-1.98,2.47-3.92,4.16-5.3,5.25c-0.69,0.54-1.25,0.94-1.64,1.2
					C270.24,222.96,270.03,223.09,270.02,223.08z"/>
			</g>
		</g>
	</g>
	<text transform="matrix(0.8438 0 0 1 27.4234 136.7634)"><tspan x="0" y="0" class="st8 st9">Add your favorite products to </tspan><tspan x="0" y="16.8" class="st8 st9 st10">	</tspan><tspan x="50.17" y="16.8" class="st8 st9">  Wish List  </tspan></text>
	<g>
		<path class="st0" d="M33.17,27.86h-1.91c0,0,2.34,5.98-0.36,6.1c0,0-6.67,0.58-3.29-5.86l-2.71-0.24c0,0-0.67,5.97,3.48,7.31v8.12
			h3.53l-1.71-7.85c0.38,0,0.78-0.03,1.22-0.09C31.42,35.35,34.28,35.07,33.17,27.86z"/>
		<path class="st11" d="M54.14,43.31h-2.23c0,0,1.43-7.97-0.94-8.05c-0.08,0-0.16-0.01-0.23-0.03c-0.55-0.18-3.16-0.56-2.6,8.08
			h-1.94c0,0-0.48-16.52,2.78-15.29C48.97,28.02,55.61,34.04,54.14,43.31z"/>
		<path class="st11" d="M44.2,41.62c0,0,0.98-3.05-2.32-4.12c-0.25-0.08-0.52-0.12-0.78-0.13l-3.12-0.13c0,0-3.27,0.18-3.82-4.46
			c0-0.01,0-0.01,0-0.02c0-0.22,0.04-3.76,3.09-4.72c0.24-0.08,0.5-0.11,0.75-0.11l7.89,0c0.13,0,0.19,0.17,0.1,0.27l-2.85,3.09
			c-0.03,0.03-0.06,0.05-0.1,0.05l-4.61,0.04c-0.12,0-0.23,0.03-0.34,0.08c-0.29,0.15-0.78,0.53-0.66,1.41
			c0.06,0.46,0.36,0.86,0.77,0.99c0.62,0.2,1.6,0.21,2.84,0.07c0,0,0,0,0,0c0.04,0,2.98-0.12,4.22,2.51
			c0.07,0.14,0.12,0.3,0.15,0.45C45.59,37.64,45.88,39.86,44.2,41.62z"/>
		<ellipse class="st0" cx="41.12" cy="41.02" rx="2.11" ry="2.28"/>
		<path class="st11" d="M51.68,27.95c5.42,0.07,7.21,0.06,7.68,0.05c0.12,0,0.24,0.01,0.35,0.05c0.62,0.17,2.44,0.92,2.85,3.74
			c0,0,0.46,3.04-2.75,4.39c-0.13,0.05-0.26,0.08-0.39,0.08l-4.37,0.13c-0.19,0-0.36-0.12-0.42-0.31l-0.91-2.71l5.06-0.07
			c0.02,0,0.03,0,0.04-0.01c0.12-0.05,0.76-0.36,0.84-1.17c0,0,0.09-0.96-1.05-1.13l-6.14-0.15C52.48,30.85,49.39,27.93,51.68,27.95
			z"/>
		<path class="st0" d="M14.3,33.28c0.08,0.02,1.52,0.31,4.81-0.75c0,0,0.33-0.02,0.54,0.3c0.83,0.64,1.61,0.41,1.61,0.41
			c0.02,0,0.04,0,0.06,0c0.24-0.05,1.94-0.45,1.57-1.96c-0.03-0.06-0.47-1.11-2.2-0.75c-0.01,0,0.06-0.04-0.04,0
			c-0.09,0.03-0.52,0.01-1.13,0.62c0,0-0.36,0.63-0.89,0.75c0,0-2.28,0.23-2.98-0.31c0,0,0,0,0,0c0,0-2.01-0.9-1.34-2.65
			c0,0,0.36-0.98,1.79-1.05c0,0,0,0,0,0l4.01,0.15c0,0,0,0,0,0c0.01,0,4.23,0.14,4.46,4.02c0.01,0.1,0,0.25,0,0.35
			c-0.04,0.67-0.02,2.39-1.64,3.21c0,0,0,0,0,0c0,0-1.48,0.6-2.55,1c0,0,0,0,0,0c0,0-0.54,0.15-0.76,0c0,0-0.9-0.68-1.55-0.32
			c0,0,0,0,0,0l-2.34,0.81c0,0,0,0,0,0c-0.01,0.03-0.19,0.45,0.31,0.36c0,0,0,0,0,0l2-0.68c0,0,0,0,0,0c0.01,0,0.52-0.02,0.09,0.3
			c0,0,0,0,0,0l-2.03,0.68c0,0,0,0,0,0c-0.01,0.01-0.51,0.47,0.14,0.49c0,0,0,0,0,0l2-0.72c0.02-0.01,0.05-0.01,0.08-0.01
			c0.09,0,0.32,0.01,0,0.28v0c0,0-1.96,0.64-1.96,0.64c0,0,0,0,0,0c0,0-0.57,0.49,0.09,0.49c0,0,0,0,0,0c0,0,1.97-0.62,1.97-0.62
			c0.02-0.01,0.04-0.01,0.07-0.01c0.11-0.01,0.45-0.04,0.1,0.22c0,0,0,0,0,0c0,0-2.1,0.77-2.1,0.77c0,0,0,0,0,0
			c0,0-0.19,0.36,0.16,0.41c0,0,0,0,0,0l2.15-0.71c0,0,0,0,0,0c0.04-0.02,0.94-0.43,1.04-1.15c0,0,0,0,0,0c0,0,0.12-0.26,0.24-0.34
			c0,0,0.7-0.43,1.26-0.36c0.13,0,0.26,0.01,0.4,0.01c0.56-0.04,1.99,0.04,2.52,1.62c0,0,0.92,2.35-1.7,3.71c0,0-1.82,0.9-3.23,0.77
			c0,0,0,0,0,0l-3.72,0.01c0,0,0,0,0,0c0,0-0.99,0.12-1.25-0.97c0,0,0,0,0,0L14.3,33.28C14.3,33.28,14.3,33.28,14.3,33.28z"/>
	</g>
	<path class="st12" d="M101.3,182.47c0,0,7.31-9.59,13.2,0.68c0,0,3.06,5.26-4.16,11.97l-9.04,9.67l-11.23-12.28
		c-1.59-1.74-2.52-4.1-2.49-6.55c0.03-2.64,1.11-5.65,5.31-7.14C92.89,178.82,97.76,177.38,101.3,182.47z"/>
</g>
</svg>
