<?xml version="1.0" encoding="utf-8"?>
<!-- Generator: Adobe Illustrator 24.0.2, SVG Export Plug-In . SVG Version: 6.00 Build 0)  -->
<svg version="1.1" xmlns="http://www.w3.org/2000/svg" xmlns:xlink="http://www.w3.org/1999/xlink" x="0px" y="0px"
	 viewBox="0 0 500 500" style="enable-background:new 0 0 500 500;" xml:space="preserve">
<style type="text/css">
	.st0{fill:#BBCADD;}
	.st1{fill:#263238;}
	.st2{fill:#000102;}
	.st3{fill:#FFFFFF;}
	.st4{fill:#F5F5F5;}
	.st5{fill:#E0E0E0;}
	.st6{fill:#FF725E;}
	.st7{font-family:'BritannicBold';}
	.st8{font-size:12px;}
	.st9{fill:#7588A2;}
	.st10{fill:#3A495D;}
	.st11{fill:#CE8252;}
	.st12{fill:#DEA47F;}
	.st13{fill:#EDEDEE;}
	.st14{fill:#C8C9CA;}
	.st15{fill:#5B6E24;}
	.st16{fill:#C0E05F;}
	.st17{fill:#8A5116;}
	.st18{fill:#F5DEAF;}
	.st19{fill:#7F4914;}
	.st20{fill:#D8D6BB;}
	.st21{fill:#ECE9CF;}
	.st22{fill:#832221;}
	.st23{fill:#611C1B;}
	.st24{fill:#DF7979;}
	.st25{fill:#CA4E4F;}
	.st26{fill:#FCFAE9;}
	.st27{fill:#E4E3D6;}
	.st28{fill:#65942B;}
	.st29{fill:#9EAE38;}
	.st30{fill:#47681C;}
	.st31{fill:#8D9C33;}
	.st32{fill:#455A64;}
	.st33{fill:#FFBE9D;}
	.st34{fill:#6F7577;}
	.st35{opacity:0.3;}
	.st36{fill:#BDC8DA;}
	.st37{fill:#3A3A3A;}
</style>
<g id="Background_Complete">
</g>
<g id="Background_Simple">
</g>
<g id="Plant">
</g>
<g id="Device">
</g>
<g id="grocery">
</g>
<g id="avocado">
</g>
<g id="meat">
</g>
<g id="cauliflower">
</g>
<g id="Character">
	<g>
		<g>
			<g>
				<g>
					<path class="st0" d="M457.71,52.44c0.17-2.97-0.77-5.95-2.34-8.48c-1.54-2.48-3.75-4.6-6.45-5.7c-2.87-1.17-6.23-1.1-9.04,0.2
						c-1.68,0.77-3.15,1.96-4.28,3.42c-0.58-1.57-1.51-3.01-2.7-4.18c-2.22-2.17-5.35-3.37-8.45-3.23c-2.92,0.12-5.71,1.38-8,3.19
						c-2.34,1.85-4.22,4.34-5.06,7.19c-1.05,3.58-1.04,7.7,0.31,11.18c1.42,3.68,4.19,6.92,7.17,9.51
						c5.01,4.34,11.64,9.84,11.64,9.84s7.03-3.57,13.21-5.97c3.67-1.43,7.37-3.55,9.95-6.53C456.09,60.04,457.49,56.17,457.71,52.44
						z"/>
				</g>
			</g>
		</g>
	</g>
	<g>
		<g>
			<g>
				<g>
					<path class="st0" d="M444.05,154.97c-0.46-2.13-1.7-4.04-3.3-5.52c-1.57-1.44-3.54-2.51-5.66-2.76
						c-2.25-0.26-4.6,0.44-6.33,1.9c-1.03,0.87-1.84,1.99-2.34,3.24c-0.72-0.99-1.65-1.83-2.72-2.42c-1.98-1.09-4.42-1.33-6.58-0.63
						c-2.03,0.66-3.75,2.08-5.01,3.81c-1.28,1.76-2.13,3.88-2.17,6.05c-0.04,2.73,0.77,5.63,2.39,7.81c1.72,2.31,4.3,4.06,6.9,5.3
						c4.37,2.08,10.11,4.66,10.11,4.66s4.26-3.89,8.14-6.78c2.31-1.72,4.5-3.94,5.74-6.54
						C444.39,160.64,444.62,157.63,444.05,154.97z"/>
				</g>
			</g>
		</g>
	</g>
	<g>
		<g>
			<g>
				<g>
					<path class="st0" d="M425.98,92.5c-1.1-4.94-4.02-9.36-7.77-12.76c-3.67-3.33-8.27-5.77-13.19-6.31
						c-5.23-0.57-10.68,1.11-14.68,4.53c-2.38,2.04-4.23,4.67-5.39,7.58c-1.69-2.29-3.86-4.22-6.36-5.57
						c-4.63-2.51-10.3-3.01-15.3-1.35c-4.71,1.56-8.68,4.91-11.58,8.94c-2.95,4.11-4.88,9.04-4.92,14.1
						c-0.05,6.34,1.89,13.06,5.7,18.12c4.03,5.34,10.06,9.36,16.13,12.19c10.2,4.76,23.58,10.65,23.58,10.65s9.82-9.11,18.79-15.9
						c5.34-4.04,10.39-9.23,13.21-15.3C426.87,105.66,427.36,98.68,425.98,92.5z"/>
				</g>
			</g>
		</g>
	</g>
	<g>
		<g>
			<path class="st0" d="M425.66,345.06l2.26-3.61c19.04-30.42,20.43-68.81,2.48-99.51c-2.31-3.95-4.9-7.73-7.77-11.3
				c-20.68-25.72-55.1-39.84-88.25-36.19c-19.5,2.15-39.26,9.95-58.13,4.9c-24.56-6.57-37.99-31.94-48.63-54.83
				c-10.64-22.9-24.15-48.25-48.74-54.71c-15.4-4.05-32.07,0.59-45.97,8.54c-36.8,21.03-57.36,64.4-57.3,106.36
				s18.4,82.18,44.24,115.13c36.21,46.17,89.23,80.71,147.94,87.98C326.48,415.1,390.06,392.42,425.66,345.06z"/>
		</g>
	</g>
	<g>
		<g>
			<g>
				<g>
					<g>
						<path class="st1" d="M340.77,334.61c-0.02,0.11,1.54,0.47,3.52,0.63c1.98,0.17,3.59,0.06,3.59-0.05c0-0.12-1.59-0.2-3.54-0.36
							C342.38,334.67,340.79,334.5,340.77,334.61z"/>
					</g>
				</g>
			</g>
		</g>
	</g>
	<g>
		<g>
			<g>
				<g>
					<g>
						<path class="st2" d="M319.77,373.76l-115.81-0.07c-13.93-0.01-25.21-11.3-25.21-25.23l0.06-290.34
							c0-13.94,11.31-25.23,25.24-25.22l115.81,0.07c13.93,0.01,25.21,11.3,25.21,25.23l-0.06,290.34
							C345.01,362.47,333.71,373.77,319.77,373.76z"/>
					</g>
				</g>
			</g>
			<g>
				<g>
					<g>
						<path class="st3" d="M319.73,43.24l-22.45-0.01c-3.01,0-5.45,2.55-5.45,5.7l0,4.07c0,3.15-2.44,5.7-5.45,5.7l-43.77-0.03
							c-3.01,0-5.45-2.56-5.45-5.7l0-4.07c0-3.15-2.44-5.7-5.45-5.7l-7.9,0l-19.65-0.01c-9.76-0.01-17.68,7.9-17.68,17.66
							l-0.06,283.39c0,9.76,7.9,17.67,17.66,17.67l115.58,0.07c9.76,0.01,17.68-7.9,17.68-17.66l0.06-283.39
							C337.39,51.15,329.49,43.24,319.73,43.24z"/>
					</g>
				</g>
			</g>
		</g>
	</g>
	<g>
		<g>
			<path class="st4" d="M330.06,347.31h-0.16c-0.99,0-1.8-0.8-1.8-1.8V98.41c0-0.99,0.8-1.8,1.8-1.8h0.16c0.99,0,1.8,0.8,1.8,1.8
				v247.11C331.85,346.51,331.05,347.31,330.06,347.31z"/>
		</g>
	</g>
	<g>
		<g>
			<path d="M330.03,128.28h-0.11c-0.68,0-1.22-0.55-1.22-1.22v-17.76c0-0.68,0.55-1.22,1.22-1.22h0.11c0.68,0,1.22,0.55,1.22,1.22
				v17.76C331.26,127.73,330.71,128.28,330.03,128.28z"/>
		</g>
	</g>
	<g>
		<path class="st3" d="M319.97,149.46H202.79c-2.45,0-4.43-1.98-4.43-4.43V99.71c0-2.45,1.98-4.43,4.43-4.43h117.18
			c2.45,0,4.43,1.98,4.43,4.43v45.32C324.4,147.47,322.42,149.46,319.97,149.46z"/>
	</g>
	<g>
		<g>
			<path class="st0" d="M319.97,149.46c0-0.02,0.31,0,0.9-0.12c0.57-0.13,1.46-0.44,2.27-1.29c0.4-0.42,0.76-0.98,0.98-1.66
				c0.24-0.68,0.21-1.47,0.21-2.33c-0.01-1.72-0.01-3.7-0.02-5.93c-0.02-8.94-0.05-21.85-0.08-37.81c0-0.51,0.01-0.99-0.09-1.46
				c-0.1-0.47-0.28-0.93-0.54-1.35c-0.51-0.83-1.32-1.5-2.27-1.81c-0.94-0.33-2.01-0.19-3.08-0.22c-1.07,0-2.15,0-3.23,0
				c-4.36,0-8.89,0.01-13.58,0.01c-9.39,0.01-19.41,0.02-29.97,0.02c-21.11,0.01-44.31,0.01-68.66,0.02
				c-1.44-0.01-2.85,0.78-3.57,2.01c-0.38,0.61-0.58,1.31-0.6,2.02l-0.01,2.25c0,3.01,0,6,0,8.96c0,5.93,0,11.78,0,17.52
				c0,5.74,0,11.38,0,16.9c0.04,1.31,0.75,2.55,1.82,3.28c0.53,0.36,1.15,0.6,1.78,0.69c0.62,0.08,1.33,0.03,2,0.05
				c2.7,0,5.37,0,8.01,0c21.11,0.02,40.11,0.04,56.08,0.06c15.95,0.03,28.87,0.06,37.81,0.08c4.45,0.02,7.92,0.04,10.28,0.05
				c1.17,0.01,2.06,0.02,2.67,0.03C319.66,149.44,319.97,149.46,319.97,149.46s-0.31,0.02-0.91,0.03c-0.62,0.01-1.51,0.01-2.67,0.03
				c-2.36,0.01-5.82,0.03-10.28,0.05c-8.94,0.02-21.85,0.05-37.81,0.08c-15.97,0.02-34.97,0.03-56.08,0.06c-2.64,0-5.31,0-8.01,0
				c-0.68-0.01-1.33,0.04-2.06-0.05c-0.71-0.1-1.4-0.36-2-0.77c-1.19-0.81-1.99-2.2-2.03-3.67c-0.01-5.53-0.01-11.17-0.02-16.92
				c0-5.74,0-11.59,0-17.52c0-2.97,0-5.95,0-8.96l0.01-2.27c0.03-0.8,0.25-1.59,0.68-2.27c0.82-1.39,2.4-2.27,4.02-2.26
				c24.35,0.01,47.56,0.01,68.66,0.02c10.55,0.01,20.58,0.02,29.97,0.02c4.69,0.01,9.22,0.01,13.58,0.02c1.09,0,2.17,0,3.23,0
				c0.53,0,1.06,0,1.59,0c0.54,0,1.1,0.07,1.61,0.25c1.04,0.34,1.92,1.07,2.47,1.98c0.28,0.45,0.47,0.95,0.58,1.47
				c0.11,0.52,0.09,1.05,0.09,1.54c-0.03,15.95-0.06,28.87-0.08,37.81c-0.01,2.23-0.02,4.21-0.02,5.93c0,0.85,0.02,1.68-0.24,2.37
				c-0.24,0.7-0.62,1.26-1.03,1.69c-0.84,0.86-1.75,1.15-2.33,1.27C320.28,149.49,319.97,149.46,319.97,149.46z"/>
		</g>
	</g>
	<g>
		<g>
			<path class="st0" d="M312.68,114.81c0,0.14-10.2,0.26-22.78,0.26c-12.58,0-22.78-0.12-22.78-0.26s10.2-0.26,22.78-0.26
				C302.48,114.55,312.68,114.67,312.68,114.81z"/>
		</g>
	</g>
	<g>
		<g>
			<path class="st0" d="M312.68,118.98c0,0.14-10.2,0.26-22.78,0.26c-12.58,0-22.78-0.12-22.78-0.26c0-0.14,10.2-0.26,22.78-0.26
				C302.48,118.72,312.68,118.84,312.68,118.98z"/>
		</g>
	</g>
	<g>
		<g>
			<g>
				<g>
					<g>
						<g>
							<g>
								<path class="st1" d="M318.4,142.52c0,0-0.04,0-0.1,0.01c-0.07,0-0.17,0-0.3,0c-0.26,0-0.64,0-1.1,0
									c-0.94-0.01-2.23-0.01-3.68-0.02l-0.03,0l0-0.03c-0.03-0.19-0.05-0.4-0.08-0.61c-0.23-1.79-0.43-3.38-0.56-4.43l0.02,0.02
									c-0.41-0.01-0.75-0.01-0.98-0.02c-0.11,0-0.2-0.01-0.26-0.01c-0.06,0-0.09,0-0.09-0.01c0,0,0.03,0,0.09-0.01
									c0.07,0,0.15,0,0.26,0c0.23,0,0.57,0,0.98,0h0.02l0,0.02c0.14,1.04,0.35,2.64,0.59,4.42c0.03,0.21,0.05,0.42,0.08,0.61
									l-0.03-0.03c1.45,0.02,2.74,0.03,3.68,0.05c0.46,0.01,0.83,0.02,1.1,0.02c0.12,0,0.22,0.01,0.3,0.01
									C318.37,142.52,318.4,142.52,318.4,142.52z"/>
							</g>
							<g>
								<path class="st1" d="M316.9,142.61l-3.71-0.02c-0.04,0-0.07-0.03-0.07-0.07l-0.08-0.64l-0.55-4.34l-1.16-0.03
									c-0.11-0.01-0.16-0.01-0.16-0.08c0-0.08,0.07-0.08,0.16-0.08l1.24,0c0.04,0,0.09,0.03,0.09,0.06l0,0.02l0.6,4.56
									c0.02,0.13,0.03,0.26,0.05,0.38l4.98,0.08c0.12,0.01,0.17,0.01,0.17,0.08c0,0.08-0.06,0.08-0.18,0.08l-0.3,0H316.9z"/>
							</g>
						</g>
					</g>
				</g>
			</g>
			<g>
				<g>
					<g>
						<g>
							<g>
								<path class="st1" d="M313.09,141.4c0,0,0.01,0,0.03,0c0.02,0,0.05,0,0.08,0c0.07,0,0.17,0,0.3,0c0.26,0,0.64,0,1.11,0
									c0.95,0.01,2.28,0.01,3.82,0.02l-0.03,0.03c0.12-0.64,0.25-1.34,0.38-2.05c0.07-0.37,0.14-0.73,0.2-1.08l0.03,0.04
									c-1.79-0.02-3.37-0.04-4.5-0.06c-0.56-0.01-1.02-0.02-1.33-0.02c-0.15,0-0.27-0.01-0.36-0.01c-0.04,0-0.07,0-0.09,0
									c-0.02,0-0.03,0-0.03,0s0.01,0,0.03,0c0.02,0,0.06,0,0.09,0c0.09,0,0.21,0,0.36,0c0.32,0,0.77,0,1.33,0
									c1.14,0.01,2.71,0.02,4.5,0.03l0.04,0l-0.01,0.04c-0.06,0.35-0.13,0.71-0.2,1.08c-0.13,0.72-0.26,1.41-0.38,2.05l-0.01,0.03
									l-0.03,0c-1.54-0.02-2.87-0.04-3.82-0.05c-0.47-0.01-0.84-0.02-1.11-0.02c-0.13,0-0.22-0.01-0.3-0.01c-0.03,0-0.06,0-0.08,0
									C313.09,141.4,313.09,141.4,313.09,141.4z"/>
							</g>
							<g>
								<path class="st1" d="M318.44,141.56h-0.03l-5.3-0.08c-0.03,0-0.1-0.01-0.1-0.08c0-0.02,0.01-0.04,0.02-0.05
									c0.02-0.02,0.05-0.02,0.08-0.02l0.37,0l1.11,0l3.73,0.02l0.54-2.92l-6.16-0.09c-0.03,0-0.1-0.01-0.1-0.08
									c0-0.08,0.08-0.08,0.1-0.08l0.45,0l1.33,0l4.54,0.03c0.02,0,0.04,0.01,0.06,0.03c0.01,0.02,0.02,0.04,0.01,0.06l-0.21,1.12
									c-0.09,0.47-0.17,0.92-0.25,1.36l-0.13,0.72C318.51,141.53,318.48,141.56,318.44,141.56z"/>
							</g>
						</g>
					</g>
				</g>
			</g>
			<g>
				<g>
					<g>
						<g>
							<g>
								<path class="st1" d="M314.51,143.89c-0.01,0-0.01-0.05-0.03-0.12c-0.02-0.08-0.07-0.19-0.19-0.27
									c-0.11-0.08-0.29-0.13-0.46-0.07c-0.17,0.06-0.32,0.24-0.32,0.45c0,0.21,0.14,0.4,0.31,0.46c0.17,0.07,0.35,0.02,0.46-0.06
									c0.12-0.08,0.17-0.19,0.19-0.27C314.5,143.94,314.5,143.89,314.51,143.89c0,0,0.01,0.05,0,0.13
									c-0.02,0.08-0.07,0.2-0.19,0.3c-0.12,0.1-0.32,0.15-0.52,0.08c-0.2-0.07-0.36-0.28-0.36-0.52c0-0.24,0.17-0.45,0.37-0.51
									c0.2-0.07,0.4-0.01,0.51,0.09c0.12,0.1,0.17,0.22,0.18,0.3C314.52,143.84,314.51,143.89,314.51,143.89z"/>
							</g>
							<g>
								<path class="st1" d="M313.98,144.51c-0.07,0-0.14-0.01-0.21-0.04c-0.21-0.07-0.42-0.3-0.41-0.59c0-0.29,0.21-0.52,0.42-0.58
									c0.24-0.08,0.47,0,0.59,0.1c0.16,0.13,0.2,0.29,0.21,0.35c0.01,0.04,0.01,0.1,0,0.14c0.01,0.05,0,0.11-0.01,0.14
									c-0.01,0.06-0.06,0.22-0.22,0.34C314.27,144.45,314.14,144.51,313.98,144.51z M313.99,143.47c-0.04,0-0.09,0.01-0.14,0.03
									c-0.13,0.04-0.27,0.19-0.27,0.38c0,0.19,0.13,0.34,0.26,0.39c0.16,0.06,0.31,0.01,0.39-0.05c0.11-0.08,0.15-0.18,0.17-0.23
									c0.01-0.04,0.02-0.07,0.02-0.09c0,0,0-0.01,0-0.02c0-0.01,0-0.01,0-0.02c0-0.02-0.01-0.05-0.02-0.09
									c-0.01-0.05-0.06-0.15-0.16-0.23C314.19,143.51,314.1,143.47,313.99,143.47z"/>
							</g>
						</g>
					</g>
				</g>
			</g>
			<g>
				<g>
					<g>
						<g>
							<g>
								<path class="st1" d="M317.84,143.92c-0.01,0-0.01-0.05-0.03-0.12c-0.02-0.08-0.07-0.19-0.19-0.27
									c-0.11-0.08-0.29-0.13-0.46-0.07c-0.17,0.06-0.32,0.24-0.32,0.45c0,0.21,0.14,0.4,0.31,0.46c0.17,0.07,0.35,0.02,0.46-0.06
									c0.12-0.08,0.17-0.19,0.19-0.27C317.83,143.97,317.83,143.92,317.84,143.92c0,0,0.01,0.05,0,0.13
									c-0.02,0.08-0.07,0.2-0.19,0.3c-0.12,0.1-0.32,0.15-0.52,0.08c-0.2-0.07-0.36-0.28-0.36-0.52c0-0.24,0.17-0.45,0.37-0.51
									c0.2-0.07,0.4-0.01,0.51,0.09c0.12,0.1,0.17,0.22,0.18,0.3C317.85,143.88,317.84,143.92,317.84,143.92z"/>
							</g>
							<g>
								<path class="st1" d="M317.31,144.54c-0.07,0-0.14-0.01-0.21-0.04c-0.21-0.07-0.42-0.3-0.41-0.59c0-0.29,0.21-0.52,0.42-0.58
									c0.24-0.08,0.47,0,0.59,0.1c0.15,0.13,0.2,0.28,0.21,0.35c0.01,0.04,0.01,0.1,0,0.14c0.01,0.05,0,0.1-0.01,0.14
									c-0.01,0.06-0.06,0.22-0.22,0.34C317.61,144.48,317.47,144.54,317.31,144.54z M317.32,143.51c-0.04,0-0.09,0.01-0.14,0.03
									c-0.13,0.04-0.27,0.19-0.27,0.38c0,0.19,0.13,0.34,0.26,0.39c0.16,0.06,0.31,0.01,0.39-0.05c0.11-0.08,0.15-0.18,0.17-0.23
									c0.01-0.04,0.02-0.07,0.02-0.09c0,0,0-0.01,0-0.01c0-0.01,0-0.01,0-0.01c0-0.02-0.01-0.05-0.02-0.09
									c-0.01-0.05-0.06-0.15-0.16-0.23C317.52,143.54,317.43,143.51,317.32,143.51z"/>
							</g>
						</g>
					</g>
				</g>
			</g>
			<g>
				<g>
					<g>
						<g>
							<path class="st1" d="M320.2,137.81c-0.01,0.82-0.68,1.47-1.49,1.46c-0.82-0.01-1.47-0.68-1.46-1.49
								c0.01-0.82,0.68-1.47,1.49-1.46S320.2,136.99,320.2,137.81z"/>
						</g>
					</g>
				</g>
			</g>
		</g>
		<g>
			<g>
				<g>
					<g>
						<g>
							<path class="st3" d="M318.76,138.6c0,0,0.01,0.01,0.01,0.03l-0.02,0c-0.02-0.09-0.02-0.39-0.01-0.75
								c0.01-0.43,0.04-0.78,0.06-0.78c0.02,0,0.03,0.35,0.02,0.78c-0.01,0.35-0.03,0.65-0.05,0.74l-0.02,0
								C318.75,138.61,318.76,138.6,318.76,138.6z"/>
						</g>
					</g>
				</g>
			</g>
			<g>
				<g>
					<g>
						<g>
							<path class="st3" d="M319.56,137.9c0,0.02-0.35,0.03-0.78,0.02c-0.43-0.01-0.78-0.04-0.78-0.06c0-0.02,0.35-0.03,0.78-0.02
								C319.21,137.84,319.56,137.87,319.56,137.9z"/>
						</g>
					</g>
				</g>
			</g>
		</g>
	</g>
	<g>
		<g>
			<g>
				<path class="st4" d="M319.97,212.09H202.79c-2.45,0-4.43-1.98-4.43-4.43v-45.32c0-2.45,1.98-4.43,4.43-4.43h117.18
					c2.45,0,4.43,1.98,4.43,4.43v45.32C324.4,210.11,322.42,212.09,319.97,212.09z"/>
			</g>
		</g>
		<g>
			<g>
				<path class="st3" d="M262.41,212.09h-60.07c-2.21,0-3.99-1.79-3.99-3.99V162c0-2.21,1.79-3.99,3.99-3.99h60.07V212.09z"/>
			</g>
		</g>
		<g>
			<g>
				<g>
					<path class="st5" d="M262.56,212.51c-0.14,0-0.26-12.05-0.26-26.91c0-14.87,0.12-26.91,0.26-26.91s0.26,12.05,0.26,26.91
						C262.82,200.46,262.7,212.51,262.56,212.51z"/>
				</g>
			</g>
		</g>
		<g>
			<g>
				<g>
					<path class="st5" d="M319.97,212.09c0-0.02,0.31,0,0.9-0.12c0.57-0.13,1.46-0.44,2.27-1.29c0.4-0.42,0.76-0.98,0.98-1.66
						c0.24-0.68,0.21-1.47,0.21-2.33c-0.01-1.72-0.01-3.7-0.02-5.93c-0.02-8.94-0.05-21.85-0.08-37.81c0-0.51,0.01-0.99-0.09-1.46
						c-0.1-0.47-0.28-0.93-0.54-1.35c-0.51-0.83-1.32-1.5-2.27-1.81c-0.94-0.33-2.01-0.19-3.08-0.22c-1.07,0-2.15,0-3.23,0
						c-4.36,0-8.89,0.01-13.58,0.01c-9.39,0.01-19.41,0.02-29.97,0.02c-21.11,0.01-44.31,0.01-68.66,0.02
						c-1.44-0.01-2.85,0.78-3.57,2.01c-0.38,0.61-0.58,1.31-0.6,2.02l-0.01,2.25c0,3.01,0,5.99,0,8.96c0,5.93,0,11.78,0,17.52
						c0,5.74,0,11.38,0,16.9c0.04,1.31,0.75,2.55,1.82,3.28c0.53,0.36,1.15,0.6,1.78,0.69c0.62,0.08,1.33,0.03,2,0.05
						c2.7,0,5.37,0,8.01,0c21.11,0.02,40.11,0.04,56.08,0.06c15.95,0.04,28.87,0.06,37.81,0.08c4.45,0.02,7.92,0.04,10.28,0.05
						c1.17,0.01,2.06,0.02,2.67,0.03C319.66,212.07,319.97,212.09,319.97,212.09s-0.31,0.02-0.91,0.03
						c-0.62,0.01-1.51,0.01-2.67,0.03c-2.36,0.01-5.82,0.03-10.28,0.05c-8.94,0.02-21.85,0.05-37.81,0.08
						c-15.97,0.02-34.97,0.03-56.08,0.06c-2.64,0-5.31,0-8.01,0c-0.68-0.01-1.33,0.04-2.06-0.05c-0.71-0.1-1.4-0.36-2-0.77
						c-1.19-0.81-1.99-2.2-2.03-3.67c-0.01-5.53-0.01-11.17-0.02-16.92c0-5.74,0-11.59,0-17.52c0-2.97,0-5.95,0-8.96l0.01-2.27
						c0.03-0.8,0.25-1.59,0.68-2.27c0.82-1.39,2.4-2.27,4.02-2.26c24.35,0.01,47.56,0.01,68.66,0.02
						c10.55,0.01,20.58,0.02,29.97,0.02c4.69,0.01,9.22,0.01,13.58,0.01c1.09,0,2.17,0,3.23,0c0.53,0,1.06,0,1.59,0
						c0.54,0,1.1,0.07,1.61,0.25c1.04,0.34,1.92,1.07,2.47,1.98c0.28,0.45,0.47,0.95,0.58,1.47c0.11,0.52,0.09,1.05,0.09,1.54
						c-0.03,15.95-0.06,28.87-0.08,37.81c-0.01,2.23-0.02,4.21-0.02,5.93c0,0.85,0.02,1.68-0.24,2.37c-0.24,0.7-0.62,1.26-1.03,1.69
						c-0.84,0.86-1.75,1.15-2.33,1.27C320.28,212.13,319.97,212.09,319.97,212.09z"/>
				</g>
			</g>
		</g>
		<g>
			<g>
				<g>
					<path class="st1" d="M290.43,170.33c0,0.14-5.17,0.26-11.54,0.26c-6.37,0-11.54-0.12-11.54-0.26c0-0.14,5.17-0.26,11.54-0.26
						C285.26,170.07,290.43,170.18,290.43,170.33z"/>
				</g>
			</g>
		</g>
		<g>
			<g>
				<g>
					<path class="st5" d="M312.68,177.44c0,0.14-10.2,0.26-22.78,0.26c-12.58,0-22.78-0.12-22.78-0.26c0-0.14,10.2-0.26,22.78-0.26
						C302.48,177.18,312.68,177.3,312.68,177.44z"/>
				</g>
			</g>
		</g>
		<g>
			<g>
				<g>
					<path class="st5" d="M312.68,181.61c0,0.14-10.2,0.26-22.78,0.26c-12.58,0-22.78-0.12-22.78-0.26c0-0.14,10.2-0.26,22.78-0.26
						C302.48,181.35,312.68,181.47,312.68,181.61z"/>
				</g>
			</g>
		</g>
		<g>
			<g>
				<g>
					<g>
						<path class="st6" d="M307.89,202.17c-0.04-0.47-0.26-0.92-0.56-1.28c-0.3-0.35-0.69-0.64-1.14-0.75
							c-0.48-0.12-1-0.03-1.42,0.24c-0.25,0.16-0.45,0.38-0.59,0.63c-0.13-0.23-0.31-0.44-0.52-0.6c-0.4-0.29-0.92-0.41-1.4-0.32
							c-0.46,0.09-0.87,0.35-1.18,0.68c-0.32,0.34-0.56,0.78-0.63,1.25c-0.08,0.59,0.01,1.23,0.3,1.75
							c0.31,0.54,0.82,0.99,1.34,1.33c0.89,0.57,2.05,1.28,2.05,1.28s1.02-0.72,1.94-1.24c0.54-0.31,1.08-0.73,1.41-1.25
							C307.81,203.4,307.94,202.76,307.89,202.17z"/>
					</g>
					<g>
						<path class="st1" d="M304.14,206.54l-0.07-0.04c-0.01-0.01-1.18-0.72-2.05-1.28c-0.62-0.4-1.1-0.87-1.38-1.37
							c-0.29-0.52-0.41-1.19-0.32-1.83c0.07-0.46,0.3-0.93,0.67-1.31c0.25-0.27,0.68-0.61,1.25-0.72c0.52-0.1,1.07,0.03,1.5,0.34
							c0.17,0.12,0.32,0.28,0.45,0.46c0.14-0.2,0.32-0.37,0.53-0.5c0.44-0.29,1-0.38,1.51-0.25c0.45,0.11,0.87,0.38,1.21,0.79
							c0.34,0.4,0.55,0.88,0.59,1.35c0.06,0.65-0.1,1.3-0.42,1.81c-0.31,0.48-0.81,0.93-1.46,1.29c-0.9,0.51-1.92,1.23-1.93,1.23
							L304.14,206.54z M302.58,200.19c-0.1,0-0.2,0.01-0.3,0.03c-0.4,0.07-0.79,0.3-1.12,0.65c-0.33,0.35-0.54,0.76-0.6,1.18
							c-0.08,0.59,0.02,1.2,0.29,1.67c0.26,0.46,0.71,0.91,1.3,1.29c0.75,0.48,1.71,1.07,1.98,1.24c0.24-0.17,1.11-0.76,1.88-1.2
							c0.61-0.35,1.08-0.76,1.37-1.21c0.29-0.46,0.43-1.06,0.38-1.65l0,0c-0.04-0.42-0.22-0.84-0.53-1.21
							c-0.21-0.25-0.58-0.58-1.08-0.71c-0.44-0.11-0.94-0.03-1.32,0.22c-0.23,0.15-0.42,0.35-0.55,0.59l-0.11,0.2l-0.11-0.2
							c-0.12-0.22-0.29-0.41-0.48-0.55C303.29,200.31,302.94,200.19,302.58,200.19z"/>
					</g>
				</g>
			</g>
		</g>
		<g>
			<g>
				<g>
					<g>
						<g>
							<g>
								<g>
									<g>
										<path class="st1" d="M318.4,205.15c0,0-0.04,0-0.1,0.01c-0.07,0-0.17,0-0.3,0c-0.26,0-0.64,0-1.1,0
											c-0.94-0.01-2.23-0.01-3.68-0.02l-0.03,0l0-0.03c-0.03-0.19-0.05-0.4-0.08-0.61c-0.23-1.79-0.43-3.38-0.56-4.43l0.02,0.02
											c-0.41-0.01-0.75-0.01-0.98-0.02c-0.11,0-0.2-0.01-0.26-0.01c-0.06,0-0.09,0-0.09-0.01s0.03,0,0.09-0.01
											c0.07,0,0.15,0,0.26,0c0.23,0,0.57,0,0.98,0l0.02,0l0,0.02c0.14,1.04,0.35,2.64,0.59,4.42c0.03,0.21,0.05,0.42,0.08,0.61
											l-0.03-0.03c1.45,0.02,2.74,0.03,3.68,0.05c0.46,0.01,0.83,0.02,1.1,0.02c0.12,0,0.22,0.01,0.3,0.01
											C318.37,205.15,318.4,205.15,318.4,205.15z"/>
									</g>
									<g>
										<path class="st1" d="M316.9,205.24l-3.71-0.02c-0.04,0-0.07-0.03-0.07-0.07l-0.63-4.98l-1.16-0.03
											c-0.1,0-0.16-0.01-0.16-0.08c0-0.08,0.06-0.08,0.16-0.08l1.24,0c0.04,0,0.09,0.03,0.09,0.06l0,0.02l0.6,4.54
											c0.02,0.14,0.04,0.27,0.05,0.4l4.98,0.08c0.12,0.01,0.18,0.01,0.18,0.08c0,0.08-0.06,0.08-0.18,0.08l-0.3,0H316.9z"/>
									</g>
								</g>
							</g>
						</g>
					</g>
					<g>
						<g>
							<g>
								<g>
									<g>
										<path class="st1" d="M313.09,204.03c0,0,0.01,0,0.03,0c0.02,0,0.05,0,0.08,0c0.07,0,0.17,0,0.3,0c0.26,0,0.64,0,1.11,0
											c0.95,0.01,2.28,0.01,3.82,0.02l-0.03,0.03c0.12-0.64,0.25-1.34,0.38-2.05c0.07-0.37,0.14-0.73,0.2-1.08l0.03,0.04
											c-1.79-0.02-3.37-0.04-4.5-0.06c-0.56-0.01-1.02-0.02-1.33-0.02c-0.15,0-0.27-0.01-0.36-0.01c-0.04,0-0.07,0-0.09,0
											c-0.02,0-0.03,0-0.03,0s0.01,0,0.03,0c0.02,0,0.06,0,0.09,0c0.09,0,0.21,0,0.36,0c0.32,0,0.77,0,1.33,0
											c1.14,0.01,2.71,0.02,4.5,0.03l0.04,0l-0.01,0.04c-0.06,0.35-0.13,0.71-0.2,1.08c-0.13,0.72-0.26,1.41-0.38,2.05
											l-0.01,0.03l-0.03,0c-1.54-0.02-2.87-0.04-3.82-0.05c-0.47-0.01-0.84-0.02-1.11-0.02c-0.13,0-0.22-0.01-0.3-0.01
											c-0.03,0-0.06,0-0.08,0C313.09,204.03,313.09,204.03,313.09,204.03z"/>
									</g>
									<g>
										<path class="st1" d="M318.44,204.19L318.44,204.19l-0.03,0l-5.3-0.08c-0.08,0-0.1-0.04-0.1-0.08
											c0-0.02,0.01-0.04,0.02-0.05c0.02-0.02,0.04-0.02,0.08-0.02l0.38-0.01l1.11,0l3.73,0.02l0.54-2.92l-6.16-0.09
											c-0.03,0-0.1-0.01-0.1-0.08c0-0.08,0.08-0.08,0.1-0.08l0.45,0l1.33,0l4.54,0.03c0.02,0,0.04,0.01,0.06,0.03
											c0.01,0.02,0.02,0.04,0.01,0.06l-0.21,1.12c-0.09,0.46-0.17,0.91-0.25,1.34l-0.14,0.74
											C318.51,204.17,318.48,204.19,318.44,204.19z"/>
									</g>
								</g>
							</g>
						</g>
					</g>
					<g>
						<g>
							<g>
								<g>
									<g>
										<path class="st1" d="M314.51,206.52c-0.01,0-0.01-0.05-0.03-0.12c-0.02-0.08-0.07-0.19-0.19-0.27
											c-0.11-0.08-0.29-0.13-0.46-0.07c-0.17,0.06-0.32,0.24-0.32,0.45c0,0.21,0.14,0.4,0.31,0.46
											c0.17,0.07,0.35,0.02,0.46-0.06c0.12-0.08,0.17-0.19,0.19-0.27C314.5,206.57,314.5,206.52,314.51,206.52
											c0,0,0.01,0.05,0,0.13c-0.02,0.08-0.07,0.2-0.19,0.3c-0.12,0.1-0.32,0.15-0.52,0.08c-0.2-0.07-0.36-0.28-0.36-0.52
											c0-0.24,0.17-0.45,0.37-0.51c0.2-0.07,0.4-0.01,0.51,0.09c0.12,0.1,0.17,0.22,0.18,0.3
											C314.52,206.48,314.51,206.52,314.51,206.52z"/>
									</g>
									<g>
										<path class="st1" d="M313.98,207.14c-0.07,0-0.14-0.01-0.21-0.04c-0.21-0.07-0.42-0.3-0.41-0.59
											c0-0.29,0.21-0.52,0.42-0.58c0.24-0.09,0.47,0,0.59,0.1c0.16,0.13,0.2,0.29,0.21,0.35c0.01,0.04,0.01,0.1,0,0.14
											c0.01,0.05,0,0.11-0.01,0.14c-0.01,0.06-0.06,0.22-0.22,0.34C314.27,207.08,314.14,207.14,313.98,207.14z M313.99,206.11
											c-0.04,0-0.09,0.01-0.14,0.02c-0.14,0.05-0.27,0.19-0.27,0.38c0,0.19,0.13,0.34,0.26,0.39c0.16,0.06,0.31,0.01,0.39-0.05
											c0.11-0.08,0.15-0.18,0.17-0.23c0.01-0.04,0.02-0.07,0.02-0.09c0,0,0-0.01,0-0.02c0-0.01,0-0.01,0-0.02
											c0-0.02-0.01-0.05-0.02-0.09c-0.01-0.05-0.06-0.15-0.16-0.23C314.19,206.14,314.1,206.11,313.99,206.11z"/>
									</g>
								</g>
							</g>
						</g>
					</g>
					<g>
						<g>
							<g>
								<g>
									<g>
										<path class="st1" d="M317.84,206.55c-0.01,0-0.01-0.05-0.03-0.12c-0.02-0.08-0.07-0.19-0.19-0.27
											c-0.11-0.08-0.29-0.13-0.46-0.07c-0.17,0.06-0.32,0.24-0.32,0.45c0,0.21,0.14,0.4,0.31,0.46
											c0.17,0.07,0.35,0.02,0.46-0.06c0.12-0.08,0.17-0.19,0.19-0.27C317.83,206.6,317.83,206.55,317.84,206.55
											c0,0,0.01,0.05,0,0.13c-0.02,0.08-0.07,0.2-0.19,0.3c-0.12,0.1-0.32,0.15-0.52,0.08c-0.2-0.07-0.36-0.28-0.36-0.52
											c0-0.24,0.17-0.45,0.37-0.51c0.2-0.07,0.4-0.01,0.51,0.09c0.12,0.1,0.17,0.22,0.18,0.3
											C317.85,206.51,317.84,206.55,317.84,206.55z"/>
									</g>
									<g>
										<path class="st1" d="M317.31,207.17c-0.07,0-0.14-0.01-0.21-0.04c-0.21-0.07-0.42-0.3-0.41-0.59
											c0-0.29,0.21-0.52,0.42-0.58c0.24-0.09,0.47,0,0.59,0.1c0.15,0.13,0.2,0.28,0.21,0.35c0.01,0.04,0.01,0.1,0,0.14
											c0.01,0.05,0,0.11-0.01,0.14c-0.01,0.06-0.06,0.22-0.22,0.34C317.61,207.11,317.47,207.17,317.31,207.17z M317.32,206.14
											c-0.04,0-0.09,0.01-0.14,0.02c-0.13,0.04-0.27,0.19-0.27,0.38c0,0.19,0.13,0.34,0.26,0.39c0.16,0.06,0.31,0.01,0.39-0.05
											c0.11-0.08,0.15-0.18,0.17-0.23c0.01-0.04,0.02-0.07,0.02-0.09c0,0,0-0.01,0-0.02c0,0,0-0.01,0-0.01
											c0-0.02-0.01-0.05-0.02-0.09c-0.01-0.05-0.06-0.15-0.16-0.23C317.52,206.18,317.43,206.14,317.32,206.14z"/>
									</g>
								</g>
							</g>
						</g>
					</g>
					<g>
						<g>
							<g>
								<g>
									<path class="st1" d="M320.2,200.44c-0.01,0.82-0.68,1.47-1.49,1.46c-0.82-0.01-1.47-0.68-1.46-1.49
										c0.01-0.82,0.68-1.47,1.49-1.46C319.55,198.95,320.2,199.62,320.2,200.44z"/>
								</g>
							</g>
						</g>
					</g>
				</g>
				<g>
					<g>
						<g>
							<g>
								<g>
									<path class="st3" d="M318.76,201.23c0,0,0.01,0.01,0.01,0.03l-0.02,0c-0.02-0.09-0.02-0.39-0.01-0.75
										c0.01-0.43,0.04-0.78,0.06-0.78c0.02,0,0.03,0.35,0.02,0.78c-0.01,0.36-0.03,0.65-0.05,0.74l-0.02,0
										C318.75,201.25,318.76,201.23,318.76,201.23z"/>
								</g>
							</g>
						</g>
					</g>
					<g>
						<g>
							<g>
								<g>
									<path class="st3" d="M319.56,200.53c0,0.02-0.35,0.03-0.78,0.02c-0.43-0.01-0.78-0.04-0.78-0.06
										c0-0.02,0.35-0.03,0.78-0.02C319.21,200.48,319.56,200.5,319.56,200.53z"/>
								</g>
							</g>
						</g>
					</g>
				</g>
			</g>
		</g>
		<g>
			<g>
				<g>
					<path class="st1" d="M289.62,203.88c0,0.14-4.7,0.26-10.5,0.26c-5.8,0-10.5-0.12-10.5-0.26s4.7-0.26,10.5-0.26
						C284.92,203.62,289.62,203.74,289.62,203.88z"/>
				</g>
			</g>
		</g>
	</g>
	<g>
		<g>
			<g>
				<path class="st4" d="M319.97,273.95H202.79c-2.45,0-4.43-1.98-4.43-4.43V224.2c0-2.45,1.98-4.43,4.43-4.43h117.18
					c2.45,0,4.43,1.98,4.43,4.43v45.32C324.4,271.96,322.42,273.95,319.97,273.95z"/>
			</g>
		</g>
		<g>
			<g>
				<path class="st3" d="M262.41,273.95h-60.07c-2.21,0-3.99-1.79-3.99-3.99v-46.1c0-2.2,1.79-3.99,3.99-3.99h60.07V273.95z"/>
			</g>
		</g>
		<g>
			<g>
				<g>
					<path class="st5" d="M262.56,274.37c-0.14,0-0.26-12.05-0.26-26.91c0-14.87,0.12-26.91,0.26-26.91s0.26,12.05,0.26,26.91
						C262.82,262.32,262.7,274.37,262.56,274.37z"/>
				</g>
			</g>
		</g>
		<g>
			<g>
				<g>
					<path class="st5" d="M319.97,273.95c0-0.02,0.31,0,0.9-0.12c0.57-0.13,1.46-0.44,2.27-1.29c0.4-0.42,0.76-0.98,0.98-1.66
						c0.24-0.68,0.21-1.47,0.21-2.33c-0.01-1.72-0.01-3.7-0.02-5.93c-0.02-8.94-0.05-21.85-0.08-37.81c0-0.51,0.01-0.99-0.09-1.46
						c-0.1-0.47-0.28-0.93-0.54-1.35c-0.51-0.83-1.32-1.5-2.27-1.81c-0.94-0.33-2.01-0.19-3.08-0.22c-1.07,0-2.15,0-3.23,0
						c-4.36,0-8.89,0.01-13.58,0.01c-9.39,0.01-19.41,0.02-29.97,0.02c-21.11,0.01-44.31,0.01-68.66,0.02
						c-1.44-0.01-2.85,0.78-3.57,2.01c-0.38,0.61-0.58,1.31-0.6,2.02l-0.01,2.25c0,3.01,0,5.99,0,8.96c0,5.93,0,11.78,0,17.52
						c0,5.74,0,11.38,0,16.9c0.04,1.31,0.75,2.55,1.82,3.28c0.53,0.36,1.15,0.6,1.78,0.69c0.62,0.08,1.33,0.03,2,0.05
						c2.7,0,5.37,0,8.01,0c21.11,0.02,40.11,0.04,56.08,0.06c15.95,0.03,28.87,0.06,37.81,0.08c4.45,0.02,7.92,0.04,10.28,0.05
						c1.17,0.01,2.06,0.02,2.67,0.03C319.66,273.93,319.97,273.95,319.97,273.95s-0.31,0.02-0.91,0.03
						c-0.62,0.01-1.51,0.01-2.67,0.03c-2.36,0.01-5.82,0.03-10.28,0.05c-8.94,0.02-21.85,0.05-37.81,0.08
						c-15.97,0.02-34.97,0.03-56.08,0.06c-2.64,0-5.31,0-8.01,0c-0.68-0.01-1.33,0.04-2.06-0.05c-0.71-0.1-1.4-0.36-2-0.77
						c-1.19-0.81-1.99-2.2-2.03-3.67c-0.01-5.53-0.01-11.17-0.02-16.92c0-5.74,0-11.59,0-17.52c0-2.97,0-5.95,0-8.96l0.01-2.27
						c0.03-0.8,0.25-1.59,0.68-2.27c0.82-1.39,2.4-2.27,4.02-2.26c24.35,0.01,47.56,0.01,68.66,0.02
						c10.55,0.01,20.58,0.02,29.97,0.02c4.69,0.01,9.22,0.01,13.58,0.01c1.09,0,2.17,0,3.23,0c0.53,0,1.06,0,1.59,0
						c0.54,0,1.1,0.07,1.61,0.25c1.04,0.34,1.92,1.07,2.47,1.98c0.28,0.45,0.47,0.95,0.58,1.47c0.11,0.52,0.09,1.05,0.09,1.54
						c-0.03,15.95-0.06,28.87-0.08,37.81c-0.01,2.23-0.02,4.21-0.02,5.93c0,0.85,0.02,1.68-0.24,2.37c-0.24,0.7-0.62,1.26-1.03,1.69
						c-0.84,0.86-1.75,1.15-2.33,1.27C320.28,273.98,319.97,273.95,319.97,273.95z"/>
				</g>
			</g>
		</g>
		<g>
			<g>
				<g>
					<path class="st1" d="M290.43,232.18c0,0.14-5.17,0.26-11.54,0.26c-6.37,0-11.54-0.12-11.54-0.26s5.17-0.26,11.54-0.26
						C285.26,231.92,290.43,232.04,290.43,232.18z"/>
				</g>
			</g>
		</g>
		<g>
			<g>
				<g>
					<path class="st5" d="M312.68,239.3c0,0.14-10.2,0.26-22.78,0.26c-12.58,0-22.78-0.12-22.78-0.26c0-0.14,10.2-0.26,22.78-0.26
						C302.48,239.04,312.68,239.15,312.68,239.3z"/>
				</g>
			</g>
		</g>
		<g>
			<g>
				<g>
					<path class="st5" d="M312.68,243.47c0,0.14-10.2,0.26-22.78,0.26c-12.58,0-22.78-0.12-22.78-0.26c0-0.14,10.2-0.26,22.78-0.26
						C302.48,243.21,312.68,243.33,312.68,243.47z"/>
				</g>
			</g>
		</g>
		<g>
			<g>
				<g>
					<g>
						<path class="st6" d="M307.89,264.02c-0.04-0.47-0.26-0.92-0.56-1.28c-0.3-0.35-0.69-0.64-1.14-0.75
							c-0.48-0.12-1-0.03-1.42,0.24c-0.25,0.16-0.45,0.38-0.59,0.63c-0.13-0.23-0.31-0.44-0.52-0.6c-0.4-0.29-0.92-0.41-1.4-0.32
							c-0.46,0.09-0.87,0.35-1.18,0.68c-0.32,0.34-0.56,0.78-0.63,1.25c-0.08,0.59,0.01,1.23,0.3,1.75
							c0.31,0.54,0.82,0.99,1.34,1.33c0.89,0.57,2.05,1.28,2.05,1.28s1.02-0.72,1.94-1.24c0.54-0.31,1.08-0.73,1.41-1.25
							C307.81,265.25,307.94,264.61,307.89,264.02z"/>
					</g>
					<g>
						<path class="st1" d="M304.14,268.39l-0.07-0.04c-0.01-0.01-1.18-0.72-2.05-1.28c-0.62-0.4-1.1-0.87-1.38-1.37
							c-0.29-0.52-0.41-1.19-0.32-1.83c0.07-0.46,0.3-0.93,0.67-1.31c0.25-0.27,0.68-0.61,1.25-0.72c0.52-0.1,1.07,0.03,1.5,0.34
							c0.17,0.12,0.32,0.28,0.45,0.46c0.14-0.2,0.32-0.37,0.52-0.5c0.44-0.29,1.01-0.38,1.51-0.25c0.56,0.14,0.97,0.51,1.21,0.79
							c0.34,0.4,0.55,0.88,0.59,1.35c0.06,0.65-0.1,1.3-0.42,1.81c-0.31,0.48-0.81,0.93-1.46,1.29c-0.9,0.51-1.92,1.23-1.93,1.23
							L304.14,268.39z M302.58,262.05c-0.1,0-0.2,0.01-0.3,0.03c-0.4,0.07-0.79,0.3-1.12,0.65c-0.33,0.35-0.54,0.76-0.6,1.18
							c-0.08,0.59,0.02,1.2,0.29,1.67c0.26,0.46,0.71,0.91,1.3,1.29c0.75,0.48,1.71,1.07,1.98,1.24c0.24-0.17,1.11-0.76,1.88-1.2
							c0.61-0.35,1.09-0.76,1.37-1.21c0.29-0.46,0.43-1.06,0.38-1.65l0,0c-0.04-0.42-0.22-0.84-0.53-1.21
							c-0.22-0.25-0.58-0.58-1.08-0.71c-0.44-0.11-0.93-0.03-1.32,0.22c-0.23,0.15-0.42,0.35-0.55,0.59l-0.11,0.2l-0.11-0.2
							c-0.12-0.22-0.29-0.41-0.48-0.55C303.29,262.16,302.94,262.05,302.58,262.05z"/>
					</g>
				</g>
			</g>
		</g>
		<g>
			<g>
				<g>
					<g>
						<g>
							<g>
								<g>
									<g>
										<path class="st1" d="M318.4,267.01c0,0-0.04,0-0.1,0.01c-0.07,0-0.17,0-0.3,0c-0.26,0-0.64,0-1.1,0
											c-0.94-0.01-2.23-0.01-3.68-0.02l-0.03,0l0-0.03c-0.03-0.19-0.05-0.4-0.08-0.61c-0.23-1.79-0.43-3.38-0.56-4.43l0.02,0.02
											c-0.41-0.01-0.75-0.01-0.98-0.02c-0.11,0-0.2-0.01-0.26-0.01c-0.06,0-0.09,0-0.09-0.01s0.03,0,0.09-0.01
											c0.07,0,0.15,0,0.26,0c0.23,0,0.57,0,0.98,0h0.02l0,0.02c0.14,1.04,0.35,2.64,0.59,4.42c0.03,0.21,0.05,0.42,0.08,0.61
											l-0.03-0.03c1.45,0.02,2.74,0.03,3.68,0.05c0.46,0.01,0.83,0.02,1.1,0.02c0.12,0,0.22,0.01,0.3,0.01
											C318.37,267.01,318.4,267.01,318.4,267.01z"/>
									</g>
									<g>
										<path class="st1" d="M316.9,267.1l-3.71-0.02c-0.04,0-0.07-0.03-0.07-0.07l-0.63-4.98l-1.16-0.03
											c-0.1,0-0.16-0.01-0.16-0.08c0-0.08,0.07-0.08,0.16-0.08l0.26,0c0.24,0,0.57,0,0.98,0c0.04,0,0.09,0.03,0.09,0.06l0,0.02
											l0.6,4.55c0.02,0.13,0.03,0.26,0.05,0.39l4.98,0.08c0.12,0.01,0.18,0.01,0.18,0.08c0,0.08-0.06,0.08-0.18,0.08l-0.3,0
											H316.9z"/>
									</g>
								</g>
							</g>
						</g>
					</g>
					<g>
						<g>
							<g>
								<g>
									<g>
										<path class="st1" d="M313.09,265.89c0,0,0.01,0,0.03,0c0.02,0,0.05,0,0.08,0c0.07,0,0.17,0,0.3,0c0.26,0,0.64,0,1.11,0
											c0.95,0.01,2.28,0.01,3.82,0.02l-0.03,0.03c0.12-0.64,0.25-1.34,0.38-2.05c0.07-0.37,0.14-0.73,0.2-1.08l0.03,0.04
											c-1.79-0.02-3.37-0.04-4.5-0.05c-0.56-0.01-1.02-0.02-1.33-0.02c-0.15,0-0.27-0.01-0.36-0.01c-0.04,0-0.07,0-0.09,0
											c-0.02,0-0.03,0-0.03,0s0.01,0,0.03,0c0.02,0,0.06,0,0.09,0c0.09,0,0.21,0,0.36,0c0.32,0,0.77,0,1.33,0
											c1.14,0.01,2.71,0.02,4.5,0.03l0.04,0l-0.01,0.04c-0.06,0.35-0.13,0.71-0.2,1.08c-0.13,0.72-0.26,1.41-0.38,2.05
											l-0.01,0.03l-0.03,0c-1.54-0.02-2.87-0.04-3.82-0.05c-0.47-0.01-0.84-0.02-1.11-0.02c-0.13,0-0.22-0.01-0.3-0.01
											c-0.03,0-0.06,0-0.08,0C313.09,265.89,313.09,265.89,313.09,265.89z"/>
									</g>
									<g>
										<path class="st1" d="M318.44,266.05h-0.03c-1.54-0.02-2.87-0.04-3.82-0.05c-0.47-0.01-0.84-0.01-1.11-0.02l-0.38-0.01
											c-0.06,0-0.1-0.03-0.1-0.08c0-0.02,0.01-0.04,0.02-0.05c0.02-0.02,0.05-0.02,0.08-0.03c0.02,0,0.04,0,0.06,0l1.42,0
											l3.73,0.03l0.54-2.92l-5-0.06c-0.28,0-0.51-0.01-0.7-0.01l-0.45-0.01c-0.07,0-0.1-0.03-0.1-0.08
											c0-0.07,0.08-0.08,0.1-0.08c0.02,0,0.05,0,0.08,0c0,0,0.02,0,0.02,0l0.36,0l2.65,0.01l3.23,0.02
											c0.02,0,0.04,0.01,0.06,0.03c0.01,0.02,0.02,0.04,0.01,0.06l-0.21,1.12l-0.39,2.08
											C318.51,266.02,318.48,266.05,318.44,266.05z"/>
									</g>
								</g>
							</g>
						</g>
					</g>
					<g>
						<g>
							<g>
								<g>
									<g>
										<path class="st1" d="M314.51,268.38c-0.01,0-0.01-0.05-0.03-0.12c-0.02-0.08-0.07-0.19-0.19-0.27
											c-0.11-0.08-0.29-0.13-0.46-0.07c-0.17,0.06-0.32,0.24-0.32,0.45c0,0.21,0.14,0.4,0.31,0.46
											c0.17,0.07,0.35,0.02,0.46-0.06c0.12-0.08,0.17-0.19,0.19-0.27C314.5,268.43,314.5,268.38,314.51,268.38
											c0,0,0.01,0.05,0,0.13c-0.02,0.08-0.07,0.2-0.19,0.3c-0.12,0.1-0.32,0.15-0.52,0.08c-0.2-0.07-0.36-0.28-0.36-0.52
											c0-0.24,0.17-0.45,0.37-0.51c0.2-0.07,0.4-0.01,0.51,0.09c0.12,0.1,0.17,0.22,0.18,0.3
											C314.52,268.33,314.51,268.38,314.51,268.38z"/>
									</g>
									<g>
										<path class="st1" d="M313.98,269c-0.07,0-0.14-0.01-0.21-0.04c-0.21-0.07-0.42-0.3-0.41-0.59c0-0.26,0.18-0.51,0.42-0.58
											c0.24-0.09,0.47,0,0.59,0.1c0.15,0.13,0.2,0.29,0.21,0.35c0.01,0.05,0.01,0.1,0,0.14c0.01,0.05,0,0.11-0.01,0.14
											c-0.01,0.06-0.06,0.22-0.22,0.34C314.27,268.94,314.14,269,313.98,269z M313.99,267.96c-0.04,0-0.09,0.01-0.14,0.02
											c-0.14,0.05-0.27,0.19-0.27,0.38c0,0.19,0.13,0.34,0.26,0.39c0.16,0.06,0.31,0.01,0.39-0.05
											c0.11-0.08,0.15-0.17,0.17-0.23c0.01-0.04,0.02-0.07,0.02-0.09c0,0,0-0.01,0-0.02c0-0.01,0-0.01,0-0.02
											c0-0.02-0.01-0.05-0.02-0.09c-0.01-0.05-0.06-0.15-0.16-0.23C314.19,268,314.1,267.96,313.99,267.96z"/>
									</g>
								</g>
							</g>
						</g>
					</g>
					<g>
						<g>
							<g>
								<g>
									<g>
										<path class="st1" d="M317.84,268.41c-0.01,0-0.01-0.05-0.03-0.12c-0.02-0.08-0.07-0.19-0.19-0.27
											c-0.11-0.08-0.29-0.13-0.46-0.07c-0.17,0.06-0.32,0.24-0.32,0.45c0,0.21,0.14,0.4,0.31,0.46
											c0.17,0.07,0.35,0.02,0.46-0.06c0.12-0.08,0.17-0.19,0.19-0.27C317.83,268.46,317.83,268.41,317.84,268.41
											c0,0,0.01,0.05,0,0.13c-0.02,0.08-0.07,0.2-0.19,0.3c-0.12,0.1-0.32,0.15-0.52,0.08c-0.2-0.07-0.36-0.28-0.36-0.52
											c0-0.24,0.17-0.45,0.37-0.51c0.2-0.07,0.4-0.01,0.51,0.09c0.12,0.1,0.17,0.22,0.18,0.3
											C317.85,268.37,317.84,268.41,317.84,268.41z"/>
									</g>
									<g>
										<path class="st1" d="M317.31,269.03c-0.07,0-0.14-0.01-0.21-0.04c-0.21-0.07-0.42-0.3-0.41-0.59
											c0-0.29,0.21-0.52,0.42-0.58c0.24-0.08,0.47,0,0.59,0.1c0.15,0.13,0.2,0.29,0.21,0.35c0,0.03,0.01,0.1,0,0.14
											c0.01,0.05,0,0.11-0.01,0.14c-0.01,0.06-0.06,0.22-0.22,0.34C317.61,268.97,317.47,269.03,317.31,269.03z M317.32,267.99
											c-0.04,0-0.09,0.01-0.14,0.02c-0.13,0.04-0.27,0.19-0.27,0.38c0,0.19,0.13,0.34,0.26,0.39c0.16,0.06,0.31,0.01,0.39-0.05
											c0.11-0.08,0.15-0.18,0.17-0.23c0.01-0.04,0.02-0.07,0.02-0.09c0,0,0-0.01,0-0.01c0,0,0-0.01,0-0.01
											c0-0.02-0.01-0.05-0.02-0.09c-0.01-0.05-0.06-0.15-0.16-0.23C317.52,268.03,317.43,267.99,317.32,267.99z"/>
									</g>
								</g>
							</g>
						</g>
					</g>
					<g>
						<g>
							<g>
								<g>
									<path class="st1" d="M320.2,262.29c-0.01,0.82-0.68,1.47-1.49,1.46c-0.82-0.01-1.47-0.68-1.46-1.49s0.68-1.47,1.49-1.46
										S320.2,261.48,320.2,262.29z"/>
								</g>
							</g>
						</g>
					</g>
				</g>
				<g>
					<g>
						<g>
							<g>
								<g>
									<path class="st3" d="M318.76,263.09c0,0,0.01,0.01,0.01,0.03l-0.02,0c-0.02-0.09-0.02-0.39-0.01-0.75
										c0.01-0.43,0.04-0.78,0.06-0.78c0.02,0,0.03,0.35,0.02,0.78c-0.01,0.35-0.03,0.65-0.05,0.74l-0.02,0
										C318.75,263.1,318.76,263.09,318.76,263.09z"/>
								</g>
							</g>
						</g>
					</g>
					<g>
						<g>
							<g>
								<g>
									<path class="st3" d="M319.56,262.38c0,0.02-0.35,0.03-0.78,0.02c-0.43-0.01-0.78-0.04-0.78-0.06
										c0-0.02,0.35-0.03,0.78-0.02C319.21,262.33,319.56,262.36,319.56,262.38z"/>
								</g>
							</g>
						</g>
					</g>
				</g>
			</g>
		</g>
		<g>
			<g>
				<g>
					<path class="st1" d="M289.62,265.74c0,0.14-4.7,0.26-10.5,0.26c-5.8,0-10.5-0.12-10.5-0.26c0-0.14,4.7-0.26,10.5-0.26
						C284.92,265.48,289.62,265.6,289.62,265.74z"/>
				</g>
			</g>
		</g>
	</g>
	<g>
		<g>
			<g>
				<path class="st4" d="M319.97,336.19H202.79c-2.45,0-4.43-1.98-4.43-4.43v-45.32c0-2.45,1.98-4.43,4.43-4.43h117.18
					c2.45,0,4.43,1.98,4.43,4.43v45.32C324.4,334.21,322.42,336.19,319.97,336.19z"/>
			</g>
		</g>
		<g>
			<g>
				<path class="st3" d="M262.41,336.19h-60.07c-2.21,0-3.99-1.79-3.99-3.99v-46.1c0-2.21,1.79-3.99,3.99-3.99h60.07V336.19z"/>
			</g>
		</g>
		<g>
			<g>
				<g>
					<path class="st5" d="M262.56,336.61c-0.14,0-0.26-12.05-0.26-26.91c0-14.87,0.12-26.91,0.26-26.91s0.26,12.05,0.26,26.91
						C262.82,324.56,262.7,336.61,262.56,336.61z"/>
				</g>
			</g>
		</g>
		<g>
			<g>
				<g>
					<path class="st5" d="M319.97,336.19c0-0.02,0.31,0,0.9-0.12c0.57-0.13,1.46-0.44,2.27-1.29c0.4-0.42,0.76-0.98,0.98-1.66
						c0.24-0.68,0.21-1.47,0.21-2.33c-0.01-1.72-0.01-3.7-0.02-5.93c-0.02-8.94-0.05-21.85-0.08-37.81c0-0.51,0.01-0.99-0.09-1.46
						c-0.1-0.47-0.28-0.93-0.54-1.35c-0.51-0.83-1.32-1.5-2.27-1.81c-0.94-0.33-2.01-0.19-3.08-0.22c-1.07,0-2.15,0-3.23,0
						c-4.36,0-8.89,0.01-13.58,0.02c-9.39,0.01-19.41,0.02-29.97,0.02c-21.11,0.01-44.31,0.01-68.66,0.02
						c-1.44-0.01-2.85,0.78-3.57,2.01c-0.38,0.61-0.58,1.31-0.6,2.02l-0.01,2.25c0,3.01,0,5.99,0,8.96c0,5.93,0,11.78,0,17.52
						c0,5.74,0,11.38,0,16.9c0.04,1.31,0.75,2.55,1.82,3.28c0.53,0.36,1.15,0.6,1.78,0.69c0.62,0.08,1.33,0.03,2,0.05
						c2.7,0,5.37,0,8.01,0c21.11,0.02,40.11,0.04,56.08,0.06c15.95,0.03,28.87,0.06,37.81,0.08c4.45,0.02,7.92,0.04,10.28,0.05
						c1.17,0.01,2.06,0.02,2.67,0.03C319.66,336.17,319.97,336.19,319.97,336.19s-0.31,0.02-0.91,0.03
						c-0.62,0.01-1.51,0.01-2.67,0.03c-2.36,0.01-5.82,0.03-10.28,0.05c-8.94,0.02-21.85,0.05-37.81,0.08
						c-15.97,0.02-34.97,0.03-56.08,0.06c-2.64,0-5.31,0-8.01,0c-0.68-0.01-1.33,0.04-2.06-0.05c-0.71-0.1-1.4-0.36-2-0.77
						c-1.19-0.81-1.99-2.2-2.03-3.67c-0.01-5.53-0.01-11.17-0.02-16.92c0-5.74,0-11.59,0-17.52c0-2.97,0-5.95,0-8.96l0.01-2.27
						c0.03-0.8,0.25-1.59,0.68-2.27c0.82-1.39,2.4-2.27,4.02-2.26c24.35,0.01,47.56,0.01,68.66,0.02
						c10.55,0.01,20.58,0.02,29.97,0.02c4.69,0.01,9.22,0.01,13.58,0.01c1.09,0,2.17,0,3.23,0c0.53,0,1.06,0,1.59,0
						c0.54,0,1.1,0.07,1.61,0.25c1.04,0.34,1.92,1.07,2.47,1.98c0.28,0.45,0.47,0.95,0.58,1.47c0.11,0.52,0.09,1.05,0.09,1.54
						c-0.03,15.95-0.06,28.87-0.08,37.81c-0.01,2.23-0.02,4.21-0.02,5.93c0,0.85,0.02,1.68-0.24,2.37c-0.24,0.7-0.62,1.26-1.03,1.69
						c-0.84,0.86-1.75,1.15-2.33,1.27C320.28,336.23,319.97,336.19,319.97,336.19z"/>
				</g>
			</g>
		</g>
		<g>
			<g>
				<g>
					<path class="st1" d="M290.43,294.43c0,0.14-5.17,0.26-11.54,0.26c-6.37,0-11.54-0.12-11.54-0.26s5.17-0.26,11.54-0.26
						C285.26,294.17,290.43,294.29,290.43,294.43z"/>
				</g>
			</g>
		</g>
		<g>
			<g>
				<g>
					<path class="st5" d="M312.68,301.54c0,0.14-10.2,0.26-22.78,0.26c-12.58,0-22.78-0.12-22.78-0.26s10.2-0.26,22.78-0.26
						C302.48,301.28,312.68,301.4,312.68,301.54z"/>
				</g>
			</g>
		</g>
		<g>
			<g>
				<g>
					<path class="st5" d="M312.68,305.72c0,0.14-10.2,0.26-22.78,0.26c-12.58,0-22.78-0.12-22.78-0.26s10.2-0.26,22.78-0.26
						C302.48,305.45,312.68,305.57,312.68,305.72z"/>
				</g>
			</g>
		</g>
		<g>
			<g>
				<g>
					<g>
						<path class="st6" d="M307.89,326.27c-0.04-0.47-0.26-0.92-0.56-1.28c-0.3-0.35-0.69-0.64-1.14-0.75
							c-0.48-0.12-1-0.03-1.42,0.24c-0.25,0.16-0.45,0.38-0.59,0.63c-0.13-0.23-0.31-0.44-0.52-0.6c-0.4-0.29-0.92-0.41-1.4-0.32
							c-0.46,0.09-0.87,0.35-1.18,0.68c-0.32,0.34-0.56,0.78-0.63,1.25c-0.08,0.59,0.01,1.23,0.3,1.75
							c0.31,0.54,0.82,0.99,1.34,1.33c0.89,0.57,2.05,1.28,2.05,1.28s1.02-0.72,1.94-1.24c0.54-0.31,1.08-0.73,1.41-1.25
							C307.81,327.5,307.94,326.86,307.89,326.27z"/>
					</g>
					<g>
						<path class="st1" d="M304.14,330.64l-0.07-0.04c-0.01-0.01-1.18-0.72-2.05-1.28c-0.62-0.4-1.1-0.88-1.38-1.37
							c-0.29-0.52-0.41-1.19-0.32-1.83c0.07-0.46,0.3-0.93,0.67-1.31c0.25-0.27,0.68-0.61,1.25-0.72c0.52-0.1,1.07,0.03,1.5,0.34
							c0.17,0.12,0.32,0.28,0.45,0.46c0.14-0.2,0.32-0.37,0.53-0.5c0.44-0.28,1-0.38,1.51-0.25c0.45,0.11,0.87,0.38,1.21,0.79
							c0.34,0.4,0.55,0.88,0.59,1.35l0,0c0.06,0.64-0.1,1.3-0.42,1.81c-0.31,0.48-0.81,0.93-1.46,1.29
							c-0.9,0.51-1.92,1.23-1.93,1.23L304.14,330.64z M302.58,324.3c-0.1,0-0.2,0.01-0.3,0.03c-0.4,0.07-0.79,0.3-1.12,0.65
							c-0.33,0.35-0.54,0.76-0.6,1.18c-0.08,0.59,0.02,1.2,0.29,1.67c0.26,0.46,0.71,0.91,1.3,1.29c0.75,0.48,1.71,1.07,1.98,1.24
							c0.24-0.17,1.11-0.76,1.88-1.2c0.61-0.35,1.09-0.76,1.37-1.21c0.29-0.46,0.43-1.06,0.38-1.65l0,0
							c-0.04-0.42-0.22-0.84-0.53-1.21c-0.22-0.25-0.58-0.58-1.08-0.71c-0.44-0.11-0.94-0.03-1.32,0.22
							c-0.23,0.15-0.42,0.35-0.55,0.59l-0.11,0.2l-0.11-0.2c-0.12-0.22-0.29-0.41-0.48-0.55
							C303.29,324.41,302.94,324.3,302.58,324.3z"/>
					</g>
				</g>
			</g>
		</g>
		<g>
			<g>
				<g>
					<g>
						<g>
							<g>
								<g>
									<g>
										<path class="st1" d="M318.4,329.26c0,0-0.04,0-0.1,0.01c-0.07,0-0.17,0-0.3,0c-0.26,0-0.64,0-1.1,0
											c-0.94-0.01-2.23-0.01-3.68-0.02l-0.03,0l0-0.03c-0.03-0.19-0.05-0.4-0.08-0.61c-0.23-1.79-0.43-3.38-0.56-4.43l0.02,0.02
											c-0.41-0.01-0.75-0.01-0.98-0.02c-0.11,0-0.2-0.01-0.26-0.01c-0.06,0-0.09,0-0.09-0.01c0,0,0.03,0,0.09-0.01
											c0.07,0,0.15,0,0.26,0c0.23,0,0.57,0,0.98,0h0.02l0,0.02c0.14,1.04,0.35,2.64,0.59,4.42c0.03,0.21,0.05,0.42,0.08,0.61
											l-0.03-0.03c1.45,0.02,2.74,0.03,3.68,0.05c0.46,0.01,0.83,0.02,1.1,0.02c0.12,0,0.22,0.01,0.3,0.01
											C318.37,329.25,318.4,329.25,318.4,329.26z"/>
									</g>
									<g>
										<path class="st1" d="M316.9,329.34l-3.71-0.02c-0.04,0-0.07-0.03-0.07-0.07l-0.63-4.98c-0.38-0.01-0.68-0.01-0.9-0.02
											l-0.26-0.01c-0.1,0-0.16-0.01-0.16-0.08c0-0.07,0.06-0.08,0.16-0.08l1.25,0c0.04,0,0.09,0.03,0.09,0.06l0,0.02l0.6,4.53
											c0.02,0.14,0.04,0.28,0.05,0.41l4.98,0.08c0.12,0,0.18,0.01,0.18,0.08c0,0.08-0.05,0.08-0.18,0.08l-0.3,0H316.9z"/>
									</g>
								</g>
							</g>
						</g>
					</g>
					<g>
						<g>
							<g>
								<g>
									<g>
										<path class="st1" d="M313.09,328.13c0,0,0.01,0,0.03,0c0.02,0,0.05,0,0.08,0c0.07,0,0.17,0,0.3,0c0.26,0,0.64,0,1.11,0
											c0.95,0.01,2.28,0.01,3.82,0.02l-0.03,0.03c0.12-0.64,0.25-1.34,0.38-2.05c0.07-0.37,0.14-0.73,0.2-1.08l0.03,0.04
											c-1.79-0.02-3.37-0.04-4.5-0.05c-0.56-0.01-1.02-0.02-1.33-0.02c-0.15,0-0.27-0.01-0.36-0.01c-0.04,0-0.07,0-0.09,0
											c-0.02,0-0.03,0-0.03,0s0.01,0,0.03,0c0.02,0,0.06,0,0.09,0c0.09,0,0.21,0,0.36,0c0.32,0,0.77,0,1.33,0
											c1.14,0.01,2.71,0.02,4.5,0.03l0.04,0l-0.01,0.04c-0.06,0.35-0.13,0.71-0.2,1.08c-0.13,0.72-0.26,1.41-0.38,2.05
											l-0.01,0.03l-0.03,0c-1.54-0.02-2.87-0.04-3.82-0.05c-0.47-0.01-0.84-0.02-1.11-0.02c-0.13,0-0.22-0.01-0.3-0.01
											c-0.03,0-0.06,0-0.08,0C313.09,328.13,313.09,328.13,313.09,328.13z"/>
									</g>
									<g>
										<path class="st1" d="M318.44,328.29h-0.03l-5.3-0.08c-0.03,0-0.1-0.01-0.1-0.08c0-0.02,0.01-0.04,0.02-0.05
											c0.02-0.02,0.05-0.02,0.08-0.02l0.37,0c0.26,0,0.64,0,1.11,0l3.73,0.02l0.54-2.92l-5.77-0.08c-0.12,0-0.22-0.01-0.29-0.01
											l-0.09,0c-0.03,0-0.1,0-0.1-0.08c0-0.04,0.02-0.08,0.11-0.08l0.45,0l1.33,0l4.54,0.03c0.02,0,0.04,0.01,0.06,0.03
											c0.01,0.02,0.02,0.04,0.02,0.06l-0.21,1.12c-0.09,0.46-0.17,0.91-0.25,1.35l-0.14,0.73
											C318.51,328.27,318.48,328.29,318.44,328.29z"/>
									</g>
								</g>
							</g>
						</g>
					</g>
					<g>
						<g>
							<g>
								<g>
									<g>
										<path class="st1" d="M314.51,330.62c-0.01,0-0.01-0.05-0.03-0.12c-0.02-0.08-0.07-0.19-0.19-0.27
											c-0.11-0.08-0.29-0.13-0.46-0.07c-0.17,0.06-0.32,0.24-0.32,0.45c0,0.21,0.14,0.4,0.31,0.46
											c0.17,0.07,0.35,0.02,0.46-0.06c0.12-0.08,0.17-0.19,0.19-0.27C314.5,330.67,314.5,330.62,314.51,330.62
											c0,0,0.01,0.05,0,0.13c-0.02,0.08-0.07,0.2-0.19,0.3c-0.12,0.1-0.32,0.15-0.52,0.08c-0.2-0.07-0.36-0.28-0.36-0.52
											c0-0.24,0.17-0.45,0.37-0.51c0.2-0.07,0.4-0.01,0.51,0.09c0.12,0.1,0.17,0.22,0.18,0.3
											C314.52,330.58,314.51,330.62,314.51,330.62z"/>
									</g>
									<g>
										<path class="st1" d="M313.98,331.24c-0.07,0-0.14-0.01-0.21-0.04c-0.21-0.07-0.42-0.3-0.41-0.59
											c0-0.29,0.21-0.52,0.42-0.58c0.24-0.08,0.47,0,0.59,0.1c0.16,0.13,0.2,0.29,0.21,0.35c0.01,0.04,0.01,0.1,0,0.14
											c0.01,0.05,0,0.11-0.01,0.14c-0.01,0.06-0.06,0.22-0.22,0.34C314.27,331.18,314.14,331.24,313.98,331.24z M313.99,330.21
											c-0.04,0-0.09,0.01-0.14,0.03c-0.14,0.05-0.27,0.19-0.27,0.38c0,0.19,0.13,0.34,0.26,0.39c0.16,0.06,0.31,0.01,0.39-0.05
											c0.11-0.08,0.15-0.18,0.17-0.23c0.01-0.04,0.02-0.07,0.02-0.09c0,0,0-0.01,0-0.02c0,0,0-0.01,0-0.02
											c0-0.02-0.01-0.05-0.02-0.09c-0.01-0.05-0.06-0.15-0.16-0.23C314.19,330.25,314.1,330.21,313.99,330.21z"/>
									</g>
								</g>
							</g>
						</g>
					</g>
					<g>
						<g>
							<g>
								<g>
									<g>
										<path class="st1" d="M317.84,330.66c-0.01,0-0.01-0.05-0.03-0.12c-0.02-0.08-0.07-0.19-0.19-0.27
											c-0.11-0.08-0.29-0.13-0.46-0.07c-0.17,0.06-0.32,0.24-0.32,0.45c0,0.21,0.14,0.4,0.31,0.46
											c0.17,0.07,0.35,0.02,0.46-0.06c0.12-0.08,0.17-0.19,0.19-0.27C317.83,330.7,317.83,330.66,317.84,330.66
											c0,0,0.01,0.05,0,0.13c-0.02,0.08-0.07,0.2-0.19,0.3c-0.12,0.1-0.32,0.15-0.52,0.08c-0.2-0.07-0.36-0.28-0.36-0.52
											c0-0.24,0.17-0.45,0.37-0.51c0.2-0.07,0.4-0.01,0.51,0.09c0.12,0.1,0.17,0.22,0.18,0.3
											C317.85,330.61,317.84,330.66,317.84,330.66z"/>
									</g>
									<g>
										<path class="st1" d="M317.31,331.27c-0.07,0-0.14-0.01-0.21-0.04c-0.21-0.07-0.42-0.3-0.41-0.59
											c0-0.26,0.18-0.51,0.42-0.58c0.24-0.09,0.47,0,0.59,0.1c0.15,0.13,0.2,0.29,0.21,0.35c0.01,0.05,0.01,0.1,0,0.14
											c0.01,0.05,0,0.11-0.01,0.14c-0.01,0.06-0.06,0.22-0.22,0.34C317.61,331.21,317.47,331.27,317.31,331.27z M317.32,330.24
											c-0.04,0-0.09,0.01-0.14,0.03c-0.13,0.04-0.27,0.19-0.27,0.38c0,0.19,0.13,0.34,0.26,0.39c0.16,0.06,0.31,0.01,0.39-0.05
											c0.11-0.08,0.15-0.18,0.17-0.23c0.01-0.04,0.02-0.07,0.02-0.09c0,0,0-0.01,0-0.01c0,0,0-0.01,0-0.01
											c0-0.02-0.01-0.05-0.02-0.09c-0.01-0.05-0.06-0.15-0.16-0.23C317.52,330.28,317.43,330.24,317.32,330.24z"/>
									</g>
								</g>
							</g>
						</g>
					</g>
					<g>
						<g>
							<g>
								<g>
									<path class="st1" d="M320.2,324.54c-0.01,0.82-0.68,1.47-1.49,1.46c-0.82-0.01-1.47-0.68-1.46-1.49s0.68-1.47,1.49-1.46
										C319.55,323.06,320.2,323.72,320.2,324.54z"/>
								</g>
							</g>
						</g>
					</g>
				</g>
				<g>
					<g>
						<g>
							<g>
								<g>
									<path class="st3" d="M318.76,325.34c0,0,0.01,0.01,0.01,0.03l-0.02,0c-0.02-0.09-0.02-0.39-0.01-0.75
										c0.01-0.43,0.04-0.78,0.06-0.78c0.02,0,0.03,0.35,0.02,0.78c-0.01,0.36-0.03,0.65-0.05,0.74l-0.02,0
										C318.75,325.35,318.76,325.34,318.76,325.34z"/>
								</g>
							</g>
						</g>
					</g>
					<g>
						<g>
							<g>
								<g>
									<path class="st3" d="M319.56,324.63c0,0.02-0.35,0.03-0.78,0.02c-0.43-0.01-0.78-0.04-0.78-0.06
										c0-0.02,0.35-0.03,0.78-0.02C319.21,324.58,319.56,324.61,319.56,324.63z"/>
								</g>
							</g>
						</g>
					</g>
				</g>
			</g>
		</g>
		<g>
			<g>
				<g>
					<path class="st1" d="M289.62,327.98c0,0.14-4.7,0.26-10.5,0.26c-5.8,0-10.5-0.12-10.5-0.26c0-0.14,4.7-0.26,10.5-0.26
						C284.92,327.72,289.62,327.84,289.62,327.98z"/>
				</g>
			</g>
		</g>
	</g>
	<g>
		<g>
			<g>
				<g>
					<path class="st1" d="M211.74,73.98c0,0.09-2.92,0.18-6.52,0.21c-3.6,0.03-6.52-0.02-6.52-0.1c0-0.09,2.92-0.18,6.52-0.21
						C208.81,73.85,211.74,73.89,211.74,73.98z"/>
				</g>
			</g>
		</g>
		<g>
			<g>
				<g>
					<path class="st1" d="M211.76,77.32c0,0.09-2.92,0.18-6.52,0.21c-3.6,0.03-6.52-0.02-6.52-0.1c0-0.09,2.92-0.18,6.52-0.21
						C208.84,77.19,211.76,77.23,211.76,77.32z"/>
				</g>
			</g>
		</g>
		<g>
			<g>
				<g>
					<path class="st1" d="M211.79,80.66c0,0.09-2.92,0.18-6.52,0.21c-3.6,0.03-6.52-0.02-6.52-0.1c0-0.09,2.92-0.18,6.52-0.21
						C208.87,80.52,211.79,80.57,211.79,80.66z"/>
				</g>
			</g>
		</g>
	</g>
	<g>
		<g>
			<g>
				<path class="st1" d="M251.17,349.6c0.01,1.23-0.97,2.23-2.2,2.24c-1.23,0.01-2.23-0.98-2.24-2.2c-0.01-1.23,0.98-2.23,2.2-2.24
					C250.16,347.39,251.16,348.37,251.17,349.6z"/>
			</g>
		</g>
		<g>
			<g>
				<path class="st5" d="M263.61,349.49c0.01,1.23-0.98,2.23-2.2,2.24c-1.23,0.01-2.23-0.98-2.24-2.2c-0.01-1.23,0.98-2.23,2.2-2.24
					C262.59,347.28,263.6,348.27,263.61,349.49z"/>
			</g>
		</g>
		<g>
			<g>
				<path class="st5" d="M276.04,349.39c0.01,1.23-0.98,2.23-2.2,2.24c-1.23,0.01-2.23-0.98-2.24-2.2c-0.01-1.23,0.98-2.23,2.2-2.24
					C275.03,347.18,276.03,348.16,276.04,349.39z"/>
			</g>
		</g>
	</g>
	<g>
		<path class="st0" d="M262.41,149.46h-60.07c-2.21,0-3.99-1.79-3.99-3.99v-46.1c0-2.21,1.79-3.99,3.99-3.99h60.07V149.46z"/>
	</g>
	<g>
		<g>
			<path d="M262.56,149.88c-0.14,0-0.26-12.05-0.26-26.91c0-14.87,0.12-26.91,0.26-26.91s0.26,12.05,0.26,26.91
				C262.82,137.83,262.7,149.88,262.56,149.88z"/>
		</g>
	</g>
	<g>
		<g>
			<path class="st0" d="M290.43,107.7c0,0.14-5.17,0.26-11.54,0.26c-6.37,0-11.54-0.12-11.54-0.26s5.17-0.26,11.54-0.26
				C285.26,107.44,290.43,107.55,290.43,107.7z"/>
		</g>
	</g>
	<g>
		<g>
			<g>
				<path class="st6" d="M307.89,139.53c-0.04-0.47-0.26-0.92-0.56-1.28c-0.3-0.35-0.69-0.64-1.14-0.75c-0.48-0.12-1-0.03-1.42,0.24
					c-0.25,0.16-0.45,0.38-0.59,0.63c-0.13-0.23-0.31-0.44-0.52-0.6c-0.4-0.29-0.92-0.41-1.4-0.32c-0.46,0.09-0.87,0.35-1.18,0.68
					c-0.32,0.34-0.56,0.78-0.63,1.25c-0.08,0.59,0.01,1.23,0.3,1.75c0.31,0.54,0.82,0.99,1.34,1.33c0.89,0.57,2.05,1.28,2.05,1.28
					s1.02-0.72,1.94-1.24c0.54-0.31,1.08-0.73,1.41-1.25C307.81,140.77,307.94,140.12,307.89,139.53z"/>
			</g>
			<g>
				<path class="st1" d="M304.14,143.91l-0.07-0.04c-0.01-0.01-1.18-0.72-2.05-1.28c-0.62-0.4-1.1-0.87-1.38-1.37
					c-0.29-0.52-0.41-1.19-0.32-1.83c0.07-0.46,0.3-0.93,0.67-1.31c0.25-0.27,0.68-0.61,1.25-0.72c0.52-0.1,1.07,0.03,1.5,0.34
					c0.17,0.12,0.32,0.28,0.45,0.46c0.14-0.2,0.32-0.37,0.53-0.5c0.44-0.28,1-0.38,1.51-0.25c0.57,0.14,0.97,0.51,1.21,0.79
					c0.34,0.4,0.55,0.88,0.59,1.35c0.06,0.64-0.1,1.3-0.42,1.81c-0.31,0.48-0.81,0.93-1.46,1.29c-0.9,0.51-1.92,1.23-1.93,1.23
					L304.14,143.91z M302.58,137.56c-0.1,0-0.2,0.01-0.3,0.03c-0.4,0.07-0.79,0.3-1.12,0.65c-0.33,0.35-0.54,0.76-0.6,1.18
					c-0.08,0.59,0.02,1.2,0.29,1.67c0.26,0.46,0.71,0.91,1.3,1.29c0.75,0.48,1.71,1.07,1.98,1.24c0.24-0.17,1.11-0.76,1.88-1.2
					c0.61-0.35,1.08-0.76,1.37-1.21c0.29-0.46,0.43-1.06,0.38-1.65l0,0c-0.04-0.41-0.22-0.84-0.53-1.21
					c-0.22-0.25-0.58-0.58-1.08-0.71c-0.44-0.11-0.94-0.03-1.32,0.22c-0.23,0.15-0.42,0.35-0.55,0.59l-0.11,0.2l-0.11-0.2
					c-0.12-0.22-0.29-0.41-0.48-0.55C303.29,137.68,302.94,137.56,302.58,137.56z"/>
			</g>
		</g>
	</g>
	<g>
		<g>
			<path class="st0" d="M289.62,141.25c0,0.14-4.7,0.26-10.5,0.26c-5.8,0-10.5-0.12-10.5-0.26c0-0.14,4.7-0.26,10.5-0.26
				C284.92,140.99,289.62,141.11,289.62,141.25z"/>
		</g>
	</g>
	<g>
		<g>
			<g>
				<path class="st5" d="M229.78,317.06c-0.14,0-0.26-1.09-0.26-2.44c0-1.35,0.12-2.44,0.26-2.44c0.14,0,0.26,1.09,0.26,2.44
					C230.04,315.97,229.93,317.06,229.78,317.06z"/>
			</g>
		</g>
	</g>
	<text transform="matrix(1 0 0 1 239.1729 80.1902)" class="st7 st8">WISHLIST</text>
	<g>
		<path class="st9" d="M249.98,294.34c-0.26-0.33-0.55-0.65-0.85-0.94c-2.61-2.74-6.17-4.68-10.24-5.47
			c-2.71-0.5-5.64-0.5-8.65,0.12c-3.56,0.76-7.26,2.33-10.94,4.97c-0.86,0.62-1.7,1.27-2.49,1.91c-3.38,2.81-6,5.88-7.78,9.04
			c-1.62,2.84-2.52,5.74-2.68,8.56c-0.16,2.68,0.37,5.29,1.66,7.7c2.53,4.72,8.2,8,13.87,10.08c2.9,1.08,6,1.93,9.04,2.82
			c1.34,0.41,2.89,0.95,4.57,0.43c0.13,0.02,0.31,0.09,0.45,0.01l0.02-0.01c0.05-0.03,0.05-0.19,0.13-0.21
			c0.23-0.12,0.11-0.46-0.12-0.4c-0.03-0.11-0.16-0.19-0.3-0.18c-1.24-0.86-2.27-1.96-3.53-2.81c-2-1.34-3.8-2.63-5.21-4.42
			c-1.74-2.2-3.08-4.94-2.72-7.98l0.01-0.03c0.13-0.94,0.39-1.91,0.89-2.89c0.12-0.27,0.27-0.55,0.45-0.83
			c0.62-1.02,1.41-1.88,2.3-2.54c0.23-0.18,0.49-0.36,0.74-0.51c2.08-1.28,4.59-1.74,6.94-1.52c0.31,0.03,0.6,0.07,0.9,0.13
			c0.42,0.08,0.84,0.2,1.21,0.34c1.89,0.63,2.88,2.07,4.16,3.27c1.87,1.77,2.11,4.45,3.26,6.63l0.03,0.07
			c0.11,0.22,0.41,0.34,0.52,0.54c0.23,0.39,0.51,0.73,0.61,1.19c0.02,0.16,0.12,0.3,0.14,0.46c0.26,1.29,0.54,2.57,1.07,3.74
			c0.08,0.15,0.49,0.13,0.66-0.05c1.92-1.7,2.48-3.8,3.13-5.74c0.3-0.88,0.62-1.75,0.89-2.59c0.01-0.03,0.03-0.06,0.02-0.08
			c0.74-2.26,1.33-4.41,1.5-6.74C254.13,304.5,253.58,298.68,249.98,294.34z"/>
		<path class="st10" d="M214.37,304.24c-1.89,0.35-3.58-0.13-5.34-0.27c-1.62,2.84-2.52,5.74-2.68,8.56
			c0.27,0.05,0.52,0.09,0.79,0.14c1.31,0.25,3.31,0.67,4.86-0.14c1.28-0.67,1.27-2.43,1.44-3.3c0.24-1.57,1.64-3.26,1.34-4.74
			C214.73,304.35,214.58,304.2,214.37,304.24z"/>
		<path class="st10" d="M219.29,293.02c-0.86,0.62-1.7,1.27-2.49,1.91c0.41,0.38,0.77,0.79,1.13,1.2c0.91,1.06,1.85,0.82,3.56,0.08
			c2.69-1.19,5.38-2.37,7.78-4.11c1.3-0.96,1.2-2.73,0.96-4.05C226.67,288.8,222.97,290.38,219.29,293.02z"/>
		<path class="st10" d="M238.89,287.93c-0.08,0.19-0.13,0.38-0.17,0.58c-0.32,1.19-1.12,3.22-0.28,4.1c0.57,0.57,1.8,0.89,2.47,1.45
			c0.65,0.56,1.22,1.32,1.99,1.77c1.05,0.6,1.95,0.45,3.33-0.23c0.7-0.36,1.83-1.19,2.9-2.2
			C246.52,290.66,242.96,288.71,238.89,287.93z"/>
		<path class="st11" d="M240.99,291.35c-0.18-0.05-0.34-0.1-0.52-0.15c-0.38-0.1-0.75-0.2-1.15-0.29c-0.99-0.2-1.97-0.33-3.01-0.38
			c-0.41,0-0.86,0-1.29,0.02c-2.27,0.06-4.6,0.53-6.91,1.29c-0.45,0.15-0.9,0.32-1.34,0.49c-3.09,1.21-6.14,2.95-8.96,5.08
			c-0.26,0.18-0.49,0.36-0.74,0.56c-0.61,0.47-1.23,0.98-1.81,1.5c-0.02,0.01-0.01,0.03-0.03,0.06c-1,0.91-1.78,1.91-2.44,2.91
			c-0.12,0.21-0.26,0.41-0.38,0.62c-0.37,0.6-0.7,1.2-1.03,1.82c-0.39,0.72-0.67,1.43-0.87,2.13c-0.11,0.25-0.17,0.47-0.22,0.71
			c-0.86,3.66,0.27,7.09,1.77,10.09c0.1,0.25,0.2,0.47,0.32,0.69c0,0,0,0,0.01,0.02l2.55,4.88c0.01,0.02,0.01,0.02,0.01,0.02
			c0.04,0.08,0.14,0.14,0.26,0.18c0.08,0.04,0.17,0.08,0.24,0.15c0.05,0.04,0.07,0.07,0.1,0.12c0.11,0.22,0.09,0.48,0.23,0.64
			c0.01,0.02-0.18,0.14-0.17,0.15c0,0,0,0,0.01,0.02c0.04,0.08,0.41-0.04,0.47,0.03c2.27,2.13,4.47,4.19,7.89,5.47
			c0,0,0.08-0.02,0.11-0.03c0.03,0,0.16-0.04,0.2-0.04c0.1,0.01,0.38-0.07,0.42-0.01l0.29,0.55c0.05,0.1,0.03,0.24,0.16,0.28
			c0.27,0.12,0.69,0.33,0.96,0.45c0.93,0.43,6.33,2.14,9.86,2.22l0.02-0.01c1.04-0.55,2.05-0.7,2.23-1.71
			c0.44-2.66-0.94-5.01-2.04-7.11l-1.28-2.45c-0.01-0.02-0.01-0.02-0.02-0.03c-1.27-2.42-2.17-5.01-1.87-8
			c0.26-3.11,3.76-0.2,4.18,0.16c1.22,1.04,2.11,2.36,2.92,3.68c0.15,0.24,0.29,0.48,0.42,0.73c0.17,0.34,0.33,0.68,0.47,1.05
			c0.89,2.15,1.28,4.54,2.48,6.55c0.71,1.18,1.91,2.02,3.79,1.59c1.87-0.44,2.89-2.85,3.39-4.03c0.82-1.94,1.29-4.31,1.51-6.78
			c0.02-0.03,0.01-0.05,0-0.06c0.08-0.81,0.13-1.62,0.14-2.44c0-0.28,0.01-0.54-0.01-0.8c0.03-3.74-0.41-7.41-1.07-10.03
			c-0.02-0.03-0.03-0.05-0.01-0.08c-0.01-0.08-0.05-0.15-0.06-0.23c-0.08-0.26,0.06-0.65-0.01-0.91c-0.02-0.03,0.17-0.15,0.15-0.19
			l-2.4-4.59C247.35,294.96,244.91,292.58,240.99,291.35z"/>
		<g>
			<g>
				<path class="st12" d="M230.07,303.91c0.1,0.03,0.08,0.21-0.1,0.26c-0.15,0.06-0.27,0.1-0.42,0.16c-0.15,0.06-0.27,0.1-0.41,0.17
					c-0.35,0.12-0.68,0.27-1.02,0.43c-0.22,0.09-0.46,0.2-0.66,0.31c0.3-0.05,0.58-0.07,0.85-0.06c0.11-0.02,0.22-0.03,0.32,0
					c0.02-0.01,0.05-0.03,0.06-0.01c0.22,0.02,0.46,0.04,0.66,0.08c0.03,0,0.04,0.02,0.06,0.01c0.15,0.05,0.14,0.21,0.05,0.32
					c-0.05,0.07-0.18,0.16-0.33,0.15c-1.17-0.05-2.53,0.26-3.93,0.73c-7.19,4.46-9.58,11.58-9.14,17.96c-0.03,0-0.04-0.02-0.05-0.04
					c-0.14-0.16-0.3-0.35-0.47-0.51c-0.03-0.05-0.04-0.09-0.09-0.12c-0.07-0.07-0.15-0.11-0.23-0.16
					c-0.15-5.89,2.74-12.46,8.96-16.73c-2.54,1.01-5.09,2.58-6.77,3.96c-2.87,2.42-4.22,4.99-5,7.67c-0.11-0.22-0.23-0.43-0.33-0.68
					c0.87-2.86,2.55-5.63,5.69-7.95c2.08-1.56,5.81-3.82,8.9-4.51c0.93-0.49,1.91-0.93,3-1.33c0.09-0.05,0.2-0.08,0.29-0.11
					C230,303.9,230.06,303.89,230.07,303.91z"/>
				<path class="st12" d="M230.18,305.66c-0.09,0.11-0.17,0.24-0.24,0.38c-0.82,1.2-1.21,2.44-1.3,3.68
					c-0.05,0.37-0.04,0.7-0.04,1.06c0.05,2.18,0.73,4.36,1.38,6.12c0.93,2.4,2.62,4.48,4.88,5.4l0.45,0.87
					c-3.63-0.12-5.35-4.03-6.14-6.38c-0.48-1.49-1.17-3.47-1.36-5.47c-0.04-0.53-0.01-1.1,0.03-1.63c0.08-0.93,0.35-1.84,0.87-2.71
					c-0.74,0.73-1.36,1.52-1.84,2.34c-1.04,1.69-1.59,3.57-1.78,5.35c-0.17,1.38-0.13,2.75,0.03,3.96
					c0.84,6.18,6.18,8.49,12.5,10.29c0.21,0.06-0.02,0.35-0.24,0.34c-7.11-0.37-12.79-4.9-13.15-10.86
					c-0.02-0.26-0.04-0.53-0.04-0.81l0.01-0.03c-0.09-2.61,0.17-6.06,1.97-8.83c0.39-0.61,0.88-1.2,1.43-1.73
					c-0.68,0.29-1.27,0.68-1.74,1.19c-3.45,3.42-3.18,11.23-3.03,13.83c0.14,3.16,0.88,6.2,2.27,8.91
					c-0.14-0.03-0.11-0.18-0.16-0.28l-0.29-0.55c-0.03-0.07-0.32,0.02-0.42,0.01c-1.53-3.43-2.26-7.24-1.9-11.53
					c0.22-2.52,0.33-8.23,3.44-10.81c0.62-0.58,1.23-1.29,2.18-1.51c0.38-0.3,0.6-0.9,1.07-1.14l0.11-0.06
					c0.05-0.02,0.27,0.23,0.32,0.21c0.12-0.06,0.26,0.1,0.33,0.13c0.01-0.03,0.05,0.05,0.08,0.03
					C230.06,305.24,230.31,305.5,230.18,305.66z"/>
			</g>
			<g>
				<path class="st12" d="M250.88,302.68l0.03,0c-0.01,0.05,0,0.06,0.02,0.1c0.08,0.26,0.14,0.55,0.21,0.8
					c0.01,0.08,0.05,0.15,0.06,0.23c-0.01-0.02-0.03,0-0.04-0.02c-4.85-3.16-11.31-4.45-18.22-1.45c-1.19,0.88-2.2,1.83-2.81,2.83
					c-0.2,0.3-0.67,0.25-0.54-0.08c0.22-0.54,0.63-1.05,1.11-1.56c-0.21,0.11-0.41,0.23-0.63,0.37c-0.32,0.19-0.63,0.37-0.93,0.59
					c-0.24,0.15-0.51,0.33-0.77,0.51c-0.13,0.09-0.28,0.04-0.25-0.08c-0.01-0.02,0.21,0.28,0.24,0.23c0.28-0.21,0.7-0.07,1-0.23
					l0.07-0.04c-0.05-1.9,1.25-1.23,1.99-1.62c2.33-2.15,6.21-4.07,8.7-4.9c3.34-1.13,6.26-1.14,8.87-0.43
					c0.13,0.19,0.22,0.36,0.33,0.56c-2.4-0.68-5.05-0.9-8.29-0.03c-2.11,0.6-4.84,1.77-7.12,3.28
					C240.1,299.42,246.24,300.09,250.88,302.68z"/>
				<path class="st12" d="M252.29,313.92c0.02,0.27,0.01,0.53,0.01,0.8c-1.36-2.03-3.2-3.81-5.2-5.38c-2.23-1.73-9.3-7-14.14-5.11
					c-0.3,0.11-0.63,0.27-0.91,0.46c0.38-0.07,0.75-0.14,1.13-0.16c4.08-0.34,7.81,2.06,10.16,3.9c3.6,2.88,4.74,7.88,3.29,12.8
					c-0.43,1.44-1.05,2.85-1.91,4.21c-0.11,0.19-0.48,0.21-0.39-0.01c0.73-2.17,1.35-4.26,1.66-6.27c0.56-3.74,0.01-7.11-2.99-9.86
					c-2.23-2.06-5.66-3.97-9.55-3.92c-0.67,0.01-1.35,0.07-2.05,0.2c0.73,0.04,1.39,0.23,2.03,0.49c1.75,0.75,3.15,2.23,4.24,3.65
					c0.56,0.66,1.01,1.32,1.43,1.89c1.43,1.89,3.37,5.37,1.9,8.28c-0.13-0.37-0.29-0.72-0.46-1.06c0.62-2.38-0.48-4.53-1.8-6.5
					c-0.65-0.96-1.37-2-2.28-2.95c-0.9-1.04-1.97-1.97-3.26-2.57c-0.96-0.48-2.02-0.75-3.24-0.77c-0.16-0.02-0.22-0.06-0.37-0.06
					c-0.2,0.02,0.11-0.44,0.15-0.37l-0.03-0.05l-0.04-0.08l-0.04-0.07c-0.02-0.03-0.16-0.19-0.15-0.28c0-0.06-0.15-0.16-0.1-0.18
					l0.02-0.01c0.02-0.01,0.02-0.01,0.05-0.02c0.02-0.01,0.11,0.05,0.15,0.05c0.23-0.12,0.52-0.13,0.79-0.19
					c0.32-0.06,0.54-0.27,0.82-0.35c0.38-0.35,0.68-0.79,1.08-1l0.03-0.01c4.06-2.12,9.76,1.84,12.16,3.25
					C247.7,308.52,250.41,311.18,252.29,313.92z"/>
			</g>
			<g>
				<path class="st12" d="M241,291.35c-2.84,4.35-7.18,8.43-12.08,11.16c-3.53,1.95-7.06,3.18-10.84,3.47
					c-2.63,0.23-5.33,0.36-7.81,1.74c0.05-0.24,0.11-0.46,0.22-0.71c0.49-0.26,0.98-0.45,1.49-0.61c4.06-1.23,7.96-0.65,12.04-2.17
					c6.79-2.55,12.7-7.53,16.45-13.04C240.65,291.26,240.82,291.29,241,291.35z"/>
				<path class="st12" d="M236.31,290.52c-1.96,3.6-4.75,7.25-8.21,9.18c-3.65,2.06-6.63,1.57-10.37,2.1
					c-1.82,0.25-3.62,0.66-5.34,1.26c0.12-0.21,0.26-0.41,0.38-0.62c3.36-0.99,6.29-1.08,9.7-1.46c6.74-0.73,9.88-5.58,12.54-10.44
					C235.46,290.53,235.9,290.53,236.31,290.52z"/>
				<path class="st12" d="M228.1,291.84c-1.01,2.08-2.66,4.07-4.87,5.1c-2.17,1-4.29,1.3-6.17,1.03c0.25-0.19,0.48-0.38,0.74-0.56
					c2.67,0.24,5.66-0.6,7.65-3.06c0.53-0.68,0.97-1.36,1.31-2.02C227.21,292.16,227.65,291.99,228.1,291.84z"/>
			</g>
		</g>
		<g>
			<path class="st13" d="M233.59,304.4c0.83,1.6-0.29,3.83-2.5,4.99c-2.22,1.16-4.69,0.8-5.52-0.79c-0.83-1.59,0.29-3.83,2.51-4.99
				C230.29,302.45,232.76,302.8,233.59,304.4z"/>
			<path class="st14" d="M232.42,304.77c0.58,1.11-0.2,2.65-1.74,3.46c-1.53,0.8-3.25,0.56-3.83-0.55c-0.58-1.1,0.2-2.65,1.74-3.46
				C230.13,303.42,231.85,303.66,232.42,304.77z"/>
		</g>
	</g>
	<g>
		<path class="st15" d="M246.13,257.62c0.51-2.05,0.73-4.14,0.86-6.23c0.27-4.2,0.2-8.48,1.62-12.54c1.12-3.19,2.97-6.24,3.32-9.61
			c0.14-1.34-0.24-2.66-1.01-3.82c-1.41-2.1-3.26-3.49-5.99-4.03c-1.48-0.29-2.96,0.22-4.24,0.87c-3.44,1.74-5.73,4.92-8.74,7.14
			c-6.98,5.15-16.84,6.43-22.84,12.75c-2.63,2.78-4.07,6.38-3.86,10c0.2,3.41,2.05,6.56,4.44,9.18c2.79,3.06,6.41,5.46,10.35,7.26
			c4.09,1.86,8.47,2.35,12.88,1.08c4.11-1.18,8.35-3.61,10.88-6.74C245.03,261.42,245.68,259.43,246.13,257.62z"/>
		<path class="st16" d="M241.17,261.4c2.85-3.95,2.88-7.54,1.9-12c-0.34-1.56-0.54-3.11,0.07-4.62c0.87-2.16,2.22-4.18,3.38-6.23
			c1.94-3.41,5.68-8.98,2.62-12.78c-5.11-6.32-12.1,1.02-15.36,4.62c-0.09,0.1-0.18,0.19-0.27,0.29c-0.02,0.02-0.04,0.04-0.07,0.06
			c-1.57,1.35-3.03,2.83-4.86,3.91c-2.7,1.59-6.05,2.09-8.93,3.38c-5.04,2.25-10.02,6.75-10.79,11.9
			c-1.26,8.4,8.82,14.83,16.83,16.9c3.84,0.99,8.18,0.56,11.48-1.5C238.8,264.3,240.1,262.89,241.17,261.4z"/>
		<path class="st17" d="M234.92,255.46c-3.58,4.41-9.56,6-13.39,3.57c-2.37-1.5-3.37-4.14-2.9-7.05l-0.01,0
			c0.09-1.55,1.07-3.62,2.44-5.32c3.58-4.41,9.56-6.01,13.4-3.59c1.22,0.77,2.08,1.88,2.56,3.16
			C238.02,248.93,237.34,252.46,234.92,255.46z"/>
		<path class="st18" d="M232.06,246.12c0.28,0.85-0.89,1.89-2.6,2.33c-1.71,0.44-3.33,0.11-3.61-0.74c-0.28-0.85,0.89-1.89,2.6-2.33
			C230.17,244.94,231.78,245.27,232.06,246.12z"/>
		<path class="st19" d="M234.92,255.46c-3.58,4.41-9.58,6.02-13.41,3.6c-2.37-1.5-3.35-4.17-2.92-7.03
			c2.83,2.62,8.22,5.77,13.99-0.36c2.08-2.2,3.49-3.99,4.43-5.43C238.02,248.94,237.34,252.46,234.92,255.46z"/>
	</g>
	<g>
		<g>
			<path class="st20" d="M244.58,162.22c-1.74-0.12-3.38,1.36-3.97,2.6c-0.27,0.58-1.03,2.95,0.76,2.58
				c0.82-0.17,1.44-0.68,2.09-1.1c1-0.64,2.28-1.18,3.14-1.97c-0.03,0.12-0.06,0.25-0.12,0.38c-0.05,0.12,0.15,0.19,0.22,0.08
				C247.43,163.51,246.18,162.33,244.58,162.22z"/>
			<g>
				<path class="st21" d="M241.05,181.7c-0.63-2.98-1.06-6.26,0.07-9.19c0.52-1.37,1.28-2.84,2.47-3.95
					c0.75-0.69,1.53-1.37,2.17-2.13c0.87-1.04,2.07-2.77-0.14-3.4c-1.29-0.37-2.4,0.25-3.05,1.02c-0.5,0.58-0.59,2.03-1.38,2.52
					c0.32-1.86,0.3-5.6-2.96-5.92c-0.06,0-0.12-0.01-0.18-0.01c-2.62-0.15-1.36,3.19-1.01,4.17c0.4,1.1,1.02,2.21,1.19,3.35
					c0.32,2.18-0.45,4.26-0.59,6.42c-0.05,0.78-0.08,1.67-0.03,2.58c0.12,2.21,0.76,4.57,3.03,5.89c-0.03,0.04,0.02,0.1,0.1,0.08
					c0-0.01,0.01,0,0.02-0.01c0.02,0.01,0.02,0.02,0.04,0.02c0.08,0.05,0.21,0.01,0.22-0.07c0.01-0.04,0.01-0.08,0.02-0.12
					C241.35,182.66,241.27,182.11,241.05,181.7z"/>
				<path class="st20" d="M238.8,173.76c0.15-1.39,0.34-2.79,0.41-4.19c0.06-1.1,0.53-2.47,0.16-3.56c-0.13-0.42-0.53-0.81-0.74-1.2
					c-0.19-0.32-0.24-0.74-0.32-1.08c-0.16-0.72-0.38-2.16-0.06-3.09c-0.06,0-0.12-0.01-0.18-0.01c-2.62-0.15-1.36,3.19-1.01,4.17
					c0.4,1.1,1.02,2.21,1.19,3.35c0.32,2.18-0.45,4.26-0.59,6.42c-0.05,0.78-0.08,1.67-0.03,2.58c0.21-0.12,0.39-0.31,0.53-0.58
					C238.6,175.7,238.69,174.73,238.8,173.76z"/>
			</g>
		</g>
		<path class="st22" d="M249.78,193.86c-0.09-0.89-0.24-1.78-0.44-2.66c-0.22-1.01-0.49-2-0.81-2.98c-0.04-0.14-0.09-0.28-0.14-0.41
			c-0.28-0.84-0.6-1.67-0.95-2.49c-0.68-1.62-1.48-3.21-2.41-4.76c-0.3-0.5-0.61-1.01-0.95-1.5c-0.15-0.25-0.32-0.48-0.49-0.72
			c-0.99-1.33-2.19-2.53-3.86-3.31c-2.68-1.26-5.71-0.24-8.1,1.08c-0.25,0.14-0.49,0.28-0.73,0.42c-0.41,0.25-0.79,0.5-1.15,0.74
			c-0.76,0.52-1.51,1.07-2.22,1.65c-0.18,0.13-0.35,0.26-0.51,0.4c-1.07,0.87-2.09,1.79-3.04,2.77c-0.34,0.34-0.68,0.68-1,1.04
			c-0.85,0.92-1.65,1.85-2.4,2.81c-2.4,3.08-4.36,6.54-3.74,10.52c0.28,1.83,1.23,3.42,2.53,4.92c0.81,0.94,1.72,1.82,2.66,2.66
			c0.56,0.51,1.1,1.03,1.74,1.42c0.19,0.39,0.43,0.76,0.77,1.09c0.75,0.73,2.01,1.01,3.01,1.27c2.79,0.73,5.39,1.33,8.27,1.3
			c2.65-0.03,5.33-0.55,7.58-1.61c2.19-1.03,3.74-2.82,4.82-4.73C249.77,200.03,250.13,196.96,249.78,193.86z"/>
		<path class="st23" d="M235.83,184.72c2.81,0.03,5.4,0.5,7.91,1.28c2.2,2.5,4.21,5.14,6.05,7.86c-0.09-0.89-0.24-1.78-0.44-2.66
			c-1.22-1.59-2.56-3.14-3.89-4.61c0.98,0.37,1.96,0.77,2.94,1.22c-0.28-0.84-0.6-1.67-0.95-2.49c-1.38-0.57-2.84-0.99-4.35-1.28
			c-0.28-0.29-0.55-0.59-0.82-0.87c-1.28-1.37-2.63-2.55-4.07-3.58c0.55-0.09,1.1-0.16,1.65-0.24c1.44-0.2,2.85-0.3,4.23-0.29
			c-0.15-0.25-0.32-0.48-0.49-0.72c-0.08-0.01-0.16-0.01-0.24,0c-2.08-0.02-4.23,0.13-6.39,0.42c-1.68-1.07-3.45-1.94-5.33-2.64
			c-0.25,0.14-0.49,0.28-0.73,0.42c1.7,0.66,3.29,1.46,4.8,2.4c-1.98,0.3-3.94,0.71-5.85,1.23c-0.75-0.44-1.52-0.85-2.32-1.24
			c-0.18,0.13-0.35,0.26-0.51,0.4c0.68,0.33,1.35,0.69,1.99,1.07c-1.74,0.5-3.42,1.06-5.03,1.7c-0.34,0.34-0.68,0.68-1,1.04
			c2.24-0.85,4.64-1.52,7.1-2.08c1.19,0.77,2.33,1.63,3.39,2.58c-4.72,0.4-9.31,1.53-12.94,2.83c-0.48,0.18-0.15,0.85,0.36,0.69
			c4.27-1.31,8.71-2.2,13.33-2.41c0.14-0.01,0.27-0.01,0.41-0.01c0.04,0.03,0.06,0.06,0.09,0.08c3.59,3.69,5.18,8.32,7.62,12.51
			c0.16,0.27,0.65,0.2,0.58-0.11C241.76,192.34,239.28,188.13,235.83,184.72z M234.57,183.55c-1.12-0.98-2.32-1.88-3.61-2.7
			c2-0.43,4.02-0.78,6.02-1.08c1.66,1.15,3.24,2.49,4.74,4.04C239.39,183.47,236.97,183.41,234.57,183.55z"/>
		<g>
			<path class="st24" d="M246.97,202.88c0.56-3.84-1.55-8.07-4.7-10.98c-2.85-2.63-6.83-3.92-10.75-4.3
				c-3.93-0.38-8.21,0.22-11.07,2.48c-3.12,2.47-3.31,6.56-1.6,10.01c0.93,1.87,2.42,3.46,4.01,4.96c1.69,1.6,3.29,3.23,5.52,4.28
				c2.2,1.04,4.63,1.34,7,1.15c1.35-0.11,2.73-0.32,4.03-0.64C243.42,208.88,246.42,206.61,246.97,202.88z"/>
			<path class="st25" d="M237.26,192.59c-3.63-2.04-8-2.87-11.38-0.56c-3.21,2.19-3.51,6.7-1.24,9.83c2.36,3.27,6.7,5.09,10.91,4.91
				c3.3-0.14,6.86-2.45,7.78-5.12C244.59,197.97,240.72,194.54,237.26,192.59z"/>
			<path class="st26" d="M239.33,199.6c-0.62,1.4-3.09,1.77-5.51,0.82c-2.42-0.94-3.88-2.84-3.26-4.24c0.62-1.4,3.09-1.77,5.51-0.82
				C238.49,196.3,239.95,198.2,239.33,199.6z"/>
			<path class="st27" d="M237.73,198.98c-0.39,0.89-1.96,1.12-3.51,0.52c-1.54-0.6-2.47-1.81-2.08-2.7
				c0.39-0.89,1.96-1.12,3.51-0.52C237.2,196.88,238.13,198.09,237.73,198.98z"/>
		</g>
	</g>
	<g>
		<path class="st28" d="M254.73,140.54c0.24-0.42,0.44-0.9,0.63-1.36c0.22-0.53,0.22-0.44,0.64-0.33c0.55,0.14,1.1-0.18,1.53-0.55
			c0.7-0.6,1.15-1.6,1.23-2.63c1.54,0.2,2.75-3.18,1.37-3.8c0.88-0.34,1.69-0.97,1.69-2.15c0-0.74-0.45-1.2-0.99-1.39
			c0.53-0.28,0.97-0.76,0.8-1.41c-0.14-0.54-0.48-0.86-0.88-0.98c0.27-0.37,0.47-0.82,0.55-1.24c0.27-1.25-0.75-1.37-1.52-1.31
			c0.57-0.66,1.27-1.73,0.89-2.55c-0.4-0.83-1.36-0.63-2.07-0.4c0.26-0.67,0.67-1.47,0.56-2.15c-0.11-0.65-1-0.54-1.36-0.52
			c-0.37,0.02-0.34-1.04-0.41-1.38c-0.07-0.36-0.23-0.63-0.44-0.85c-0.08-0.08-0.15-0.16-0.24-0.23c-0.77-0.61-1.7-0.32-2.52-0.04
			c-0.52,0.18-1.02,0.36-1.56,0.44c-0.9,0.13-1.17-0.45-1.74-1.1c-0.63-0.73-1.53-0.62-2.29-0.28c-0.74,0.35-1.46,1.05-1.94,1.9
			c-0.37,0.64-0.59,1.39-0.57,2.13c-1.48-1.63-4.36,0.35-3.88,2.68c-0.17,0.01-0.35,0.11-0.53,0.31c-0.49,0.59-0.26,1.27,0.15,1.75
			c-0.6,0.18-1.14,0.53-1.41,1.27c-0.03,0.08-0.04,0.17-0.05,0.29c-0.04,0.82,0.52,2.36,0.99,2.45c-1.12-0.21-2.45,0.07-3.38,0.83
			c-0.8,0.66-0.72,1.89-0.22,2.72c0.29,0.49,0.75,0.84,1.18,1.15c0.07,0.05,0.72,0.38,0.66,0.49c-0.17,0.32-0.34,0.62-0.5,0.95
			c-0.45,0.96-0.29,2.04,0.62,2.48c0.72,0.34,1.69-0.19,2.46-0.64c-0.34,0.55-0.46,1.21-0.1,1.87c0.24,0.46,0.56,0.78,0.96,1.05
			c0.23,0.15,0.49,0.23,0.74,0.31c0.48,0.12,0.41-0.09,0.29,0.58c-0.3,1.65,0.25,3.14,1.77,3.3c1.27,0.14,2.41-0.92,3.54-1.52
			c-0.35,0.9,0.07,1.56,1.04,1.87c1.07,0.34,2.03,0.18,2.84-0.38C253.82,141.8,254.31,141.24,254.73,140.54z"/>
		<g>
			<path class="st29" d="M244.36,131.15c0.24-0.26,0.35-0.58,0.27-0.96c-0.07-0.3-0.59-0.9-0.85-0.73c-2.71,1.79-5.68,2.8-8.64,3.83
				c-2.94,1.02-5.78,2.43-8.76,3.3c-0.33,0.1-1.55,0.56-1.44-0.52c0.03-0.29,0.18-0.59,0.3-0.84c0.3-0.65,0.75-1.23,1.21-1.72
				c1.19-1.3,2.75-2.16,4.12-3.16c1.21-0.88,2.26-1.95,3.3-3.09c1.11-1.23,2.34-2.52,3.29-3.93c1.72-2.54,3.95-6.1,3.78-9.53
				c-0.1-2.04-1.5-2.49-2.88-2.98c-0.94-0.33-2.07,0.35-1.64,1.32c-1.08,3.03-2.13,6.05-3.63,8.83c-1.67,3.09-3.92,5.63-6.3,7.95
				c-2.33,2.26-4.77,4.33-6.94,6.8c-1.39,1.57-3.29,3.64-3.53,6.05c-0.14,1.37,0.88,3.91,2.28,3.51c0.82-0.24,1.6-1.38,2.26-1.96
				c1.23-1.08,2.85-1.78,4.23-2.57c2.89-1.65,5.84-3.15,8.79-4.64c2.41-1.22,4.76-2.38,7.3-3.2
				C242.04,132.52,243.45,132.14,244.36,131.15z"/>
			<path class="st28" d="M252.13,127.57c0.95,0.21,1.99-0.14,2.24-1.41c0.52-2.49-1.4-4.28-2.91-5.61c0.65-0.09,1.27-0.08,1.89-0.17
				c0.52-0.07,1.05-0.22,1.56-0.57c0.96-0.65,1.75-1.73,2.02-3.01c0.1-0.46,0.09-0.87,0.01-1.26c-0.4-2.03-2.86-3.27-4.34-4.15
				c2.42-1.24,4.45-5.11,2.63-7.93c-0.96-1.48-2.84-2-4.32-2.07c-1.08-0.05-2.23,0.17-3.28,0.66c0.84-0.93,1.43-2.02,1.42-3.66
				c-0.01-1.91-1.71-2.95-3.12-2.9c-1.63,0.06-3.34,0.76-4.77,1.66c-1.24,0.77-2.5,1.79-3.08,3.33c-0.23-1.35-1.07-3.23-2.21-3.34
				c-0.29-0.03-0.61,0.06-0.94,0.3c-0.57,0.42-0.99,1.14-1.26,1.98c-0.84-0.33-1.71-0.45-2.38-0.18c-0.69,0.27-0.92,1.28-0.56,1.96
				c0.16,0.3,0.42,0.47,0.71,0.58c-0.99,0.74-1.69,2.04-1.41,3.47c0.21,1.09,0.87,2.55,1.79,3.12c-1.1,0.37-1.95,1.29-1.59,2.95
				c0.43,2,1.98,3.55,3.69,3.81c-0.52,1.4,0.03,2.62,1.09,3.46c0.75,0.59,1.69,0.91,2.55,1.15c0.6,0.16,2.24-0.25,1.71,1.03
				c-0.05,0.12-0.1,0.24-0.14,0.36c-0.05,0.12-0.08,0.23-0.11,0.34c-0.32,1.08-0.11,1.8,0.77,2.75c0.17,0.18,0.36,0.34,0.56,0.47
				c0.83,0.53,1.92,0.64,2.79,0.23c-0.54,2.12,3.53,5.65,4.59,6.34c0.17,0.11,0.35,0.19,0.55,0.23c0.1,0.03,0.2,0.05,0.32,0.06
				c0.22,0.04,0.43,0.02,0.64-0.03c0.11-0.02,0.21-0.05,0.32-0.08c0.11-0.03,0.22-0.08,0.32-0.13c0.1-0.04,0.19-0.09,0.28-0.15
				C251.48,130.42,252.51,128.75,252.13,127.57z"/>
			<path class="st30" d="M251.52,141.39c-0.93-0.74-0.65-1.81-0.22-2.77c0.05-0.12-0.04-0.25-0.15-0.25
				c-1.7,0.12-3.31-1.61-1.53-3.23c0.05-0.06,0.09-0.17,0.03-0.24c-0.38-0.54-0.85-0.82-1.32-1.22c-0.59-0.5-0.46-1.43-0.05-2.21
				c0.1,0.03,0.2,0.05,0.32,0.06c0.21,0.02,0.43,0.01,0.64-0.03c0.11-0.02,0.21-0.05,0.32-0.08c0.11-0.03,0.22-0.08,0.32-0.13
				c0.1-0.04,0.19-0.09,0.28-0.15c1.32-0.74,2.36-2.4,1.97-3.59c0.95,0.21,1.99-0.14,2.24-1.41c0.52-2.49-1.4-4.28-2.91-5.61
				c0.65-0.09,1.27-0.08,1.89-0.17c-1.41-0.89-2.58-2.3-2.35-4.36c0.02-0.19-0.18-0.25-0.26-0.09c-0.49,1.05-1.2,2.12-2.27,2.32
				c-1.25,0.23-1.72-0.8-1.83-1.99c-0.07-0.9,0.07-1.89,0.26-2.54c0.05-0.18-0.12-0.3-0.24-0.17c-0.77,0.92-1.6,2.07-2.76,2.22
				c-1.32,0.16-1.16-1.71-0.87-2.49c0.23-0.63,0.67-1.17,1.12-1.57c0.12-0.1,0.02-0.35-0.12-0.27c-1.47,0.89-3.42,1.23-4.95,0.37
				c-2.29-1.3-0.55-4.67,1.22-5.26c0.16-0.06,0.07-0.32-0.09-0.28c-1.6,0.66-3.58-0.01-4.9-1.19c-1.62-1.46-1.15-4.16-0.42-6.02
				c0.24-0.57,0.56-1.25,0.97-1.92c-0.29-0.03-0.61,0.06-0.94,0.3c-0.57,0.42-0.99,1.14-1.26,1.98c-0.84-0.33-1.71-0.45-2.38-0.18
				c-0.69,0.27-0.92,1.28-0.56,1.96c0.16,0.3,0.42,0.47,0.71,0.58c-0.99,0.74-1.69,2.04-1.41,3.47c0.21,1.09,0.87,2.55,1.79,3.12
				c-1.1,0.37-1.95,1.29-1.59,2.95c0.43,2,1.98,3.55,3.69,3.81c-0.52,1.4,0.03,2.62,1.09,3.46c0.75,0.59,1.69,0.91,2.55,1.15
				c0.6,0.16,2.24-0.25,1.71,1.03c-0.05,0.12,0.02,0.44-0.02,0.55c-0.04,0.11,0.08,0.47,0.01,0.53l-0.01,0.01
				c-0.43,0.89-0.23,1.61,0.66,2.55c0.17,0.18,0.3,0.24,0.5,0.37c-0.04,0.82,0.49,2.31,0.96,2.4c-1.12-0.21-2.46,0.04-3.39,0.81
				c-0.8,0.66-0.73,1.88-0.22,2.71c0.29,0.49,0.75,0.83,1.18,1.14c0.07,0.05,0.71,0.38,0.66,0.48c-0.17,0.32-0.34,0.62-0.5,0.95
				c-0.45,0.96-0.3,2.04,0.62,2.48c0.72,0.34,1.69-0.19,2.46-0.65c-0.34,0.55-0.46,1.21-0.1,1.87c0.24,0.46,0.56,0.78,0.96,1.05
				c0.23,0.15,0.49,0.23,0.74,0.31c0.48,0.12,0.41-0.09,0.29,0.58c-0.3,1.65,0.25,3.14,1.77,3.3c1.27,0.14,2.41-0.92,3.54-1.52
				c-0.35,0.9,0.07,1.56,1.04,1.87c1.07,0.34,2.03,0.18,2.84-0.38C252.66,142.07,252.09,141.86,251.52,141.39z"/>
			<path class="st31" d="M240.69,126.11c0.03-0.11-0.07-0.22-0.16-0.2c-2.42,0.36-4.82,1.86-7.06,2.94
				c-2.01,0.96-3.81,2.2-5.62,3.58c-0.76,0.58-1.55,1.12-2.4,1.52c-0.37,0.18-0.77,0.31-1.17,0.27c-0.88-0.1-0.54-1.6-0.37-2.19
				c0.43-1.43,1.21-2.67,2.1-3.75c2.15-2.62,4.35-5.17,6.34-7.96c0.94-1.31,1.84-2.69,2.54-4.2c0.39-0.85,0.82-1.95,0.56-2.93
				c-0.07-0.28-0.25-0.52-0.45-0.69c-0.05-0.05-0.13-0.04-0.17,0.02c-1.1,1.65-2.35,3.14-3.53,4.71c-1.18,1.58-2.03,3.38-3.11,5.05
				c-1.05,1.63-2.24,3.12-3.35,4.68c-1.16,1.63-2.22,3.36-3.39,4.99c-1.41,1.96-2.89,3.88-4.24,5.91c-0.01-0.03-0.03-0.05-0.06-0.02
				c-0.58,0.79-1.15,1.55-1.62,2.44c-0.26,0.49-0.62,1.22-0.49,1.84c0.28,1.36,1.95,1.06,2.68,0.47c0.07-0.05,0.05-0.16,0-0.22
				c4.41-1.38,8.09-5.34,12.02-7.9c2.35-1.53,4.78-2.8,7.19-4.16C238.49,129.42,240.2,128.2,240.69,126.11z"/>
			<g>
				<path class="st28" d="M244.48,133.07c0.19-0.25,0.35-0.52,0.47-0.8c0.54-1.22,0.4-2.68-0.18-4.03c1.79-0.94,2.3-3.88,0.13-4.82
					c0.96-1.02,1.18-2.94-0.46-3.3c-1.67-0.36-0.7-1.33-1.35-2.4c-0.44-0.74-1.18-0.83-1.85-0.8c0.53-1.71-1.54-2.1-2.64-1.41
					c-0.13-0.67-0.3-1.59-0.87-1.76c-0.74-0.22-1.37,0.1-1.93,0.61c-0.23,0.22-0.55,0.6-0.75,0.98c-0.33-0.13-0.74-0.07-1.14,0.13
					c-0.21,0.1-0.39,0.24-0.57,0.4c-0.24,0.22-0.46,0.47-0.65,0.74c-0.18,0.26-0.28,1.07-0.46,1.2c-1.33,0.96-1.67,5.63,0.41,5.68
					c-0.51,1.13-1.06,1.79-0.77,3.24c0.1,0.52,0.47,0.87,0.83,1.13c0.15,0.11,1.51,0.55,1.54,0.29c-0.17,1.34-0.09,2.67,0.95,3.49
					c0.7,0.56,1.78,0.27,2.45-0.28c-0.01,1.15,0.06,2.53,0.94,3.18c0.55,0.41,1.33-0.03,1.8-0.29c0.3-0.17,0.55-0.4,0.78-0.67
					c0.13-0.15,1.15-1.36,1.14-1.1C242.22,134.01,243.92,133.79,244.48,133.07z"/>
				<path class="st30" d="M244.48,133.07c0.19-0.25,0.35-0.52,0.47-0.8c-0.59-0.21-1.19-0.29-1.78-0.43
					c-0.9-0.21-2.64-0.65-1.59-1.99c0.1-0.13-0.02-0.41-0.17-0.37c-1.9,0.37-3.42-2.32-1.6-3.72c0.18-0.15-0.03-0.47-0.21-0.35
					c-0.9,0.65-1.92,0.4-2.63-0.63c-0.73-1.07,0.09-2.08,0.63-2.79c0.06-0.07,0.03-0.19-0.03-0.25c-0.49-0.52-1.04-0.9-1.58-1.34
					c-1.06-0.85-0.72-1.86-0.09-2.88c0.06-0.09,0.02-0.21-0.05-0.25c-0.79-0.56-1.87-0.72-2.5-1.43c-0.24,0.22-0.46,0.47-0.65,0.74
					c-0.18,0.26-0.28,1.07-0.46,1.2c-1.33,0.96-1.67,5.63,0.41,5.68c-0.51,1.13-1.06,1.79-0.77,3.24c0.1,0.52,0.47,0.87,0.83,1.13
					c0.15,0.11,1.51,0.55,1.54,0.29c-0.17,1.34-0.09,2.67,0.95,3.49c0.7,0.56,1.78,0.27,2.45-0.28c-0.01,1.15,0.06,2.53,0.94,3.18
					c0.55,0.41,1.33-0.03,1.8-0.29c0.3-0.17,0.55-0.4,0.78-0.67c0.13-0.15,1.15-1.36,1.14-1.1
					C242.22,134.01,243.92,133.79,244.48,133.07z"/>
			</g>
			<g>
				<path class="st28" d="M238.44,116.12c0.05-0.27,0.08-0.53,0.07-0.78c-0.02-1.11-0.61-2.08-1.46-2.76
					c0.95-1.5,0.34-3.81-1.5-3.46c0.34-1.16-0.14-2.62-1.42-2.11c-1.29,0.52-0.93-0.61-1.75-1.07c-0.56-0.32-1.11-0.04-1.57,0.29
					c-0.19-1.45-1.78-0.76-2.33,0.23c-0.32-0.41-0.74-0.98-1.19-0.84c-0.6,0.19-0.94,0.71-1.16,1.32c-0.09,0.26-0.19,0.68-0.21,1.04
					c-0.28,0.06-0.55,0.29-0.76,0.62c-0.11,0.17-0.2,0.35-0.27,0.55c-0.1,0.26-0.17,0.55-0.21,0.83c-0.04,0.27,0.16,0.88,0.07,1.06
					c-0.62,1.3,0.69,4.75,2.17,3.81c0.02,1.03-0.15,1.75,0.53,2.64c0.24,0.32,0.62,0.39,0.96,0.41c0.14,0.01,1.25-0.31,1.18-0.51
					c0.32,1.03,0.82,1.93,1.83,2.02c0.68,0.07,1.35-0.64,1.63-1.34c0.37,0.81,0.88,1.76,1.72,1.81c0.53,0.04,0.93-0.64,1.17-1.04
					c0.15-0.26,0.26-0.54,0.33-0.83c0.04-0.17,0.36-1.49,0.44-1.31C237.17,117.83,238.29,116.89,238.44,116.12z"/>
				<path class="st30" d="M238.44,116.12c0.05-0.27,0.08-0.53,0.07-0.78c-0.48,0.12-0.93,0.35-1.4,0.52
					c-0.7,0.27-2.08,0.77-1.78-0.67c0.03-0.14-0.15-0.28-0.24-0.18c-1.22,1.15-3.18-0.04-2.36-1.88c0.08-0.18-0.18-0.32-0.26-0.15
					c-0.42,0.88-1.22,1.17-2.06,0.78c-0.87-0.41-0.62-1.51-0.48-2.26c0.02-0.08-0.04-0.15-0.1-0.16c-0.52-0.13-1.03-0.15-1.56-0.21
					c-1.03-0.11-1.12-0.98-1.02-1.99c0.01-0.09-0.05-0.16-0.12-0.15c-0.74-0.03-1.56,0.36-2.24,0.16c-0.1,0.26-0.17,0.55-0.21,0.83
					c-0.04,0.27,0.16,0.88,0.07,1.06c-0.62,1.3,0.69,4.75,2.17,3.81c0.02,1.03-0.15,1.75,0.53,2.64c0.24,0.32,0.62,0.39,0.96,0.41
					c0.14,0.01,1.25-0.31,1.18-0.51c0.32,1.03,0.82,1.93,1.83,2.02c0.68,0.07,1.35-0.64,1.63-1.34c0.37,0.81,0.88,1.76,1.72,1.81
					c0.53,0.04,0.93-0.64,1.17-1.04c0.15-0.26,0.26-0.54,0.33-0.83c0.04-0.17,0.36-1.49,0.44-1.31
					C237.17,117.83,238.29,116.89,238.44,116.12z"/>
			</g>
		</g>
	</g>
	<g>
		<g>
			<g>
				<path d="M90.38,293.74c-0.52,0.04-2.16,22.16-1.73,29.46c0.43,7.31,0.83,64.06,0.83,64.06s-3.84,2.58-3.84,6.02
					s-6.88,66.2-6.88,66.2l20.7,3.44c0,0,18.85-68.35,19.28-77.81c0.43-9.46,13.76-74.37,13.76-74.37s4.3,61.48,4.3,70.93
					c0,9.46-0.18,82.25-0.18,82.25s15.33,2.16,22.7,0.41c0,0,6.28-54.71,6.28-72.77s0-29.23,0-29.23s7.31-33.96,10.75-51.16
					c3.44-17.2,0-33.59,0-33.59l-61.91-8.11L90.38,293.74z"/>
			</g>
		</g>
		<g>
			<g>
				<g>
					<path class="st32" d="M106.26,392.17c-0.04,0.17-3.47-1.2-7.88-0.78c-4.41,0.36-7.55,2.33-7.62,2.16
						c-0.03-0.05,0.7-0.6,2.03-1.22c1.33-0.62,3.29-1.25,5.54-1.46c2.25-0.2,4.29,0.08,5.71,0.45
						C105.46,391.7,106.28,392.12,106.26,392.17z"/>
				</g>
			</g>
		</g>
		<g>
			<g>
				<g>
					<path class="st32" d="M107.54,386.91c0,0.14-2.63,0.17-5.85,0.06c-3.23-0.11-5.84-0.32-5.83-0.46
						c0.01-0.14,2.62-0.17,5.85-0.06C104.93,386.56,107.54,386.77,107.54,386.91z"/>
				</g>
			</g>
		</g>
		<g>
			<g>
				<g>
					<path class="st32" d="M149.89,399.74c-0.03,0.03-0.24-0.15-0.61-0.5c-0.37-0.34-0.87-0.88-1.45-1.59
						c-1.15-1.4-2.53-3.55-3.52-6.15c-0.99-2.61-1.4-5.12-1.48-6.93c-0.04-0.91-0.03-1.64,0.02-2.15c0.04-0.51,0.08-0.78,0.12-0.78
						c0.09,0,0.05,1.12,0.23,2.9c0.17,1.78,0.63,4.22,1.6,6.77c0.98,2.55,2.27,4.67,3.33,6.11
						C149.18,398.87,149.95,399.68,149.89,399.74z"/>
				</g>
			</g>
		</g>
		<g>
			<g>
				<g>
					<path class="st32" d="M133.19,308.24c0.03,0.02-0.16,0.31-0.53,0.82c-0.21,0.23-0.49,0.49-0.81,0.81
						c-0.34,0.28-0.74,0.6-1.2,0.92c-1.85,1.25-4.64,2.64-7.94,3.5c-3.28,0.91-6.43,1.09-8.64,0.72c-0.28-0.05-0.54-0.08-0.79-0.13
						c-0.24-0.07-0.47-0.14-0.69-0.2c-0.43-0.12-0.79-0.24-1.07-0.4c-0.56-0.28-0.86-0.45-0.84-0.48c0.05-0.11,1.25,0.61,3.43,0.85
						c2.16,0.27,5.23,0.04,8.46-0.86c3.24-0.84,6.01-2.16,7.87-3.3c0.46-0.3,0.86-0.59,1.21-0.84c0.31-0.26,0.59-0.5,0.85-0.72
						C132.92,308.47,133.16,308.22,133.19,308.24z"/>
				</g>
			</g>
		</g>
	</g>
	<g>
		<g>
			<path class="st33" d="M208.31,136.23c0,0-0.15-4.39,1.93-8.56c2.08-4.17,8.34-11.16,8.34-11.16s8.63-6.7,9.53-6.25
				c0.89,0.45,1.19,1.49,0,2.53c-1.19,1.04-5.81,6.4-5.81,6.4s1.94,0.74,1.94,2.08c0,1.34-0.45,1.96-0.45,1.96s1.79,0.87,2.23,1.91
				c0.45,1.04,0.45,1.94,0.45,1.94s1.04,0.15,1.19,1.49c0.15,1.34-0.15,2.53-0.15,2.53s-3.28,3.72-4.61,4.17
				c-1.34,0.45-3.13,0.96-3.13,0.96l-1.17,1.57v4.29L208.31,136.23z"/>
		</g>
	</g>
	<g>
		<g>
			<g>
				<path class="st32" d="M76.19,169.28c0,0-31.21,55.08-31.34,63.73c-0.23,15.37,43.39,27.76,43.39,27.76l6.15-17.54l-22.23-15.4
					l16.18-35.12L76.19,169.28z"/>
			</g>
		</g>
		<g>
			<g>
				<path class="st34" d="M76.19,169.28c0,0,5.53-4.74,14.02-5.77s23.68-1.29,23.68-1.29s41.18-9.01,44.27-7.21
					c3.09,1.8,7.21,12.87,7.98,18.02c0.77,5.15-3.49,54.16-3.49,54.16s18.42,57.03,17.13,58.84c-0.62,0.87-22.87,8.7-45.35,10.43
					l-1.25-16.67l-2.66,15.53c-20.89,1.56-44.6,2.33-44.6,2.33s16.27-56.53,15.76-58.07S74.01,174.79,76.19,169.28z"/>
			</g>
		</g>
		<g>
			<g>
				<path class="st32" d="M158.16,155.01c0,0,15.14,8.54,16.92,8.34c1.79-0.2,3.57-3.18,5.95-0.79l13.3-2.38l13.3-24.21
					c0,0,7.74,2.78,13.3,8.14c0,0-7.34,25.21-11.91,28.98c-4.57,3.77-22.1,16.86-46.59,17.12l-3.03-20.1L158.16,155.01z"/>
			</g>
		</g>
		<g>
			<g>
				<g>
					<path class="st1" d="M173.98,184.59c-0.08-0.05,0.65-1.11,1.49-2.99c0.43-0.93,0.84-2.09,1.21-3.39
						c0.34-1.31,0.62-2.78,0.74-4.34c0.11-1.56,0.05-3.05-0.09-4.4c-0.17-1.35-0.4-2.55-0.69-3.54c-0.55-1.98-1.12-3.14-1.03-3.18
						c0.03-0.02,0.19,0.26,0.46,0.78c0.28,0.51,0.6,1.3,0.93,2.29c0.34,0.99,0.62,2.21,0.81,3.58c0.17,1.37,0.24,2.9,0.13,4.5
						c-0.13,1.6-0.43,3.1-0.8,4.43c-0.4,1.33-0.86,2.49-1.34,3.42c-0.47,0.93-0.91,1.66-1.26,2.13
						C174.21,184.36,174.01,184.61,173.98,184.59z"/>
				</g>
			</g>
		</g>
		<g>
			<g>
				<g>
					<path class="st1" d="M199.83,165.38c-0.07,0.12-1.64-0.7-3.26-2.16c-1.62-1.45-2.61-2.92-2.5-3c0.12-0.09,1.26,1.21,2.85,2.62
						C198.5,164.25,199.91,165.25,199.83,165.38z"/>
				</g>
			</g>
		</g>
		<g>
			<g>
				<path class="st33" d="M88.61,259.7c0,0,0.62,2.26,4.21-0.28c0,0,4.99-1,7.57-3.48c2.58-2.48,3-3.98,4.81-4.11
					c1.81-0.12,7.01-0.86,7.1-0.81c0.09,0.05,1.42-2.95-0.2-3.46c-1.63-0.51-8.86,0.16-8.86,0.16l-2.11,0.13l-0.36-2.89l0.41-2.62
					c0,0-4.42,1.68-4.35,2.89c0,0-3.14-0.92-3.56,1.18L88.61,259.7z"/>
			</g>
		</g>
		<g>
			<g>
				<g>
					<path class="st1" d="M91.08,213.14c-0.03,0.01-0.23-0.36-0.57-1.06c-0.34-0.7-0.8-1.71-1.35-2.98
						c-1.1-2.53-2.54-6.07-3.96-10.04c-1.42-3.97-2.57-7.61-3.32-10.27c-0.38-1.33-0.67-2.41-0.85-3.16
						c-0.18-0.75-0.27-1.17-0.23-1.18c0.03-0.01,0.19,0.39,0.43,1.12c0.27,0.84,0.61,1.88,1.01,3.11c0.85,2.62,2.04,6.24,3.46,10.2
						c1.42,3.96,2.8,7.51,3.81,10.07c0.47,1.2,0.87,2.22,1.2,3.04C90.98,212.72,91.12,213.13,91.08,213.14z"/>
				</g>
			</g>
		</g>
		<g>
			<g>
				<g>
					<path class="st1" d="M141.99,241.8c0.03,0.02-0.23,0.47-0.73,1.26c-0.49,0.8-1.26,1.91-2.28,3.24
						c-2.02,2.67-5.13,6.14-9.08,9.4c-3.96,3.25-7.96,5.64-10.97,7.11c-1.5,0.74-2.74,1.29-3.62,1.61
						c-0.87,0.34-1.36,0.51-1.37,0.47c-0.01-0.03,0.45-0.27,1.29-0.66c0.85-0.38,2.06-0.98,3.53-1.75
						c2.95-1.55,6.88-3.96,10.81-7.18c3.92-3.23,7.04-6.63,9.12-9.23c1.04-1.3,1.86-2.37,2.4-3.13
						C141.65,242.19,141.96,241.78,141.99,241.8z"/>
				</g>
			</g>
		</g>
		<g>
			<g>
				<g>
					<path class="st1" d="M73.52,227.78c0.03,0.15-2.35,0.62-5.13,1.67c-2.79,1.04-4.89,2.25-4.97,2.12
						c-0.08-0.11,1.94-1.55,4.78-2.61C71.04,227.89,73.5,227.65,73.52,227.78z"/>
				</g>
			</g>
		</g>
		<g class="st35">
			<g>
				<g>
					<path d="M85.42,199.23c-3.38-1.39-6.39-5.47-7.09-9.06c-0.69-3.59,0.75-7.29,1.25-10.91
						C80.95,185.61,83.17,193.13,85.42,199.23"/>
				</g>
			</g>
		</g>
		<g class="st35">
			<g>
				<g>
					<path d="M117.06,268.13c5.58,1.91,11.99,1.27,17.08-1.71c5.1-2.98,8.79-8.25,9.87-14.05
						C135.77,257.92,126.1,264.01,117.06,268.13z"/>
				</g>
			</g>
		</g>
		<g>
			<g>
				<g>
					<path class="st1" d="M165.57,166.43c0.04-0.01,0.13,0.37,0.27,1.07c0.14,0.69,0.31,1.71,0.47,2.96
						c0.33,2.51,0.6,6.02,0.51,9.89c-0.09,3.87-0.52,7.36-0.97,9.85c-0.22,1.25-0.43,2.25-0.61,2.94c-0.17,0.69-0.28,1.06-0.32,1.06
						c-0.08-0.02,0.21-1.55,0.56-4.05c0.35-2.5,0.72-5.96,0.81-9.81c0.09-3.84-0.12-7.32-0.36-9.83
						C165.71,168,165.49,166.45,165.57,166.43z"/>
				</g>
			</g>
		</g>
	</g>
	<g>
		<g>
			<g>
				<path d="M128.9,96.54c-5.16-0.84-10.48,1.39-14.33,4.93c-3.85,3.54-6.42,8.25-8.48,13.05c-4.02,9.36-6.35,19.34-8.66,29.26
					c-3.41,14.62-6.84,29.32-7.75,44.31c-0.91,14.98,3.57,23.83,10.04,37.38l22.85-3.17l-0.04-4.33l3.09,4.33l8.87-1.37
					c0,0,2.66-23.2,2.66-23.13s4.23,22.1,4.23,22.1l7.39-0.68c7.35-29.15-0.97-48.34,3.22-78.11c0.99-7.08,2.57-14.13,2.54-21.28
					c-0.03-7.15-1.87-14.63-6.8-19.8c-4.93-5.18-13.44-7.3-19.5-3.49"/>
			</g>
		</g>
	</g>
	<path class="st36" d="M208.46,54.91h-1.2c0,0,1.48,3.48-0.23,3.55c0,0-4.2,0.34-2.07-3.41l-1.71-0.14c0,0-0.42,3.47,2.2,4.26v4.72
		h2.22l-1.08-4.57c0.24,0,0.49-0.02,0.77-0.05C207.36,59.27,209.16,59.1,208.46,54.91z"/>
	<path class="st37" d="M221.67,63.9h-1.4c0,0,0.9-4.64-0.59-4.68c-0.05,0-0.1-0.01-0.15-0.02c-0.35-0.1-1.99-0.33-1.64,4.7h-1.22
		c0,0-0.3-9.61,1.75-8.9C218.41,55,222.59,58.5,221.67,63.9z"/>
	<path class="st37" d="M215.41,62.91c0,0,0.62-1.77-1.46-2.39c-0.16-0.05-0.33-0.07-0.49-0.08l-1.96-0.08c0,0-2.06,0.11-2.41-2.6
		c0,0,0-0.01,0-0.01c0-0.13,0.02-2.19,1.95-2.75c0.15-0.04,0.31-0.06,0.47-0.06l4.97,0c0.08,0,0.12,0.1,0.06,0.16l-1.8,1.8
		c-0.02,0.02-0.04,0.03-0.06,0.03l-2.9,0.02c-0.07,0-0.15,0.01-0.21,0.05c-0.18,0.08-0.49,0.31-0.42,0.82
		c0.04,0.27,0.23,0.5,0.49,0.58c0.39,0.12,1.01,0.12,1.79,0.04c0,0,0,0,0,0c0.03,0,1.88-0.07,2.66,1.46
		c0.04,0.08,0.07,0.17,0.1,0.26C216.28,60.6,216.47,61.89,215.41,62.91z"/>
	<circle class="st36" cx="213.47" cy="62.57" r="1.33"/>
	<path class="st37" d="M220.12,54.96c3.42,0.04,4.54,0.03,4.84,0.03c0.07,0,0.15,0.01,0.22,0.03c0.39,0.1,1.54,0.54,1.8,2.18
		c0,0,0.29,1.77-1.73,2.55c-0.08,0.03-0.16,0.05-0.25,0.05l-2.75,0.08c-0.12,0-0.23-0.07-0.27-0.18l-0.57-1.58l3.19-0.04
		c0.01,0,0.02,0,0.03-0.01c0.08-0.03,0.48-0.21,0.53-0.68c0,0,0.06-0.56-0.66-0.66l-3.87-0.09
		C220.62,56.65,218.68,54.95,220.12,54.96z"/>
	<path class="st36" d="M196.57,58.06c0.05,0.01,0.96,0.18,3.03-0.44c0,0,0.21-0.01,0.34,0.18c0.52,0.37,1.01,0.24,1.01,0.24
		c0.01,0,0.02,0,0.03,0c0.15-0.03,1.22-0.26,0.99-1.14c-0.02-0.03-0.29-0.65-1.38-0.44c-0.01,0,0.04-0.02-0.03,0
		c-0.05,0.02-0.32,0-0.71,0.36c0,0-0.23,0.37-0.56,0.43c0,0-1.44,0.13-1.88-0.18c0,0,0,0,0,0c0,0-1.27-0.53-0.84-1.54
		c0,0,0.23-0.57,1.13-0.61c0,0,0,0,0,0l2.53,0.09c0,0,0,0,0,0c0.01,0,2.66,0.08,2.81,2.34c0,0.06,0,0.15,0,0.2
		c-0.03,0.39-0.01,1.39-1.03,1.87c0,0,0,0,0,0c0,0-0.94,0.35-1.61,0.58c0,0,0,0,0,0c0,0-0.34,0.09-0.48,0c0,0-0.57-0.39-0.97-0.19
		c0,0,0,0,0,0l-1.48,0.47c0,0,0,0,0,0c-0.01,0.01-0.12,0.26,0.2,0.21c0,0,0,0,0,0l1.26-0.39c0,0,0,0,0,0c0,0,0.33-0.01,0.05,0.17
		c0,0,0,0,0,0l-1.28,0.39c0,0,0,0,0,0c-0.01,0.01-0.32,0.27,0.09,0.28c0,0,0,0,0,0l1.26-0.42c0.02-0.01,0.03-0.01,0.05-0.01
		c0.06,0,0.2,0.01,0,0.16l0,0c0,0-1.24,0.37-1.24,0.37c0,0,0,0,0,0c0,0-0.36,0.28,0.05,0.28c0,0,0,0,0,0c0,0,1.24-0.36,1.24-0.36
		c0.01,0,0.03-0.01,0.04-0.01c0.07-0.01,0.28-0.02,0.07,0.13c0,0,0,0,0,0c0,0-1.32,0.45-1.32,0.45c0,0,0,0,0,0
		c0,0-0.12,0.21,0.1,0.24c0,0,0,0,0,0l1.36-0.42c0,0,0,0,0,0c0.02-0.01,0.59-0.25,0.66-0.67c0,0,0,0,0,0c0,0,0.08-0.15,0.15-0.2
		c0,0,0.44-0.25,0.79-0.21c0.08,0,0.17,0.01,0.25,0.01c0.35-0.02,1.25,0.02,1.58,0.95c0,0,0.58,1.37-1.07,2.16
		c0,0-1.15,0.53-2.04,0.45c0,0,0,0,0,0l-2.34,0.01c0,0,0,0,0,0c0,0-0.62,0.07-0.79-0.57c0,0,0,0,0,0L196.57,58.06
		C196.57,58.06,196.57,58.06,196.57,58.06z"/>
</g>
</svg>
